<svg width="76" height="27" viewBox="0 0 76 27" fill="none" xmlns="http://www.w3.org/2000/svg">
<rect y="0.5" width="76" height="26" rx="13" fill="#00FF69" fill-opacity="0.21"/>
<path d="M13.9015 16.095L13.25 21L16.6913 18.9352C16.8035 18.8679 16.8597 18.8342 16.9196 18.821C16.9726 18.8094 17.0274 18.8094 17.0804 18.821C17.1403 18.8342 17.1965 18.8679 17.3087 18.9352L20.75 21L20.0989 16.0928M20.3194 7.68666C20.4352 7.9668 20.6576 8.18947 20.9375 8.30573L21.9192 8.71236C22.1993 8.82841 22.4219 9.051 22.538 9.33116C22.654 9.61132 22.654 9.92611 22.538 10.2063L22.1316 11.1873C22.0155 11.4675 22.0154 11.7827 22.132 12.0628L22.5376 13.0435C22.5952 13.1823 22.6248 13.331 22.6248 13.4812C22.6248 13.6314 22.5953 13.7802 22.5378 13.919C22.4803 14.0577 22.396 14.1838 22.2898 14.29C22.1836 14.3962 22.0575 14.4805 21.9187 14.5379L20.9377 14.9442C20.6576 15.0601 20.4349 15.2824 20.3187 15.5624L19.912 16.5441C19.796 16.8242 19.5734 17.0468 19.2933 17.1629C19.0131 17.2789 18.6983 17.2789 18.4182 17.1629L17.4372 16.7565C17.1571 16.6408 16.8424 16.641 16.5624 16.7572L15.5808 17.1632C15.3008 17.279 14.9863 17.2789 14.7063 17.163C14.4264 17.047 14.204 16.8247 14.0878 16.5448L13.6811 15.5628C13.5653 15.2827 13.3429 15.06 13.063 14.9438L12.0813 14.5371C11.8013 14.4211 11.5788 14.1987 11.4627 13.9187C11.3466 13.6387 11.3464 13.324 11.4622 13.0439L11.8686 12.0629C11.9843 11.7828 11.9841 11.4681 11.8679 11.1881L11.4622 10.2057C11.4046 10.0669 11.375 9.91819 11.375 9.76798C11.375 9.61777 11.4045 9.46902 11.462 9.33024C11.5195 9.19146 11.6038 9.06537 11.71 8.95917C11.8162 8.85297 11.9424 8.76875 12.0811 8.71131L13.0621 8.30497C13.342 8.18923 13.5645 7.96718 13.6809 7.68753L14.0875 6.70583C14.2035 6.42567 14.4261 6.20308 14.7063 6.08704C14.9864 5.97099 15.3012 5.97099 15.5813 6.08704L16.5623 6.49338C16.8424 6.60914 17.1571 6.6089 17.4371 6.49272L18.4192 6.08767C18.6993 5.97168 19.014 5.97171 19.2941 6.08773C19.5742 6.20375 19.7967 6.42628 19.9128 6.70637L20.3195 7.68836L20.3194 7.68666Z" stroke="#12B76A" strokeWidth="1.5" strokeLinecap="round" stroke-linejoin="round"/>
<path d="M30.984 17.5H36.24V16.228H32.58V8.92H30.984V17.5ZM40.1162 17.62C41.7242 17.62 42.7922 16.9 42.9962 15.58H41.5922C41.4842 16.192 41.0282 16.54 40.1522 16.54C39.0722 16.54 38.4722 15.868 38.4242 14.68H43.0202V14.26C43.0202 12.016 41.6162 11.092 40.0562 11.092C38.2682 11.092 36.9362 12.388 36.9362 14.332V14.428C36.9362 16.408 38.2682 17.62 40.1162 17.62ZM38.4482 13.708C38.5922 12.736 39.1802 12.148 40.0562 12.148C40.9562 12.148 41.5082 12.628 41.5802 13.708H38.4482ZM45.8439 17.5H47.5359L49.8039 11.224H48.3759L46.7559 16.012L45.1119 11.224H43.5519L45.8439 17.5ZM53.4053 17.62C55.0133 17.62 56.0813 16.9 56.2853 15.58H54.8813C54.7733 16.192 54.3173 16.54 53.4413 16.54C52.3613 16.54 51.7613 15.868 51.7133 14.68H56.3093V14.26C56.3093 12.016 54.9053 11.092 53.3453 11.092C51.5573 11.092 50.2253 12.388 50.2253 14.332V14.428C50.2253 16.408 51.5573 17.62 53.4053 17.62ZM51.7373 13.708C51.8813 12.736 52.4693 12.148 53.3453 12.148C54.2453 12.148 54.7973 12.628 54.8693 13.708H51.7373ZM57.6422 17.5H59.0942V8.32H57.6422V17.5ZM65.0554 17.5H66.6634V8.92H65.2354L63.2434 10.336V11.74L65.0554 10.504V17.5Z" fill="#12B76A"/>
</svg>
