<svg width="18" height="18" viewBox="0 0 18 18" fill="none" xmlns="http://www.w3.org/2000/svg">
<path d="M15.6667 0.642822H2.33333C1.97971 0.642822 1.64057 0.783298 1.39052 1.03335C1.14048 1.2834 1 1.62253 1 1.97616V15.3095C1 15.6631 1.14048 16.0022 1.39052 16.2523C1.64057 16.5023 1.97971 16.6428 2.33333 16.6428H15.6667C16.0203 16.6428 16.3594 16.5023 16.6095 16.2523C16.8595 16.0022 17 15.6631 17 15.3095V1.97616C17 1.62253 16.8595 1.2834 16.6095 1.03335C16.3594 0.783298 16.0203 0.642822 15.6667 0.642822Z" stroke="white" strokeLinecap="round" stroke-linejoin="round"/>
<path d="M7.66678 11.7539L9.889 13.5317L13.4446 9.08727M4.55566 4.64282H13.4446M4.55566 8.19838H8.11122" stroke="white" strokeLinecap="round" stroke-linejoin="round"/>
</svg>
