<svg width="19" height="17" viewBox="0 0 19 17" fill="none" xmlns="http://www.w3.org/2000/svg">
<path d="M12.0012 6.11938V7.45283H8.00082C7.29352 7.45283 6.61519 7.7338 6.11505 8.23394C5.61491 8.73408 5.33393 9.41242 5.33393 10.1197V12.7866C5.33393 13.4939 5.61491 14.1722 6.11505 14.6724C6.61519 15.1725 7.29352 15.4535 8.00082 15.4535H14.668C15.3753 15.4535 16.0537 15.1725 16.5538 14.6724C17.054 14.1722 17.3349 13.4939 17.3349 12.7866V10.1197C17.3349 9.65159 17.2117 9.19172 16.9776 8.78631C16.7436 8.38091 16.4069 8.04426 16.0015 7.81019V6.34607C17.555 6.89545 18.6684 8.37691 18.6684 10.1184V12.7853C18.6684 13.8462 18.2469 14.8637 17.4967 15.6139C16.7465 16.3641 15.729 16.7856 14.668 16.7856H8.00082C6.93987 16.7856 5.92237 16.3641 5.17216 15.6139C4.42195 14.8637 4.00049 13.8462 4.00049 12.7853V10.1197C4.00049 9.05876 4.42195 8.04126 5.17216 7.29106C5.92237 6.54085 6.93987 6.11938 8.00082 6.11938H12.0012Z" fill="white"/>
<path d="M6.66722 11.4532V10.1198H10.6676C11.3749 10.1198 12.0532 9.83878 12.5533 9.33864C13.0535 8.8385 13.3344 8.16017 13.3344 7.45287V4.78598C13.3344 4.07867 13.0535 3.40034 12.5533 2.9002C12.0532 2.40006 11.3749 2.11909 10.6676 2.11909H4.00033C3.29303 2.11909 2.6147 2.40006 2.11456 2.9002C1.61442 3.40034 1.33344 4.07867 1.33344 4.78598V7.45287C1.33346 7.92099 1.45669 8.38087 1.69076 8.78627C1.92482 9.19168 2.26148 9.52833 2.66689 9.76239V11.2265C1.88672 10.9505 1.21133 10.4394 0.733714 9.76353C0.2561 9.0877 -0.000238591 8.28043 1.66635e-07 7.45287V4.78598C1.66635e-07 3.72502 0.421463 2.70752 1.17167 1.95732C1.92188 1.20711 2.93938 0.785645 4.00033 0.785645H10.6676C11.7285 0.785645 12.746 1.20711 13.4962 1.95732C14.2464 2.70752 14.6679 3.72502 14.6679 4.78598V7.45287C14.6679 8.51382 14.2464 9.53132 13.4962 10.2815C12.746 11.0317 11.7285 11.4532 10.6676 11.4532H6.66722Z" fill="white"/>
</svg>
