<svg width="16" height="17" viewBox="0 0 16 17" fill="none" xmlns="http://www.w3.org/2000/svg">
<path d="M7.44189 12.965C7.44189 13.113 7.5007 13.255 7.60537 13.3597C7.71004 13.4644 7.85201 13.5232 8.00003 13.5232C8.14806 13.5232 8.29003 13.4644 8.3947 13.3597C8.49937 13.255 8.55817 13.113 8.55817 12.965V10.7325C8.55817 10.5844 8.49937 10.4425 8.3947 10.3378C8.29003 10.2331 8.14806 10.1743 8.00003 10.1743C7.85201 10.1743 7.71004 10.2331 7.60537 10.3378C7.5007 10.4425 7.44189 10.5844 7.44189 10.7325V12.965Z" fill="#4A33FB"/>
<path fill-rule="evenodd" clip-rule="evenodd" d="M8 0.5C7.47312 0.5 6.9946 0.65107 6.47442 0.903349C5.97284 1.14744 5.39237 1.50763 4.66828 1.95712L3.13005 2.91191C2.4454 3.33758 1.89544 3.67842 1.47274 4.00214C1.03442 4.33702 0.698046 4.67935 0.454698 5.12363C0.212093 5.56642 0.103442 6.03823 0.0506046 6.59563C-3.32677e-08 7.13516 0 7.796 0 8.62428V9.82465C0 11.2416 0 12.3601 0.11386 13.2345C0.229953 14.1313 0.475535 14.8553 1.02921 15.4276C1.58512 16.0029 2.29209 16.2604 3.16874 16.3817C4.01712 16.5 5.10214 16.5 6.46847 16.5H9.53153C10.8979 16.5 11.9829 16.5 12.8313 16.3817C13.7072 16.2604 14.4149 16.0029 14.9715 15.4276C15.5245 14.8553 15.77 14.1313 15.8869 13.2345C16 12.3601 16 11.2416 16 9.82465V8.62428C16 7.796 16 7.13591 15.9494 6.59563C15.8973 6.03749 15.7879 5.56642 15.5453 5.12363C15.302 4.67935 14.9648 4.33777 14.5273 4.00214C14.1046 3.67767 13.5553 3.33758 12.87 2.91191L11.3317 1.95712C10.6076 1.50763 10.0272 1.14744 9.52484 0.903349C9.00614 0.650326 8.52763 0.5 8 0.5ZM5.23163 2.92158C5.98698 2.45274 6.51907 2.12381 6.96335 1.90726C7.39572 1.69665 7.70233 1.61628 8 1.61628C8.29767 1.61628 8.60428 1.69665 9.03665 1.90726C9.48167 2.12307 10.013 2.45274 10.7684 2.92158L12.2567 3.84512C12.9719 4.2894 13.4742 4.60121 13.8493 4.88846C14.2132 5.16753 14.4223 5.39749 14.566 5.65944C14.7096 5.92214 14.7937 6.22949 14.8376 6.69981C14.883 7.18205 14.8837 7.79005 14.8837 8.65181V9.78372C14.8837 11.2498 14.8822 12.2961 14.7795 13.0901C14.6783 13.87 14.4871 14.3225 14.1693 14.6522C13.853 14.9789 13.4229 15.1731 12.678 15.2766C11.9144 15.3822 10.9075 15.3837 9.48837 15.3837H6.51163C5.09172 15.3837 4.08558 15.3822 3.32205 15.2766C2.57712 15.1724 2.14698 14.9789 1.83144 14.6514C1.51293 14.3225 1.32167 13.87 1.22121 13.0901C1.11702 12.2961 1.11628 11.2505 1.11628 9.78372V8.65181C1.11628 7.79005 1.11628 7.18205 1.16242 6.69981C1.20633 6.22949 1.29042 5.92214 1.43405 5.65944C1.57767 5.39749 1.78679 5.16753 2.15144 4.88846C2.52577 4.60121 3.02809 4.2894 3.74326 3.84512L5.23163 2.92158Z" fill="#4A33FB"/>
</svg>
