<svg width="21" height="18" viewBox="0 0 21 18" fill="none" xmlns="http://www.w3.org/2000/svg">
<path d="M7 17.4644C7.41421 17.4644 7.75 17.1286 7.75 16.7144C7.75 16.3001 7.41421 15.9644 7 15.9644C6.58579 15.9644 6.25 16.3001 6.25 16.7144C6.25 17.1286 6.58579 17.4644 7 17.4644Z" stroke="white" stroke-linecap="round" stroke-linejoin="round"/>
<path d="M17.5 17.4644C17.9142 17.4644 18.25 17.1286 18.25 16.7144C18.25 16.3001 17.9142 15.9644 17.5 15.9644C17.0858 15.9644 16.75 16.3001 16.75 16.7144C16.75 17.1286 17.0858 17.4644 17.5 17.4644Z" stroke="white" stroke-linecap="round" stroke-linejoin="round"/>
<path d="M1 0.964355H4L6.25 13.7144H18.25" stroke="white" stroke-linecap="round" stroke-linejoin="round"/>
<path d="M6.25 10.7144H17.9425C18.0292 10.7144 18.1133 10.6844 18.1804 10.6295C18.2475 10.5745 18.2934 10.498 18.3105 10.4129L19.6605 3.66295C19.6714 3.60852 19.67 3.55235 19.6566 3.4985C19.6431 3.44464 19.6179 3.39445 19.5827 3.35153C19.5475 3.30861 19.5032 3.27404 19.453 3.25032C19.4028 3.2266 19.348 3.21432 19.2925 3.21436H4.75" stroke="white" stroke-linecap="round" stroke-linejoin="round"/>
</svg>
