<svg width="16" height="17" viewBox="0 0 16 17" fill="none" xmlns="http://www.w3.org/2000/svg">
<path d="M3.33333 0.928711C2.44928 0.928711 1.60143 1.2799 0.976311 1.90502C0.351189 2.53014 0 3.37799 0 4.26204V10.9287C0 11.3665 0.0862192 11.7999 0.253735 12.2043C0.421251 12.6087 0.666782 12.9762 0.976311 13.2857C1.60143 13.9109 2.44928 14.262 3.33333 14.262H10C10.4377 14.262 10.8712 14.1758 11.2756 14.0083C11.68 13.8408 12.0475 13.5953 12.357 13.2857C12.6666 12.9762 12.9121 12.6087 13.0796 12.2043C13.2471 11.7999 13.3333 11.3665 13.3333 10.9287V4.26204C13.3333 3.8243 13.2471 3.39085 13.0796 2.98643C12.9121 2.58201 12.6666 2.21455 12.357 1.90502C12.0475 1.59549 11.68 1.34996 11.2756 1.18245C10.8712 1.01493 10.4377 0.928711 10 0.928711H3.33333ZM6.66667 6.92871C6.13623 6.92871 5.62753 6.718 5.25245 6.34293C4.87738 5.96785 4.66667 5.45914 4.66667 4.92871C4.66667 4.39828 4.87738 3.88957 5.25245 3.5145C5.62753 3.13942 6.13623 2.92871 6.66667 2.92871C7.1971 2.92871 7.70581 3.13942 8.08088 3.5145C8.45595 3.88957 8.66667 4.39828 8.66667 4.92871C8.66667 5.45914 8.45595 5.96785 8.08088 6.34293C7.70581 6.718 7.1971 6.92871 6.66667 6.92871ZM4.33333 7.76204H9C9.828 7.76204 10.5 8.43404 10.5 9.26204V9.59538C10.5 10.1287 10.272 10.7767 9.64667 11.2794C9.028 11.7754 8.068 12.0954 6.664 12.0954C5.25733 12.0954 4.29867 11.7687 3.68267 11.2687C3.06133 10.7647 2.83333 10.1194 2.83333 9.59538V9.26204C2.83333 8.43271 3.50533 7.76204 4.33333 7.76204ZM3.33333 15.5954C3.94133 16.4047 4.90933 16.9287 6 16.9287H10C11.5913 16.9287 13.1174 16.2966 14.2426 15.1714C15.3679 14.0461 16 12.52 16 10.9287V6.92871C16 5.83804 15.476 4.87004 14.6667 4.26204V10.9287C14.6667 12.1664 14.175 13.3534 13.2998 14.2285C12.4247 15.1037 11.2377 15.5954 10 15.5954H3.33333Z" fill="white"/>
</svg>
