<svg width="15" height="17" viewBox="0 0 15 17" fill="none" xmlns="http://www.w3.org/2000/svg">
<path d="M10.7972 4.07153H13.1377C13.2793 4.07167 13.4158 4.12435 13.5207 4.21937C13.6256 4.31438 13.6916 4.44497 13.7057 4.58582L14.0543 8.07153H12.9046L12.6189 5.21439H10.7972V6.92868C10.7972 7.08023 10.7369 7.22557 10.6298 7.33274C10.5226 7.4399 10.3773 7.5001 10.2257 7.5001C10.0742 7.5001 9.92882 7.4399 9.82166 7.33274C9.7145 7.22557 9.65429 7.08023 9.65429 6.92868V5.21439H5.08286V6.92868C5.08286 7.08023 5.02266 7.22557 4.9155 7.33274C4.80833 7.4399 4.66299 7.5001 4.51144 7.5001C4.35988 7.5001 4.21454 7.4399 4.10738 7.33274C4.00021 7.22557 3.94001 7.08023 3.94001 6.92868V5.21439H2.11715L1.20286 14.3572H7.36858V15.5001H0.570865C0.491052 15.5 0.412141 15.4832 0.339215 15.4508C0.26629 15.4184 0.200967 15.371 0.147457 15.3118C0.0939459 15.2526 0.0534336 15.1828 0.0285298 15.107C0.00362604 15.0312 -0.00511692 14.9509 0.00286439 14.8715L1.03144 4.58582C1.04559 4.44497 1.11153 4.31438 1.21646 4.21937C1.3214 4.12435 1.45787 4.07167 1.59944 4.07153H3.94001V3.67268C3.94001 1.69096 5.46686 0.0715332 7.36858 0.0715332C9.27029 0.0715332 10.7972 1.69096 10.7972 3.67268V4.07268V4.07153ZM9.65429 4.07153V3.67268C9.65429 2.3081 8.62344 1.21439 7.36858 1.21439C6.11372 1.21439 5.08286 2.3081 5.08286 3.67268V4.07268H9.65429V4.07153ZM13.2509 12.7115L11.94 11.4018V15.5001C11.94 15.6517 11.8798 15.797 11.7726 15.9042C11.6655 16.0113 11.5201 16.0715 11.3686 16.0715C11.217 16.0715 11.0717 16.0113 10.9645 15.9042C10.8574 15.797 10.7972 15.6517 10.7972 15.5001V11.4018L9.48744 12.7115C9.43472 12.7661 9.37167 12.8096 9.30195 12.8396C9.23224 12.8695 9.15725 12.8853 9.08138 12.886C9.00551 12.8866 8.93026 12.8722 8.86003 12.8434C8.78981 12.8147 8.72601 12.7723 8.67235 12.7186C8.6187 12.665 8.57627 12.6012 8.54754 12.5309C8.51881 12.4607 8.50435 12.3855 8.50501 12.3096C8.50567 12.2337 8.52143 12.1587 8.55138 12.089C8.58133 12.0193 8.62486 11.9562 8.67944 11.9035L10.9652 9.61782C11.0723 9.51069 11.2176 9.45051 11.3692 9.45051C11.5207 9.45051 11.666 9.51069 11.7732 9.61782L14.0589 11.9035C14.1134 11.9562 14.157 12.0193 14.1869 12.089C14.2169 12.1587 14.2326 12.2337 14.2333 12.3096C14.234 12.3855 14.2195 12.4607 14.1908 12.5309C14.162 12.6012 14.1196 12.665 14.0659 12.7186C14.0123 12.7723 13.9485 12.8147 13.8783 12.8434C13.808 12.8722 13.7328 12.8866 13.6569 12.886C13.581 12.8853 13.5061 12.8695 13.4363 12.8396C13.3666 12.8096 13.3036 12.7661 13.2509 12.7115Z" fill="white"/>
</svg>
