<svg width="17" height="19" viewBox="0 0 17 19" fill="none" xmlns="http://www.w3.org/2000/svg">
<path d="M6.16669 3.65385L6.69592 2.28769C6.78518 2.05639 6.94221 1.85743 7.14645 1.71688C7.35068 1.57632 7.59261 1.50073 7.84054 1.5H8.84977C9.0977 1.50073 9.33962 1.57632 9.54386 1.71688C9.7481 1.85743 9.90513 2.05639 9.99439 2.28769L10.5236 3.65385L12.3205 4.68769L13.7728 4.46615C14.0147 4.43333 14.2608 4.47314 14.4799 4.58052C14.6991 4.6879 14.8814 4.85801 15.0036 5.06923L15.4959 5.93077C15.6221 6.14535 15.6802 6.39314 15.6626 6.64144C15.645 6.88974 15.5526 7.12687 15.3975 7.32154L14.499 8.46615V10.5338L15.4221 11.6785C15.5772 11.8731 15.6697 12.1103 15.6872 12.3586C15.7048 12.6069 15.6467 12.8546 15.5205 13.0692L15.0282 13.9308C14.906 14.142 14.7237 14.3121 14.5046 14.4195C14.2854 14.5269 14.0393 14.5667 13.7975 14.5338L12.3452 14.3123L10.5482 15.3462L10.019 16.7123C9.92975 16.9436 9.77272 17.1426 9.56848 17.2831C9.36424 17.4237 9.12231 17.4993 8.87438 17.5H7.84054C7.59261 17.4993 7.35068 17.4237 7.14645 17.2831C6.94221 17.1426 6.78518 16.9436 6.69592 16.7123L6.16669 15.3462L4.36977 14.3123L2.91746 14.5338C2.67564 14.5667 2.42951 14.5269 2.21036 14.4195C1.99121 14.3121 1.80894 14.142 1.68669 13.9308L1.19438 13.0692C1.06823 12.8546 1.01011 12.6069 1.02769 12.3586C1.04527 12.1103 1.13772 11.8731 1.29285 11.6785L2.19131 10.5338V8.46615L1.26823 7.32154C1.11311 7.12687 1.02065 6.88974 1.00307 6.64144C0.985495 6.39314 1.04362 6.14535 1.16977 5.93077L1.66208 5.06923C1.78432 4.85801 1.9666 4.6879 2.18575 4.58052C2.4049 4.47314 2.65102 4.43333 2.89285 4.46615L4.34515 4.68769L6.16669 3.65385ZM5.88362 9.5C5.88362 9.98685 6.02798 10.4628 6.29846 10.8676C6.56894 11.2724 6.95338 11.5879 7.40316 11.7742C7.85295 11.9605 8.34788 12.0092 8.82538 11.9142C9.30287 11.8193 9.74147 11.5848 10.0857 11.2406C10.43 10.8963 10.6644 10.4577 10.7594 9.98022C10.8544 9.50273 10.8056 9.0078 10.6193 8.55801C10.433 8.10822 10.1175 7.72378 9.71271 7.45331C9.30791 7.18283 8.832 7.03846 8.34515 7.03846C7.69231 7.03846 7.06621 7.2978 6.60458 7.75943C6.14296 8.22106 5.88362 8.84716 5.88362 9.5Z" stroke="white" stroke-width="1.71429" stroke-linecap="round" stroke-linejoin="round"/>
</svg>
