<svg width="18" height="18" viewBox="0 0 18 18" fill="none" xmlns="http://www.w3.org/2000/svg">
<path d="M10.6585 7.2743C10.5597 6.99433 10.3764 6.7519 10.134 6.58046C9.89163 6.40902 9.60201 6.31701 9.30511 6.31712H8.19414C7.87719 6.31546 7.57088 6.43139 7.33445 6.64248C7.09802 6.85357 6.94826 7.14484 6.91413 7.45995C6.88 7.77507 6.96393 8.09164 7.14968 8.34846C7.33544 8.60528 7.60982 8.7841 7.91978 8.85033L9.61146 9.21943C9.95737 9.29516 10.2631 9.49604 10.4699 9.78347C10.6767 10.0709 10.77 10.4246 10.7318 10.7767C10.6937 11.1287 10.5268 11.4542 10.2632 11.6907C9.99964 11.9272 9.65798 12.0579 9.30388 12.0578H8.34793C7.72293 12.0578 7.19144 11.6591 6.99459 11.1018M8.82652 6.31712V4.88135M8.82652 13.4935V12.059M2.84229 17.3518V14.276H5.91806" stroke="white" strokeLinecap="round" strokeLinejoin="round"/>
<path d="M16.8556 7.88572C17.1822 9.62688 16.9214 11.4272 16.1142 13.0041C15.307 14.581 13.999 15.8453 12.3955 16.5985C10.7921 17.3516 8.98395 17.551 7.25491 17.1654C5.52586 16.7798 3.9738 15.831 2.84232 14.4679M1.13711 10.8286C0.810488 9.08748 1.07125 7.28716 1.87848 5.71024C2.6857 4.13331 3.99368 2.86906 5.59713 2.11591C7.20058 1.36275 9.00872 1.16333 10.7378 1.54894C12.4668 1.93455 14.0189 2.88336 15.1504 4.24646" stroke="white" strokeLinecap="round" strokeLinejoin="round"/>
<path d="M15.1505 1.36255V4.43833H12.0747" stroke="white" strokeLinecap="round" strokeLinejoin="round"/>
</svg>
