<svg version="1.1" id="Layer_1" xmlns="http://www.w3.org/2000/svg" xmlns:xlink="http://www.w3.org/1999/xlink" x="0px" y="0px"
	 width="100%" viewBox="0 0 1280 838" enable-background="new 0 0 1280 838" xml:space="preserve">
<path fill="#0357EE" opacity="1.000000" stroke="none" 
	d="
M1.000001,821.000000 
	C1.000000,553.969116 1.000000,286.938171 1.313045,19.720062 
	C5.350023,14.929647 8.938742,10.206652 12.861023,5.779157 
	C14.551537,3.870893 16.932631,2.574409 19.000000,1.000000 
	C433.364258,1.000000 847.728516,1.000000 1262.279907,1.313027 
	C1263.817383,2.480736 1265.141357,3.380742 1266.522461,4.182221 
	C1272.458008,7.626356 1277.074707,12.180103 1278.991455,19.406170 
	C1278.871948,20.529577 1278.849609,21.195782 1278.849609,21.861988 
	C1278.847656,286.762756 1278.846924,551.663574 1278.858276,816.564331 
	C1278.858398,818.054016 1279.026733,819.543701 1279.058472,821.393799 
	C1276.326782,828.391113 1271.519897,832.991211 1265.314087,836.347412 
	C1264.347290,836.870300 1263.761719,838.098083 1263.000000,839.000000 
	C848.635742,839.000000 434.271515,839.000000 19.719921,838.687622 
	C12.171188,834.087280 5.739897,828.880188 2.123216,820.858582 
	C2.077641,820.757446 1.388661,820.946472 1.000001,821.000000 
M522.756165,263.306122 
	C519.068054,264.573975 515.334717,265.725098 511.700836,267.132904 
	C502.870850,270.553772 494.180878,274.476044 490.445465,284.031616 
	C486.378082,294.436401 482.115753,304.885345 479.454742,315.688507 
	C476.273102,328.605743 474.266632,341.863068 472.560120,355.077545 
	C471.120667,366.223816 470.417145,377.508362 470.123322,388.750946 
	C469.341431,418.665680 469.294952,448.584717 472.368530,478.408264 
	C472.995850,484.495148 473.597809,490.626923 474.876282,496.595612 
	C477.619232,509.401398 480.316315,522.253906 483.972229,534.813599 
	C486.217621,542.527527 489.844543,549.922180 493.585205,557.076355 
	C495.040283,559.859131 498.168793,562.405640 501.127899,563.650818 
	C512.761230,568.546204 524.385803,573.462952 537.053040,575.480042 
	C552.121277,577.879578 566.996643,581.616394 582.111755,583.559021 
	C596.421204,585.398132 610.920593,586.093201 625.358887,586.504272 
	C640.002686,586.921204 654.733337,587.158752 669.318420,586.054382 
	C688.046509,584.636292 706.695862,582.010986 725.321045,579.478333 
	C733.307495,578.392273 741.231506,576.544250 749.028137,574.459656 
	C755.567566,572.710999 761.966125,570.332642 768.273621,567.844055 
	C777.409302,564.239807 785.838074,559.674927 789.231262,549.414673 
	C791.674133,542.028137 794.591858,534.780396 796.673096,527.297058 
	C799.121887,518.492188 801.233582,509.560699 802.859802,500.569885 
	C804.265198,492.800812 804.857849,484.879333 805.681763,477.011780 
	C806.991333,464.506927 809.033203,452.004822 809.241882,439.476196 
	C809.539551,421.604889 808.293884,403.713257 808.013245,385.825500 
	C807.695312,365.561310 805.236328,345.550598 800.890198,325.813538 
	C798.289368,314.002136 795.112244,302.265503 791.297913,290.793243 
	C789.048157,284.026764 786.300964,276.549866 779.412170,273.143219 
	C770.891113,268.929413 761.894714,265.516388 752.829102,262.615570 
	C745.687561,260.330383 738.149536,259.245880 730.753113,257.804993 
	C719.316528,255.577042 707.897034,253.189957 696.381165,251.465500 
	C688.392822,250.269287 680.264954,249.864838 672.181641,249.468124 
	C642.082275,247.990875 612.025696,249.106979 582.008423,251.440521 
	C576.434143,251.873871 570.843384,252.623123 565.373413,253.767349 
	C551.387695,256.692932 537.465698,259.923462 522.756165,263.306122 
z"/>
<path fill="#FFFEFF" opacity="1.000000" stroke="none" 
	d="
M1279.116455,821.033447 
	C1279.026733,819.543701 1278.858398,818.054016 1278.858276,816.564331 
	C1278.846924,551.663574 1278.847656,286.762756 1278.849609,21.861988 
	C1278.849609,21.195782 1278.871948,20.529577 1279.344971,19.542572 
	C1280.204102,19.147846 1280.602051,19.073921 1281.000000,18.999996 
	C1281.000000,286.024078 1281.000000,553.048157 1280.748169,820.252197 
	C1280.036377,820.632568 1279.576416,820.833008 1279.116455,821.033447 
z"/>
<path fill="#000000" opacity="1.000000" stroke="none" 
	d="
M1279.058472,821.393799 
	C1279.576416,820.833008 1280.036377,820.632568 1280.748169,820.716064 
	C1281.000000,826.925720 1281.000000,832.851440 1281.000000,839.000000 
	C1275.315063,839.000000 1269.627319,839.000000 1263.469727,839.000000 
	C1263.761719,838.098083 1264.347290,836.870300 1265.314087,836.347412 
	C1271.519897,832.991211 1276.326782,828.391113 1279.058472,821.393799 
z"/>
<path fill="#000000" opacity="1.000000" stroke="none" 
	d="
M1.000001,821.469727 
	C1.388661,820.946472 2.077641,820.757446 2.123216,820.858582 
	C5.739897,828.880188 12.171188,834.087280 19.266289,838.687622 
	C13.074264,839.000000 7.148527,839.000000 1.000000,839.000000 
	C1.000000,833.315063 1.000000,827.627197 1.000001,821.469727 
z"/>
<path fill="#000000" opacity="1.000000" stroke="none" 
	d="
M18.530293,1.000000 
	C16.932631,2.574409 14.551537,3.870893 12.861023,5.779157 
	C8.938742,10.206652 5.350023,14.929647 1.313045,19.266430 
	C1.000000,13.074268 1.000000,7.148537 1.000000,1.000000 
	C6.684937,1.000000 12.372760,1.000000 18.530293,1.000000 
z"/>
<path fill="#000000" opacity="1.000000" stroke="none" 
	d="
M1281.000000,18.530289 
	C1280.602051,19.073921 1280.204102,19.147846 1279.452637,19.085369 
	C1277.074707,12.180103 1272.458008,7.626356 1266.522461,4.182221 
	C1265.141357,3.380742 1263.817383,2.480736 1262.733521,1.313027 
	C1268.925781,1.000000 1274.851440,1.000000 1281.000000,1.000000 
	C1281.000000,6.684937 1281.000000,12.372761 1281.000000,18.530289 
z"/>
<path fill="#FDFDFE" opacity="1.000000" stroke="none" 
	d="
M523.137207,263.169067 
	C537.465698,259.923462 551.387695,256.692932 565.373413,253.767349 
	C570.843384,252.623123 576.434143,251.873871 582.008423,251.440521 
	C612.025696,249.106979 642.082275,247.990875 672.181641,249.468124 
	C680.264954,249.864838 688.392822,250.269287 696.381165,251.465500 
	C707.897034,253.189957 719.316528,255.577042 730.753113,257.804993 
	C738.149536,259.245880 745.687561,260.330383 752.829102,262.615570 
	C761.894714,265.516388 770.891113,268.929413 779.412170,273.143219 
	C786.300964,276.549866 789.048157,284.026764 791.297913,290.793243 
	C795.112244,302.265503 798.289368,314.002136 800.890198,325.813538 
	C805.236328,345.550598 807.695312,365.561310 808.013245,385.825500 
	C808.293884,403.713257 809.539551,421.604889 809.241882,439.476196 
	C809.033203,452.004822 806.991333,464.506927 805.681763,477.011780 
	C804.857849,484.879333 804.265198,492.800812 802.859802,500.569885 
	C801.233582,509.560699 799.121887,518.492188 796.673096,527.297058 
	C794.591858,534.780396 791.674133,542.028137 789.231262,549.414673 
	C785.838074,559.674927 777.409302,564.239807 768.273621,567.844055 
	C761.966125,570.332642 755.567566,572.710999 749.028137,574.459656 
	C741.231506,576.544250 733.307495,578.392273 725.321045,579.478333 
	C706.695862,582.010986 688.046509,584.636292 669.318420,586.054382 
	C654.733337,587.158752 640.002686,586.921204 625.358887,586.504272 
	C610.920593,586.093201 596.421204,585.398132 582.111755,583.559021 
	C566.996643,581.616394 552.121277,577.879578 537.053040,575.480042 
	C524.385803,573.462952 512.761230,568.546204 501.127899,563.650818 
	C498.168793,562.405640 495.040283,559.859131 493.585205,557.076355 
	C489.844543,549.922180 486.217621,542.527527 483.972229,534.813599 
	C480.316315,522.253906 477.619232,509.401398 474.876282,496.595612 
	C473.597809,490.626923 472.995850,484.495148 472.368530,478.408264 
	C469.294952,448.584717 469.341431,418.665680 470.123322,388.750946 
	C470.417145,377.508362 471.120667,366.223816 472.560120,355.077545 
	C474.266632,341.863068 476.273102,328.605743 479.454742,315.688507 
	C482.115753,304.885345 486.378082,294.436401 490.445465,284.031616 
	C494.180878,274.476044 502.870850,270.553772 511.700836,267.132904 
	C515.334717,265.725098 519.068054,264.573975 523.137207,263.169067 
M693.213135,486.517120 
	C694.669495,486.971436 696.113342,487.763062 697.584534,487.817566 
	C702.198792,487.988464 706.823242,487.882172 711.443787,487.882355 
	C723.993530,487.882843 724.460388,487.397552 722.751953,474.789978 
	C722.606995,473.720062 721.171082,472.825104 720.225342,470.973572 
	C720.179626,468.310394 720.133850,465.647247 720.610718,462.354919 
	C720.668579,458.536163 721.083374,454.678406 720.671997,450.910889 
	C720.339355,447.863403 719.011902,444.924561 718.036377,441.012054 
	C717.367859,433.305817 716.662720,425.602509 716.039917,417.892578 
	C715.224548,407.797394 714.462036,397.697845 713.699036,387.598511 
	C712.755249,375.103821 711.834351,362.607361 710.875366,349.733856 
	C699.471863,349.733856 688.506287,349.872986 677.547485,349.661896 
	C673.452637,349.583069 670.904663,350.590271 669.578857,354.848022 
	C668.389954,358.665802 666.335449,362.220795 664.593018,365.858246 
	C657.842712,379.949097 651.083618,394.035858 644.281738,408.101837 
	C642.795227,411.175842 641.119263,414.158234 639.048157,418.101227 
	C637.337952,414.547852 636.197754,412.241486 635.111084,409.910156 
	C630.708313,400.464386 626.225525,391.054291 621.957153,381.548035 
	C617.788879,372.264587 614.010376,362.802124 609.658752,353.608490 
	C608.832092,351.861969 606.187256,350.027283 604.278870,349.910675 
	C597.145447,349.474762 589.969482,349.735657 582.809448,349.735413 
	C578.206055,349.735229 573.602661,349.735382 569.021484,349.735382 
	C567.401062,363.552490 565.571350,376.654816 564.400940,389.815765 
	C563.155579,403.818787 562.536194,417.877472 561.637512,431.911469 
	C561.584412,432.741333 561.470520,433.567139 561.399231,434.396057 
	C559.951721,451.234955 558.506165,468.074066 556.993408,485.753387 
	C558.045471,486.482422 559.083984,487.819397 560.151794,487.843231 
	C567.948914,488.017242 575.754822,488.030304 583.550171,487.814880 
	C584.777588,487.780975 585.966125,486.335632 587.766174,485.312683 
	C588.181702,485.227783 588.597168,485.142883 589.398315,485.549103 
	C590.892822,483.647125 592.387329,481.745117 593.878174,479.016052 
	C594.651001,470.379211 595.423767,461.742340 596.884399,452.855347 
	C600.416626,443.400848 598.951538,433.700562 598.239258,423.136810 
	C598.426331,417.082611 598.613342,411.028412 599.411621,405.260468 
	C600.610657,406.170441 601.809692,407.080414 603.130798,408.743958 
	C609.855957,425.173950 616.876160,441.493347 623.104248,458.109680 
	C624.715332,462.407898 626.969971,462.621613 630.405090,462.576447 
	C636.560303,462.495422 642.733765,462.275330 648.867737,462.644226 
	C653.031860,462.894623 654.641785,460.801788 655.915161,457.437988 
	C658.483765,450.652405 661.281372,443.953949 663.939087,437.201660 
	C666.685120,430.224731 669.342896,423.212982 672.105286,416.242676 
	C673.973083,411.529694 675.955322,406.862030 678.309814,401.146179 
	C682.016174,413.540405 680.838745,425.226013 680.973938,437.716675 
	C681.023071,447.685852 680.978516,457.657288 681.219238,467.621826 
	C681.256653,469.170929 682.597473,470.688507 683.478577,472.980927 
	C683.541748,474.010345 683.604919,475.039764 683.230408,476.604401 
	C683.344055,481.502930 686.852600,485.354950 691.937988,485.550751 
	C692.293701,485.607483 692.649353,485.664215 693.213135,486.517120 
z"/>
<path fill="#085AEE" opacity="1.000000" stroke="none" 
	d="
M681.218506,436.773804 
	C680.838745,425.226013 682.016174,413.540405 678.309814,401.146179 
	C675.955322,406.862030 673.973083,411.529694 672.105286,416.242676 
	C669.342896,423.212982 666.685120,430.224731 663.939087,437.201660 
	C661.281372,443.953949 658.483765,450.652405 655.915161,457.437988 
	C654.641785,460.801788 653.031860,462.894623 648.867737,462.644226 
	C642.733765,462.275330 636.560303,462.495422 630.405090,462.576447 
	C626.969971,462.621613 624.715332,462.407898 623.104248,458.109680 
	C616.876160,441.493347 609.855957,425.173950 603.129456,407.965149 
	C602.129272,404.266205 601.130371,401.346008 600.131470,398.425842 
	C599.687805,398.479218 599.244080,398.532593 598.800415,398.585938 
	C598.800415,400.715363 598.800415,402.844788 598.800415,404.974213 
	C598.613342,411.028412 598.426331,417.082611 597.979370,423.764923 
	C597.395203,424.964630 596.802368,425.529022 596.786804,426.108917 
	C596.545959,435.106598 596.379944,444.106293 596.196594,453.105499 
	C595.423767,461.742340 594.651001,470.379211 593.580566,479.587585 
	C591.859558,481.792053 590.436157,483.425018 589.012695,485.057983 
	C588.597168,485.142883 588.181702,485.227783 587.005493,485.293640 
	C576.516663,485.154114 566.788513,485.033600 557.060303,484.913116 
	C558.506165,468.074066 559.951721,451.234955 561.399231,434.396057 
	C561.470520,433.567139 561.584412,432.741333 561.637512,431.911469 
	C562.536194,417.877472 563.155579,403.818787 564.400940,389.815765 
	C565.571350,376.654816 567.401062,363.552490 569.021484,349.735382 
	C573.602661,349.735382 578.206055,349.735229 582.809448,349.735413 
	C589.969482,349.735657 597.145447,349.474762 604.278870,349.910675 
	C606.187256,350.027283 608.832092,351.861969 609.658752,353.608490 
	C614.010376,362.802124 617.788879,372.264587 621.957153,381.548035 
	C626.225525,391.054291 630.708313,400.464386 635.111084,409.910156 
	C636.197754,412.241486 637.337952,414.547852 639.048157,418.101227 
	C641.119263,414.158234 642.795227,411.175842 644.281738,408.101837 
	C651.083618,394.035858 657.842712,379.949097 664.593018,365.858246 
	C666.335449,362.220795 668.389954,358.665802 669.578857,354.848022 
	C670.904663,350.590271 673.452637,349.583069 677.547485,349.661896 
	C688.506287,349.872986 699.471863,349.733856 710.875366,349.733856 
	C711.834351,362.607361 712.755249,375.103821 713.699036,387.598511 
	C714.462036,397.697845 715.224548,407.797394 716.039917,417.892578 
	C716.662720,425.602509 717.367859,433.305817 717.996887,441.941040 
	C718.103821,448.344788 718.153870,453.825165 718.469116,459.290222 
	C718.541687,460.548462 719.524292,461.754181 720.088135,462.984070 
	C720.133850,465.647247 720.179626,468.310394 720.167664,471.876038 
	C720.120117,475.101440 719.844482,477.469330 720.201050,479.737854 
	C720.902283,484.199585 719.235229,485.500519 714.811646,485.359772 
	C707.554016,485.128876 700.275024,485.565704 693.005066,485.720947 
	C692.649353,485.664215 692.293701,485.607483 691.500977,485.262207 
	C688.598633,482.005493 686.133423,479.037354 683.668091,476.069183 
	C683.604919,475.039764 683.541748,474.010345 683.567383,472.141174 
	C683.618835,464.704224 683.862915,458.089447 683.452148,451.515625 
	C683.143311,446.574463 681.993774,441.685822 681.218506,436.773804 
z"/>
<path fill="#A5C3F7" opacity="1.000000" stroke="none" 
	d="
M693.109131,486.119019 
	C700.275024,485.565704 707.554016,485.128876 714.811646,485.359772 
	C719.235229,485.500519 720.902283,484.199585 720.201050,479.737854 
	C719.844482,477.469330 720.120117,475.101440 720.222473,472.313660 
	C721.171082,472.825104 722.606995,473.720062 722.751953,474.789978 
	C724.460388,487.397552 723.993530,487.882843 711.443787,487.882355 
	C706.823242,487.882172 702.198792,487.988464 697.584534,487.817566 
	C696.113342,487.763062 694.669495,486.971436 693.109131,486.119019 
z"/>
<path fill="#A5C3F7" opacity="1.000000" stroke="none" 
	d="
M681.096191,437.245239 
	C681.993774,441.685822 683.143311,446.574463 683.452148,451.515625 
	C683.862915,458.089447 683.618835,464.704224 683.495850,471.761017 
	C682.597473,470.688507 681.256653,469.170929 681.219238,467.621826 
	C680.978516,457.657288 681.023071,447.685852 681.096191,437.245239 
z"/>
<path fill="#B7CDFB" opacity="1.000000" stroke="none" 
	d="
M557.026855,485.333252 
	C566.788513,485.033600 576.516663,485.154114 586.708740,485.408752 
	C585.966125,486.335632 584.777588,487.780975 583.550171,487.814880 
	C575.754822,488.030304 567.948914,488.017242 560.151794,487.843231 
	C559.083984,487.819397 558.045471,486.482422 557.026855,485.333252 
z"/>
<path fill="#9CC0F7" opacity="1.000000" stroke="none" 
	d="
M596.540527,452.980408 
	C596.379944,444.106293 596.545959,435.106598 596.786804,426.108917 
	C596.802368,425.529022 597.395203,424.964630 598.010620,424.216705 
	C598.951538,433.700562 600.416626,443.400848 596.540527,452.980408 
z"/>
<path fill="#A5C3F7" opacity="1.000000" stroke="none" 
	d="
M720.349426,462.669495 
	C719.524292,461.754181 718.541687,460.548462 718.469116,459.290222 
	C718.153870,453.825165 718.103821,448.344788 718.041504,442.403748 
	C719.011902,444.924561 720.339355,447.863403 720.671997,450.910889 
	C721.083374,454.678406 720.668579,458.536163 720.349426,462.669495 
z"/>
<path fill="#A5C3F7" opacity="1.000000" stroke="none" 
	d="
M683.449280,476.336792 
	C686.133423,479.037354 688.598633,482.005493 691.229858,485.271423 
	C686.852600,485.354950 683.344055,481.502930 683.449280,476.336792 
z"/>
<path fill="#9CC0F7" opacity="1.000000" stroke="none" 
	d="
M599.106018,405.117340 
	C598.800415,402.844788 598.800415,400.715363 598.800415,398.585938 
	C599.244080,398.532593 599.687805,398.479218 600.131470,398.425842 
	C601.130371,401.346008 602.129272,404.266205 603.068420,407.588379 
	C601.809692,407.080414 600.610657,406.170441 599.106018,405.117340 
z"/>
<path fill="#B7CDFB" opacity="1.000000" stroke="none" 
	d="
M589.205505,485.303528 
	C590.436157,483.425018 591.859558,481.792053 593.582458,480.001099 
	C592.387329,481.745117 590.892822,483.647125 589.205505,485.303528 
z"/>
</svg>