<svg version="1.1" id="Layer_1" xmlns="http://www.w3.org/2000/svg" xmlns:xlink="http://www.w3.org/1999/xlink" x="0px" y="0px"
	 width="100%" viewBox="0 0 512 512" enable-background="new 0 0 512 512" xml:space="preserve">
<path fill="#FFFFFF" opacity="1.000000" stroke="none" 
	d="
M338.000000,513.000000 
	C225.360703,513.000000 113.221397,513.000000 1.041047,513.000000 
	C1.041047,342.402344 1.041047,171.804672 1.041047,1.103501 
	C171.555969,1.103501 342.112030,1.103501 512.834045,1.103501 
	C512.834045,171.666534 512.834045,342.333252 512.834045,513.000000 
	C454.804657,513.000000 396.652313,513.000000 338.000000,513.000000 
M343.547058,360.918732 
	C343.697723,360.614563 343.848419,360.310394 344.552429,359.607819 
	C350.797058,348.785339 357.041687,337.962830 363.728729,326.771942 
	C363.158386,326.533875 362.588074,326.295807 361.091888,325.883881 
	C309.208069,325.870697 257.324219,325.855682 205.440384,325.855804 
	C204.284332,325.855804 203.128296,326.027679 201.499207,326.058929 
	C201.499207,326.058929 201.070999,326.268860 200.403854,326.384949 
	C198.162689,328.481079 195.311905,330.207977 193.781509,332.734650 
	C185.262665,346.799103 177.066788,361.059174 168.754166,375.248627 
	C166.021790,379.912750 163.270706,384.565887 160.181580,389.812714 
	C173.948639,389.812714 186.747314,389.899811 199.541092,389.688721 
	C200.942612,389.665558 202.801346,388.234192 203.619583,386.934448 
	C207.512070,380.751282 211.425781,374.543945 214.727692,368.038513 
	C217.345657,362.880585 221.027161,361.054749 226.656586,361.095001 
	C251.797195,361.274933 276.939850,361.200470 302.081696,361.162384 
	C315.727539,361.141693 329.373199,361.009796 343.547058,360.918732 
M165.414764,175.407562 
	C158.594345,187.042969 151.773941,198.678375 144.801559,210.573044 
	C228.223434,210.573044 310.740479,210.573044 394.103058,210.573044 
	C386.954071,198.629150 380.153809,187.267883 373.079010,175.386856 
	C372.724762,175.274734 372.370514,175.162613 371.090790,174.875107 
	C304.048828,174.862732 237.006851,174.849411 169.964874,174.846802 
	C168.972397,174.846771 167.979935,174.979599 166.495499,174.971207 
	C166.495499,174.971207 166.057526,175.208832 165.414764,175.407562 
M172.553421,338.922699 
	C172.715424,338.622162 172.877426,338.321625 173.613464,337.658112 
	C177.463013,331.051697 181.534882,324.561920 185.084488,317.798096 
	C187.479599,313.234161 190.667511,311.659851 195.826920,311.676361 
	C249.150208,311.846985 302.474243,311.787750 355.798096,311.771362 
	C361.289612,311.769653 367.783661,313.415314 371.989502,311.052155 
	C376.162994,308.707153 378.110321,302.308044 380.894989,297.604614 
	C385.178192,290.369995 389.342590,283.065033 393.923645,275.157776 
	C391.431854,275.157776 389.808350,275.158051 388.184875,275.157745 
	C365.688904,275.153320 343.192932,275.146576 320.696960,275.144806 
	C272.872162,275.141022 225.047333,275.156342 177.222565,275.111725 
	C172.475037,275.107300 167.948685,275.920288 165.423141,280.200348 
	C154.110596,299.371826 143.026962,318.678375 131.419556,338.247742 
	C131.939957,338.477753 132.460342,338.707764 133.907150,339.109253 
	C146.611816,339.047302 159.316498,338.985382 172.553421,338.922699 
M401.507263,261.027161 
	C401.649567,260.940277 401.791901,260.853363 402.562561,260.533203 
	C405.476685,255.529160 408.460541,250.563492 411.251129,245.491486 
	C411.873840,244.359650 412.476898,242.478912 411.966370,241.582230 
	C408.803955,236.028168 405.320953,230.656647 401.503723,225.026520 
	C401.503723,225.026520 401.027679,225.108734 400.098755,224.948730 
	C315.608551,224.928909 231.118301,224.933090 146.628174,224.835175 
	C141.007172,224.828659 137.223679,227.022934 134.445816,231.830734 
	C125.380791,247.520142 116.150009,263.113708 107.007782,278.758636 
	C105.134941,281.963623 103.369659,285.231506 101.300705,288.923828 
	C114.782799,288.923828 127.443260,289.023163 140.097870,288.795471 
	C141.643051,288.767670 143.712082,287.336609 144.588867,285.953857 
	C148.412323,279.923950 152.114441,273.791107 155.409622,267.460846 
	C157.871078,262.732239 161.199158,261.049255 166.556458,261.059875 
	C242.714279,261.210815 318.872467,261.164337 395.030579,261.153900 
	C397.024658,261.153625 399.018738,261.021729 401.507263,261.027161 
M339.130798,124.175125 
	C293.154358,124.175270 247.177628,124.245537 201.201889,124.062767 
	C196.797913,124.045258 194.390030,125.287689 192.267822,129.172043 
	C186.560425,139.618500 180.353317,149.791977 174.071976,160.540359 
	C237.817795,160.540359 300.828369,160.540359 363.835968,160.540359 
	C363.882294,160.026138 364.052734,159.621643 363.920074,159.393219 
	C357.494659,148.331070 351.118500,137.238403 344.485443,126.301605 
	C343.771149,125.123856 341.547485,124.861565 339.130798,124.175125 
z"/>
<path fill="#FDB814" opacity="1.000000" stroke="none" 
	d="
M401.944397,225.224518 
	C405.320953,230.656647 408.803955,236.028168 411.966370,241.582230 
	C412.476898,242.478912 411.873840,244.359650 411.251129,245.491486 
	C408.460541,250.563492 405.476685,255.529160 402.140594,260.521362 
	C401.483368,260.656738 401.248077,260.803955 401.012817,260.951233 
	C399.018738,261.021729 397.024658,261.153625 395.030579,261.153900 
	C318.872467,261.164337 242.714279,261.210815 166.556458,261.059875 
	C161.199158,261.049255 157.871078,262.732239 155.409622,267.460846 
	C152.114441,273.791107 148.412323,279.923950 144.588867,285.953857 
	C143.712082,287.336609 141.643051,288.767670 140.097870,288.795471 
	C127.443260,289.023163 114.782799,288.923828 101.300705,288.923828 
	C103.369659,285.231506 105.134941,281.963623 107.007782,278.758636 
	C116.150009,263.113708 125.380791,247.520142 134.445816,231.830734 
	C137.223679,227.022934 141.007172,224.828659 146.628174,224.835175 
	C231.118301,224.933090 315.608551,224.928909 400.635437,225.178192 
	C401.172119,225.407639 401.591339,225.544556 401.591339,225.544556 
	C401.591339,225.544556 401.944397,225.224518 401.944397,225.224518 
z"/>
<path fill="#FCB817" opacity="1.000000" stroke="none" 
	d="
M131.860718,337.936188 
	C143.026962,318.678375 154.110596,299.371826 165.423141,280.200348 
	C167.948685,275.920288 172.475037,275.107300 177.222565,275.111725 
	C225.047333,275.156342 272.872162,275.141022 320.696960,275.144806 
	C343.192932,275.146576 365.688904,275.153320 388.184875,275.157745 
	C389.808350,275.158051 391.431854,275.157776 393.923645,275.157776 
	C389.342590,283.065033 385.178192,290.369995 380.894989,297.604614 
	C378.110321,302.308044 376.162994,308.707153 371.989502,311.052155 
	C367.783661,313.415314 361.289612,311.769653 355.798096,311.771362 
	C302.474243,311.787750 249.150208,311.846985 195.826920,311.676361 
	C190.667511,311.659851 187.479599,313.234161 185.084488,317.798096 
	C181.534882,324.561920 177.463013,331.051697 173.107391,337.928253 
	C172.315842,338.366333 172.122452,338.608032 172.021164,338.923431 
	C159.316498,338.985382 146.611816,339.047302 133.318039,338.796875 
	C132.439529,338.301727 132.150131,338.118958 131.860718,337.936188 
z"/>
<path fill="#FDB816" opacity="1.000000" stroke="none" 
	d="
M373.353546,175.906616 
	C380.153809,187.267883 386.954071,198.629150 394.103058,210.573044 
	C310.740479,210.573044 228.223434,210.573044 144.801559,210.573044 
	C151.773941,198.678375 158.594345,187.042969 165.841156,175.441620 
	C166.507507,175.333923 166.747482,175.192169 166.987457,175.050415 
	C167.979935,174.979599 168.972397,174.846771 169.964874,174.846802 
	C237.006851,174.849411 304.048828,174.862732 371.710388,175.192200 
	C372.671204,175.641739 373.012360,175.774185 373.353546,175.906616 
z"/>
<path fill="#FDB815" opacity="1.000000" stroke="none" 
	d="
M201.972244,326.119385 
	C203.128296,326.027679 204.284332,325.855804 205.440384,325.855804 
	C257.324219,325.855682 309.208069,325.870697 361.704620,326.214722 
	C362.640350,326.743805 362.963318,326.942078 363.286316,327.140350 
	C357.041687,337.962830 350.797058,348.785339 344.064331,359.903992 
	C343.306091,360.378235 343.120361,360.620850 343.018951,360.928040 
	C329.373199,361.009796 315.727539,361.141693 302.081696,361.162384 
	C276.939850,361.200470 251.797195,361.274933 226.656586,361.095001 
	C221.027161,361.054749 217.345657,362.880585 214.727692,368.038513 
	C211.425781,374.543945 207.512070,380.751282 203.619583,386.934448 
	C202.801346,388.234192 200.942612,389.665558 199.541092,389.688721 
	C186.747314,389.899811 173.948639,389.812714 160.181580,389.812714 
	C163.270706,384.565887 166.021790,379.912750 168.754166,375.248627 
	C177.066788,361.059174 185.262665,346.799103 193.781509,332.734650 
	C195.311905,330.207977 198.162689,328.481079 200.841049,326.450043 
	C201.623077,326.640625 201.854416,326.508698 201.972244,326.119385 
z"/>
<path fill="#FCB818" opacity="1.000000" stroke="none" 
	d="
M339.577393,124.174873 
	C341.547485,124.861565 343.771149,125.123856 344.485443,126.301605 
	C351.118500,137.238403 357.494659,148.331070 363.920074,159.393219 
	C364.052734,159.621643 363.882294,160.026138 363.835968,160.540359 
	C300.828369,160.540359 237.817795,160.540359 174.071976,160.540359 
	C180.353317,149.791977 186.560425,139.618500 192.267822,129.172043 
	C194.390030,125.287689 196.797913,124.045258 201.201889,124.062767 
	C247.177628,124.245537 293.154358,124.175270 339.577393,124.174873 
z"/>
<path fill="#FEB200" opacity="1.000000" stroke="none" 
	d="
M363.507507,326.956146 
	C362.963318,326.942078 362.640350,326.743805 362.167542,326.301636 
	C362.588074,326.295807 363.158386,326.533875 363.507507,326.956146 
z"/>
<path fill="#FEB201" opacity="1.000000" stroke="none" 
	d="
M131.640137,338.091980 
	C132.150131,338.118958 132.439529,338.301727 132.854828,338.711121 
	C132.460342,338.707764 131.939957,338.477753 131.640137,338.091980 
z"/>
<path fill="#FEB200" opacity="1.000000" stroke="none" 
	d="
M166.741486,175.010803 
	C166.747482,175.192169 166.507507,175.333923 166.162537,175.342255 
	C166.057526,175.208832 166.495499,174.971207 166.741486,175.010803 
z"/>
<path fill="#FEB200" opacity="1.000000" stroke="none" 
	d="
M373.216278,175.646744 
	C373.012360,175.774185 372.671204,175.641739 372.173157,175.279907 
	C372.370514,175.162613 372.724762,175.274734 373.216278,175.646744 
z"/>
<path fill="#FEB200" opacity="1.000000" stroke="none" 
	d="
M401.724060,225.125519 
	C401.944397,225.224518 401.591339,225.544556 401.591339,225.544556 
	C401.591339,225.544556 401.172119,225.407639 401.099915,225.258179 
	C401.027679,225.108734 401.503723,225.026520 401.724060,225.125519 
z"/>
<path fill="#FEB200" opacity="1.000000" stroke="none" 
	d="
M401.260040,260.989197 
	C401.248077,260.803955 401.483368,260.656738 401.826416,260.637970 
	C401.791901,260.853363 401.649567,260.940277 401.260040,260.989197 
z"/>
<path fill="#FEB200" opacity="1.000000" stroke="none" 
	d="
M201.735718,326.089172 
	C201.854416,326.508698 201.623077,326.640625 201.174622,326.391998 
	C201.070999,326.268860 201.499207,326.058929 201.735718,326.089172 
z"/>
<path fill="#FEB201" opacity="1.000000" stroke="none" 
	d="
M172.287292,338.923065 
	C172.122452,338.608032 172.315842,338.366333 172.820374,338.109741 
	C172.877426,338.321625 172.715424,338.622162 172.287292,338.923065 
z"/>
<path fill="#FEB200" opacity="1.000000" stroke="none" 
	d="
M343.283020,360.923401 
	C343.120361,360.620850 343.306091,360.378235 343.787659,360.103210 
	C343.848419,360.310394 343.697723,360.614563 343.283020,360.923401 
z"/>
</svg>