<?xml version="1.0" encoding="utf-8"?>
<!-- Generator: Adobe Illustrator 25.0.1, SVG Export Plug-In . SVG Version: 6.00 Build 0)  -->
<svg version="1.0" id="katman_1" xmlns="http://www.w3.org/2000/svg" xmlns:xlink="http://www.w3.org/1999/xlink" x="0px" y="0px"
	 viewBox="0 0 800 600" style="enable-background:new 0 0 800 600;" xml:space="preserve">
<style type="text/css">
	.st0{fill-rule:evenodd;clip-rule:evenodd;fill:#0093DD;}
	.st1{fill-rule:evenodd;clip-rule:evenodd;fill:#fff;}
</style>
<g>
	<path class="st0" d="M170.1,301.3l44.9,44.8l28.3-28.3c5-5,13.1-5,18.1,0c5,5,5,13.1,0,18.1L224,373.3c-5,5-13.2,4.9-18.1,0
		L152,319.4l0,32c0,7-5.8,12.8-12.8,12.8c-7.1,0-12.8-5.7-12.8-12.8V251.2c0-7.1,5.7-12.8,12.8-12.8c7.1,0,12.8,5.7,12.8,12.8v32
		l53.9-53.9c4.9-4.9,13.1-5,18.1,0l37.4,37.3c5,5,5,13.1,0,18.1c-5,5-13.1,5-18.1,0l-28.3-28.3L170.1,301.3L170.1,301.3z
		 M214.9,288.5c7.1,0,12.8,5.7,12.8,12.8c0,7.1-5.7,12.8-12.8,12.8c-7.1,0-12.8-5.7-12.8-12.8C202.1,294.3,207.9,288.5,214.9,288.5z
		"/>
	<g transform="translate(100 41)">
		<path class="st1" d="M244.2,214.1c-3.6,0-6.6,3-6.6,6.7l0,81c0,3.7,3,6.7,6.6,6.7c3.6,0,6.6-3,6.6-6.7l0-81
			C250.8,217.1,247.8,214.1,244.2,214.1z M295.4,216c-2.5-2.6-6.8-2.6-9.3,0l-29.4,30c-2.2,2.2-1.9,5.7-0.9,7.4l29.3,51.6
			c1.8,3.1,5.9,4.3,9,2.5c3.1-1.9,4.2-6,2.4-9.2l-26.6-46.8l25.5-26C297.9,222.9,297.9,218.6,295.4,216z"/>
		<path class="st1" d="M313.3,241.4c-3.6,0-6.6,3-6.6,6.7l0,35.4c0,13.8,11,25,24.5,25l20.6,0c3.6,0,6.6-3.1,6.6-6.7l0-53.7
			c0-3.7-3-6.7-6.6-6.7c-3.6,0-6.6,3-6.6,6.7v47l-14.1,0c-6.3,0-11.3-5.2-11.3-11.6l0-35.4C319.9,244.4,316.9,241.4,313.3,241.4
			L313.3,241.4z"/>
		<path class="st1" d="M427.3,220.8c0-3.7-3-6.7-6.6-6.7h-25c-13.5,0-24.5,11.2-24.5,25v44.4c0,13.8,11,25,24.5,25h25
			c3.6,0,6.6-3,6.6-6.7c0-3.7-3-6.7-6.6-6.7l-25,0c-6.3,0-11.3-5.2-11.3-11.6v-44.4c0-6.4,5.1-11.6,11.3-11.6l25,0
			C424.3,227.5,427.3,224.5,427.3,220.8L427.3,220.8z"/>
		<path class="st1" d="M504.1,214.1c-3.6,0-6.6,3-6.6,6.7c0,3.7,3,6.7,6.6,6.7c3.6,0,6.6-3,6.6-6.7
			C510.7,217.1,507.7,214.1,504.1,214.1z M504.1,241.4c-3.6,0-6.6,3-6.6,6.7v53.7c0,3.7,3,6.7,6.6,6.7c3.6,0,6.6-3,6.6-6.7v-53.7
			C510.7,244.4,507.7,241.4,504.1,241.4z"/>
		<path class="st1" d="M566.4,308.5c3.6,0,6.6-3,6.6-6.7l0-35.4c0-13.8-11-25-24.5-25l-20.6,0c-3.6,0-6.6,3.1-6.6,6.7v53.7
			c0,3.7,3,6.7,6.6,6.7c3.6,0,6.6-3,6.6-6.7v-47l14.1,0c6.3,0,11.3,5.2,11.3,11.6l0,35.4C559.8,305.4,562.8,308.5,566.4,308.5
			L566.4,308.5z"/>
		<path class="st1" d="M436.7,266.3c0-13.7,10.9-25,24.4-25l1.6,0c13.4,0,24.2,11.3,24.2,25v17.1c0,13.7-10.8,25-24.2,25l-1.6,0
			c-13.5,0-24.4-11.2-24.4-25V266.3L436.7,266.3z M473.8,266.3c0-6.4-5.1-11.6-11.3-11.6h-1.3c-6.2,0-11.3,5.2-11.3,11.6v17.1
			c0,6.4,5.1,11.6,11.3,11.6h1.3c6.2,0,11.3-5.2,11.3-11.6V266.3z"/>
	</g>
</g>
</svg>
