<svg width="16" height="17" viewBox="0 0 16 17" fill="none" xmlns="http://www.w3.org/2000/svg">
<path d="M8 0.5C6.41775 0.5 4.87103 0.969192 3.55544 1.84824C2.23985 2.72729 1.21447 3.97672 0.608967 5.43853C0.00346614 6.90034 -0.15496 8.50887 0.153721 10.0607C0.462403 11.6126 1.22433 13.038 2.34315 14.1569C3.46197 15.2757 4.88743 16.0376 6.43928 16.3463C7.99113 16.655 9.59966 16.4965 11.0615 15.891C12.5233 15.2855 13.7727 14.2602 14.6518 12.9446C15.5308 11.629 16 10.0822 16 8.5C15.9975 6.37903 15.1539 4.34565 13.6541 2.8459C12.1544 1.34615 10.121 0.502491 8 0.5ZM8 15.5588C6.6039 15.5588 5.23915 15.1448 4.07833 14.3692C2.91751 13.5936 2.01277 12.4911 1.4785 11.2013C0.944235 9.91146 0.804447 8.49217 1.07681 7.12289C1.34918 5.75361 2.02147 4.49585 3.00866 3.50866C3.99585 2.52146 5.25362 1.84918 6.62289 1.57681C7.99217 1.30444 9.41146 1.44423 10.7013 1.9785C11.9911 2.51276 13.0936 3.41751 13.8692 4.57833C14.6448 5.73914 15.0588 7.1039 15.0588 8.5C15.0567 10.3715 14.3124 12.1657 12.989 13.489C11.6657 14.8124 9.87148 15.5567 8 15.5588ZM12.8627 8.5C12.8627 8.62481 12.8132 8.7445 12.7249 8.83275C12.6367 8.92101 12.517 8.97059 12.3922 8.97059H8C7.87519 8.97059 7.7555 8.92101 7.66725 8.83275C7.57899 8.7445 7.52941 8.62481 7.52941 8.5V4.10784C7.52941 3.98303 7.57899 3.86334 7.66725 3.77509C7.7555 3.68683 7.87519 3.63725 8 3.63725C8.12481 3.63725 8.24451 3.68683 8.33276 3.77509C8.42101 3.86334 8.47059 3.98303 8.47059 4.10784V8.02941H12.3922C12.517 8.02941 12.6367 8.07899 12.7249 8.16724C12.8132 8.25549 12.8627 8.37519 12.8627 8.5Z" fill="white"/>
</svg>
