<svg width="25" height="25" viewBox="0 0 25 25" fill="none" xmlns="http://www.w3.org/2000/svg">
<path d="M8.33405 10.4142C8.33405 10.138 8.44379 9.87303 8.63914 9.67768C8.83449 9.48233 9.09944 9.37258 9.37571 9.37258H15.6257C15.902 9.37258 16.1669 9.48233 16.3623 9.67768C16.5576 9.87303 16.6674 10.138 16.6674 10.4142C16.6674 10.6905 16.5576 10.9555 16.3623 11.1508C16.1669 11.3462 15.902 11.4559 15.6257 11.4559H9.37571C9.09944 11.4559 8.83449 11.3462 8.63914 11.1508C8.44379 10.9555 8.33405 10.6905 8.33405 10.4142ZM9.37571 13.5392C9.09944 13.5392 8.83449 13.649 8.63914 13.8443C8.44379 14.0397 8.33405 14.3046 8.33405 14.5809C8.33405 14.8572 8.44379 15.1221 8.63914 15.3175C8.83449 15.5128 9.09944 15.6226 9.37571 15.6226H13.5424C13.8186 15.6226 14.0836 15.5128 14.2789 15.3175C14.4743 15.1221 14.584 14.8572 14.584 14.5809C14.584 14.3046 14.4743 14.0397 14.2789 13.8443C14.0836 13.649 13.8186 13.5392 13.5424 13.5392H9.37571ZM0.000719303 12.4976C0.00125088 9.74559 0.909938 7.0707 2.58582 4.88785C4.2617 2.705 6.61109 1.13621 9.26955 0.424841C11.928 -0.286529 14.7469 -0.10071 17.289 0.953469C19.831 2.00765 21.9542 3.87126 23.329 6.25521C24.7039 8.63916 25.2536 11.4102 24.8929 14.1384C24.5321 16.8667 23.2812 19.3996 21.334 21.3443C19.3868 23.2891 16.8523 24.5369 14.1236 24.8942C11.3949 25.2515 8.62461 24.6983 6.24238 23.3205L1.37155 24.9455C1.1916 25.0056 0.998653 25.0154 0.81354 24.9738C0.628427 24.9323 0.458176 24.841 0.321162 24.7097C0.184147 24.5785 0.0855723 24.4123 0.0360758 24.2292C-0.0134208 24.0461 -0.0119592 23.8529 0.0403027 23.6705L1.52363 18.4809C0.521586 16.646 -0.00216226 14.5883 0.000719303 12.4976ZM12.5007 2.08092C10.6615 2.08081 8.85506 2.56765 7.26499 3.49197C5.67493 4.4163 4.35794 5.74514 3.44791 7.34342C2.53787 8.9417 2.06723 10.7524 2.08382 12.5916C2.10041 14.4307 2.60365 16.2326 3.54238 17.8142C3.61461 17.9364 3.6611 18.0721 3.67902 18.2129C3.69693 18.3537 3.68588 18.4966 3.64655 18.633L2.58613 22.3413L6.0403 21.1913C6.18699 21.1424 6.34275 21.1267 6.49626 21.1454C6.64977 21.1642 6.79718 21.2169 6.9278 21.2997C8.29294 22.1636 9.84033 22.6982 11.4476 22.8611C13.055 23.0241 14.6781 22.8109 16.1889 22.2385C17.6997 21.6661 19.0566 20.7502 20.1524 19.5631C21.2482 18.376 22.0529 16.9503 22.5028 15.3986C22.9527 13.847 23.0356 12.212 22.7448 10.6228C22.4541 9.03361 21.7976 7.53385 20.8274 6.24205C19.8573 4.95025 18.5999 3.90182 17.1547 3.17964C15.7096 2.45745 14.1163 2.0813 12.5007 2.08092Z" fill="white"/>
</svg>
