<svg width="16" height="17" viewBox="0 0 16 17" fill="none" xmlns="http://www.w3.org/2000/svg">
<path d="M6.72205 11.6372L3.63623 8.55066L4.66459 7.5223L6.72205 9.57903L10.8355 5.46484L11.8646 6.49393L6.72205 11.6358V11.6372Z" fill="#058658"/>
<path fillRule="evenodd" clipRule="evenodd" d="M0 8.5C0 4.08182 3.58182 0.5 8 0.5C12.4182 0.5 16 4.08182 16 8.5C16 12.9182 12.4182 16.5 8 16.5C3.58182 16.5 0 12.9182 0 8.5ZM8 15.0455C7.14044 15.0455 6.28929 14.8762 5.49516 14.5472C4.70103 14.2183 3.97947 13.7361 3.37166 13.1283C2.76386 12.5205 2.28173 11.799 1.95279 11.0048C1.62385 10.2107 1.45455 9.35956 1.45455 8.5C1.45455 7.64044 1.62385 6.78929 1.95279 5.99516C2.28173 5.20103 2.76386 4.47947 3.37166 3.87166C3.97947 3.26386 4.70103 2.78173 5.49516 2.45279C6.28929 2.12385 7.14044 1.95455 8 1.95455C9.73596 1.95455 11.4008 2.64415 12.6283 3.87166C13.8558 5.09918 14.5455 6.76404 14.5455 8.5C14.5455 10.236 13.8558 11.9008 12.6283 13.1283C11.4008 14.3558 9.73596 15.0455 8 15.0455Z" fill="#058658"/>
</svg>
