<svg width="81" height="80" viewBox="0 0 81 80" fill="none" xmlns="http://www.w3.org/2000/svg">
<path d="M40.5 0C44.1944 0 47.7361 0.472222 51.125 1.41667C54.5139 2.36111 57.7083 3.69444 60.7083 5.41667C63.7083 7.13889 66.4028 9.22222 68.7917 11.6667C71.1806 14.1111 73.2639 16.8194 75.0417 19.7917C76.8195 22.7639 78.1667 25.9444 79.0833 29.3333C80 32.7222 80.4722 36.2778 80.5 40C80.5 43.6944 80.0278 47.2361 79.0833 50.625C78.1389 54.0139 76.8056 57.2083 75.0833 60.2083C73.3611 63.2083 71.2778 65.9028 68.8333 68.2917C66.3889 70.6806 63.6806 72.7639 60.7083 74.5417C57.7361 76.3195 54.5556 77.6667 51.1667 78.5833C47.7778 79.5 44.2222 79.9722 40.5 80C36.8056 80 33.2639 79.5278 29.875 78.5833C26.4861 77.6389 23.2917 76.3056 20.2917 74.5833C17.2917 72.8611 14.5972 70.7778 12.2083 68.3333C9.81944 65.8889 7.73611 63.1806 5.95833 60.2083C4.18056 57.2361 2.83333 54.0556 1.91667 50.6667C1 47.2778 0.527778 43.7222 0.5 40C0.5 36.3056 0.972222 32.7639 1.91667 29.375C2.86111 25.9861 4.19444 22.7917 5.91667 19.7917C7.63889 16.7917 9.72222 14.0972 12.1667 11.7083C14.6111 9.31944 17.3194 7.23611 20.2917 5.45833C23.2639 3.68056 26.4444 2.33333 29.8333 1.41667C33.2222 0.5 36.7778 0.0277778 40.5 0ZM40.5 74.6667C43.6667 74.6667 46.7222 74.25 49.6667 73.4167C52.6111 72.5833 55.375 71.4167 57.9583 69.9167C60.5417 68.4167 62.8889 66.6111 65 64.5C67.1111 62.3889 68.9167 60.0556 70.4167 57.5C71.9167 54.9444 73.0833 52.1806 73.9167 49.2083C74.75 46.2361 75.1667 43.1667 75.1667 40C75.1667 36.8333 74.75 33.7778 73.9167 30.8333C73.0833 27.8889 71.9167 25.125 70.4167 22.5417C68.9167 19.9583 67.1111 17.6111 65 15.5C62.8889 13.3889 60.5556 11.5833 58 10.0833C55.4444 8.58333 52.6806 7.41667 49.7083 6.58333C46.7361 5.75 43.6667 5.33333 40.5 5.33333C37.3056 5.33333 34.2361 5.75 31.2917 6.58333C28.3472 7.41667 25.5972 8.58333 23.0417 10.0833C20.4861 11.5833 18.1389 13.3889 16 15.5C13.8611 17.6111 12.0556 19.9444 10.5833 22.5C9.11111 25.0556 7.94444 27.8194 7.08333 30.7917C6.22222 33.7639 5.80556 36.8333 5.83333 40C5.83333 43.1667 6.25 46.2222 7.08333 49.1667C7.91667 52.1111 9.08333 54.875 10.5833 57.4583C12.0833 60.0417 13.8889 62.3889 16 64.5C18.1111 66.6111 20.4444 68.4167 23 69.9167C25.5556 71.4167 28.3194 72.5833 31.2917 73.4167C34.2639 74.25 37.3333 74.6667 40.5 74.6667ZM37.8333 21.3333H43.1667V48H37.8333V21.3333ZM37.8333 53.3333H43.1667V58.6667H37.8333V53.3333Z" fill="#F2AF2C"/>
</svg>
