<svg width="518" height="515" viewBox="0 0 518 515" fill="none" xmlns="http://www.w3.org/2000/svg">
<path d="M186.709 28.2335C158.188 39.2193 36.5107 86.0899 6.6104 199.111C-27.4763 327.993 74.4804 479.714 215.432 507.673C361.63 536.674 526.773 468.506 513.801 362.886C508.361 318.597 438.142 292.771 445.119 243.366C449.929 209.288 485.51 204.744 501.236 158.542C511.935 127.105 519.117 90.6725 502.54 65.9868C448.128 -15.0352 295.404 -13.636 186.709 28.2335Z" fill="#CADDFF"/>
<path d="M437.675 514.357H246.523C238.375 514.357 231.798 507.653 231.798 499.387L250.434 105.448C250.434 97.1823 257.026 90.4785 265.157 90.4785H456.295C464.443 90.4785 471.02 97.1823 471.02 105.448L452.387 499.382C452.387 507.653 445.792 514.357 437.675 514.357Z" fill="black"/>
<path d="M429.783 513.43H238.645C230.511 513.43 223.92 506.757 223.92 498.539L242.556 106.311C242.556 98.0816 249.148 91.4199 257.279 91.4199H448.417C456.565 91.4199 463.142 98.0929 463.142 106.311L444.509 498.539C444.509 506.746 437.914 513.43 429.783 513.43Z" fill="white"/>
<path d="M429.784 514.351H238.646C230.012 514.351 222.99 507.249 222.99 498.516L241.627 106.258C241.627 97.5701 248.651 90.4673 257.279 90.4673H448.417C457.051 90.4673 464.073 97.5701 464.073 106.302L445.439 498.561C445.439 507.249 438.415 514.351 429.784 514.351ZM257.271 92.3413C249.665 92.3413 243.478 98.6097 243.478 106.314L224.842 498.572C224.842 506.232 231.023 512.5 238.637 512.5H429.775C437.381 512.5 443.568 506.231 443.568 498.527L462.204 106.269C462.204 98.6097 456.023 92.3413 448.409 92.3413H257.271Z" fill="black"/>
<path d="M312.349 90.5767L316.956 97.4547C318.334 99.5109 320.196 101.196 322.379 102.362C324.562 103.528 326.999 104.138 329.473 104.139H376.018C378.441 104.138 380.827 103.554 382.976 102.434C385.124 101.314 386.97 99.693 388.358 97.7076L393.351 90.5767H312.349Z" fill="black"/>
<path d="M295.426 170.27H269.619C267.109 170.27 265.073 172.305 265.073 174.816V174.836C265.073 177.346 267.109 179.382 269.619 179.382H295.426C297.937 179.382 299.972 177.346 299.972 174.836V174.816C299.972 172.305 297.937 170.27 295.426 170.27Z" fill="#CADDFF"/>
<path d="M431.874 196.175H268.54C266.029 196.175 263.994 198.211 263.994 200.721V200.741C263.994 203.252 266.029 205.287 268.54 205.287H431.874C434.384 205.287 436.42 203.252 436.42 200.741V200.721C436.42 198.211 434.384 196.175 431.874 196.175Z" fill="#CADDFF"/>
<path d="M423.391 417.194H260.058C257.547 417.194 255.512 419.229 255.512 421.74V421.76C255.512 424.27 257.547 426.306 260.058 426.306H423.391C425.902 426.306 427.937 424.27 427.937 421.76V421.74C427.937 419.229 425.902 417.194 423.391 417.194Z" fill="#CADDFF"/>
<path d="M421.236 442.292H257.902C255.392 442.292 253.356 444.327 253.356 446.838V446.858C253.356 449.368 255.392 451.404 257.902 451.404H421.236C423.747 451.404 425.782 449.368 425.782 446.858V446.838C425.782 444.327 423.747 442.292 421.236 442.292Z" fill="#CADDFF"/>
<path d="M345.994 469.616H257.296C254.785 469.616 252.75 471.652 252.75 474.162V474.182C252.75 476.693 254.785 478.728 257.296 478.728H345.994C348.505 478.728 350.54 476.693 350.54 474.182V474.162C350.54 471.652 348.505 469.616 345.994 469.616Z" fill="#CADDFF"/>
<path d="M341.482 170.27H315.675C313.164 170.27 311.129 172.305 311.129 174.816V174.836C311.129 177.346 313.164 179.382 315.675 179.382H341.482C343.992 179.382 346.028 177.346 346.028 174.836V174.816C346.028 172.305 343.992 170.27 341.482 170.27Z" fill="#CADDFF"/>
<path d="M387.537 170.27H361.731C359.22 170.27 357.185 172.305 357.185 174.816V174.836C357.185 177.346 359.22 179.382 361.731 179.382H387.537C390.048 179.382 392.083 177.346 392.083 174.836V174.816C392.083 172.305 390.048 170.27 387.537 170.27Z" fill="#CADDFF"/>
<path d="M433.597 170.27H407.79C405.279 170.27 403.244 172.305 403.244 174.816V174.836C403.244 177.346 405.279 179.382 407.79 179.382H433.597C436.108 179.382 438.143 177.346 438.143 174.836V174.816C438.143 172.305 436.108 170.27 433.597 170.27Z" fill="#CADDFF"/>
<path d="M69.325 157.531C102.87 157.531 130.064 130.284 130.064 96.674C130.064 63.0636 102.87 35.8169 69.325 35.8169C35.7798 35.8169 8.58594 63.0636 8.58594 96.674C8.58594 130.284 35.7798 157.531 69.325 157.531Z" fill="white"/>
<path d="M69.3862 158.492C57.9537 158.482 46.7482 155.3 37.0161 149.301C27.284 143.302 19.4068 134.721 14.2608 124.512C-1.05183 94.0975 11.1702 56.8612 41.5369 41.512C48.7687 37.8573 56.6504 35.6649 64.7307 35.0604C72.811 34.4559 80.9312 35.4512 88.6263 37.9892C96.3214 40.5273 103.44 44.5583 109.575 49.8514C115.71 55.1445 120.741 61.5959 124.38 68.8359C139.701 99.2504 127.47 136.484 97.1091 151.836C88.5196 156.203 79.0218 158.483 69.3862 158.492ZM69.2654 36.7188C59.9192 36.729 50.7071 38.943 42.377 43.181C12.9374 58.0721 1.07508 94.179 15.9325 123.68C19.4609 130.701 24.3395 136.957 30.289 142.09C36.2384 147.223 43.1419 151.132 50.6042 153.594C58.0665 156.055 65.941 157.02 73.7768 156.434C81.6126 155.848 89.2559 153.722 96.269 150.178C125.711 135.287 137.571 99.1774 122.716 69.6788C117.727 59.779 110.089 51.4571 100.653 45.6383C91.2167 39.8195 80.3515 36.7319 69.2654 36.7188Z" fill="black"/>
<path d="M69.3251 151.667C99.6381 151.667 124.212 127.046 124.212 96.674C124.212 66.302 99.6381 41.6807 69.3251 41.6807C39.012 41.6807 14.4385 66.302 14.4385 96.674C14.4385 127.046 39.012 151.667 69.3251 151.667Z" fill="#99B9FF"/>
<path d="M69.3251 146.857C96.9862 146.857 119.41 124.389 119.41 96.674C119.41 68.9585 96.9862 46.4907 69.3251 46.4907C41.664 46.4907 19.2402 68.9585 19.2402 96.674C19.2402 124.389 41.664 146.857 69.3251 146.857Z" fill="white"/>
<path d="M69.3758 147.815C59.9196 147.803 50.6518 145.169 42.6027 140.206C34.5535 135.243 28.0381 128.146 23.7808 119.702C11.1064 94.5415 21.2268 63.7393 46.3395 51.0425C52.3216 48.0185 58.8415 46.2043 65.5259 45.7038C72.2102 45.2033 78.9276 46.0263 85.2934 48.1257C91.6591 50.2251 97.5482 53.5596 102.623 57.9383C107.699 62.317 111.86 67.6539 114.87 73.6433C127.544 98.8066 117.424 129.606 92.311 142.306C85.2051 145.919 77.3476 147.806 69.3758 147.815ZM69.2747 47.3955C61.595 47.4047 54.0255 49.223 47.1796 52.703C22.9716 64.939 13.2305 94.6202 25.4441 118.865C28.3434 124.636 32.3527 129.778 37.2424 133.997C42.132 138.216 47.8058 141.429 53.939 143.453C60.0723 145.476 66.5443 146.269 72.9846 145.787C79.4249 145.306 85.707 143.558 91.4709 140.645C115.668 128.409 125.42 98.7251 113.206 74.4834C109.104 66.3479 102.826 59.5093 95.0709 54.7273C87.3154 49.9453 78.3859 47.4074 69.2747 47.3955Z" fill="black"/>
<path d="M88.5847 89.1493C86.1497 87.958 83.4459 87.6977 80.4733 88.3682C82.2433 86.1936 83.2557 83.9131 83.5105 81.5267C83.7651 79.1522 83.2887 76.7564 82.145 74.6599C79.8636 70.3518 76.7308 67.8653 72.7467 67.2003C69.4632 66.6384 65.6898 67.294 61.4266 69.1671L57.7937 62.3115L53.9557 64.3485L57.5352 71.0917L52.416 73.8058L48.8366 67.0626L44.9986 69.0996L48.5781 75.8428L36.873 82.114L40.2783 88.5368L45.6448 85.6906L64.3065 120.876L58.8333 123.778L62.2274 130.176L74.0616 123.899L77.9081 131.151L81.746 129.114L77.8378 121.741L82.9542 119.027L86.8652 126.4L90.7032 124.366L86.7697 116.948C91.2108 114.296 94.1507 111.205 95.5892 107.676C97.1926 103.731 96.802 99.5095 94.4176 95.0103C92.9771 92.2962 91.0329 90.3425 88.5847 89.1493ZM74.5365 78.0034C75.784 80.3561 75.9506 82.5953 75.0366 84.7213C74.1225 86.8473 72.2494 88.6623 69.4173 90.1664L60.4966 94.8979L52.683 80.1809L61.5306 75.4888C64.6493 73.8367 67.251 73.1942 69.3358 73.5614C71.4206 73.9285 73.1494 75.4092 74.5224 78.0034H74.5365ZM88.3993 106.923C87.5414 109.192 85.6861 111.082 82.8334 112.596L72.7186 117.957L64.0368 101.588L74.9017 95.8279C80.521 92.9957 84.7777 94.3022 87.6716 99.7473C89.0052 102.265 89.2431 104.657 88.3852 106.923H88.3993Z" fill="#4A33FB"/>
<path d="M130.623 514.38C129.765 514.377 128.941 514.049 128.315 513.462C127.689 512.876 127.309 512.074 127.251 511.219C126.97 507.187 127.091 500.025 130.46 494.111C130.896 493.323 131.567 492.692 132.379 492.304C133.192 491.916 134.105 491.791 134.992 491.947L149.546 494.605C150.295 494.722 151.063 494.643 151.773 494.375C152.483 494.107 153.111 493.66 153.597 493.077L154.946 491.281C155.406 490.665 156.064 490.224 156.81 490.033C157.556 489.842 158.344 489.911 159.045 490.231C165.145 493.001 180.705 500.719 185.565 509.314C185.855 509.83 186.004 510.413 185.999 511.004C185.993 511.596 185.834 512.176 185.535 512.687C185.237 513.198 184.81 513.622 184.298 513.918C183.785 514.213 183.204 514.369 182.612 514.371L130.623 514.38Z" fill="#4A33FB"/>
<path d="M178.095 511.05H130.705C130.578 511.057 130.451 511.038 130.332 510.995C130.213 510.951 130.104 510.884 130.012 510.796C129.92 510.709 129.847 510.604 129.797 510.488C129.747 510.371 129.721 510.246 129.721 510.119C129.721 509.992 129.747 509.867 129.797 509.75C129.847 509.634 129.92 509.529 130.012 509.441C130.104 509.354 130.213 509.287 130.332 509.243C130.451 509.199 130.578 509.18 130.705 509.187H178.095C178.222 509.18 178.348 509.199 178.467 509.243C178.587 509.287 178.695 509.354 178.788 509.441C178.88 509.529 178.953 509.634 179.003 509.75C179.053 509.867 179.079 509.992 179.079 510.119C179.079 510.246 179.053 510.371 179.003 510.488C178.953 510.604 178.88 510.709 178.788 510.796C178.695 510.884 178.587 510.951 178.467 510.995C178.348 511.038 178.222 511.057 178.095 511.05Z" fill="black"/>
<path d="M157.32 504.22C157.148 504.219 156.979 504.171 156.832 504.08C156.686 503.989 156.567 503.859 156.49 503.705C156.413 503.55 156.38 503.378 156.395 503.206C156.41 503.034 156.473 502.869 156.576 502.731L161.352 496.311C161.426 496.213 161.518 496.131 161.624 496.068C161.73 496.006 161.846 495.965 161.968 495.948C162.089 495.931 162.213 495.938 162.332 495.969C162.45 495.999 162.562 496.053 162.66 496.127C162.758 496.201 162.84 496.293 162.903 496.399C162.965 496.504 163.006 496.621 163.023 496.743C163.04 496.864 163.033 496.988 163.002 497.107C162.972 497.225 162.918 497.337 162.844 497.435L158.068 503.858C157.98 503.972 157.866 504.064 157.737 504.127C157.607 504.19 157.464 504.222 157.32 504.22Z" fill="black"/>
<path d="M167.171 505.976C167.018 505.976 166.867 505.938 166.733 505.864C166.625 505.806 166.529 505.728 166.452 505.633C166.374 505.539 166.316 505.429 166.28 505.312C166.245 505.195 166.234 505.072 166.246 504.95C166.259 504.828 166.295 504.71 166.354 504.602L168.565 500.486C168.689 500.282 168.887 500.133 169.117 500.071C169.348 500.008 169.593 500.036 169.804 500.149C170.014 500.262 170.173 500.452 170.248 500.679C170.323 500.905 170.308 501.152 170.206 501.368L167.992 505.484C167.912 505.633 167.794 505.757 167.65 505.844C167.505 505.931 167.34 505.976 167.171 505.976Z" fill="black"/>
<path d="M15.4244 460.327C15.8627 468.194 17.6244 490.008 24.05 504.191C24.3629 504.871 24.8413 505.461 25.4413 505.908C26.0414 506.355 26.744 506.644 27.4848 506.75C28.2256 506.855 28.9809 506.772 29.6816 506.51C30.3823 506.248 31.006 505.814 31.4956 505.248C33.1273 503.326 34.6122 501.284 35.9377 499.14C41.748 489.974 44.9848 462.547 45.5832 457.068C45.6163 456.771 45.5788 456.47 45.4738 456.191C45.3688 455.911 45.1994 455.66 44.9791 455.458L41.9869 452.696C41.6802 452.413 41.3178 452.198 40.9229 452.065C40.528 451.931 40.1094 451.882 39.6942 451.92C39.279 451.958 38.8765 452.083 38.5125 452.286C38.1486 452.489 37.8314 452.767 37.5813 453.101L37.0644 453.789C36.9713 453.914 36.847 454.013 36.7038 454.075C36.5606 454.137 36.4036 454.161 36.2485 454.143C36.0934 454.125 35.9457 454.067 35.8202 453.975C35.6946 453.882 35.5956 453.758 35.5331 453.615L33.0465 447.995C32.8803 447.616 32.6384 447.275 32.3358 446.992C32.0331 446.71 31.676 446.492 31.2863 446.352C30.8966 446.212 30.4824 446.153 30.0691 446.179C29.6559 446.204 29.2521 446.314 28.8826 446.501C24.6032 448.732 20.7131 451.641 17.3631 455.115C16.6972 455.803 16.1811 456.621 15.8474 457.518C15.5137 458.415 15.3697 459.371 15.4244 460.327Z" fill="#4A33FB"/>
<path d="M29.048 503.97C28.8571 503.97 28.6709 503.911 28.5145 503.802C28.3582 503.692 28.2394 503.537 28.1742 503.357C20.9366 483.547 19.4334 457.094 19.4193 456.83C19.4127 456.707 19.4302 456.585 19.4708 456.47C19.5114 456.354 19.5743 456.248 19.656 456.157C19.8209 455.973 20.0521 455.862 20.2988 455.849C20.5454 455.836 20.7873 455.921 20.9712 456.086C21.1551 456.251 21.2659 456.482 21.2793 456.728C21.2793 456.99 22.7825 483.173 29.9218 502.72C29.9638 502.835 29.9825 502.957 29.9769 503.08C29.9714 503.202 29.9416 503.323 29.8894 503.434C29.8371 503.545 29.7635 503.644 29.6726 503.727C29.5817 503.809 29.4755 503.873 29.3599 503.914C29.2597 503.949 29.1543 503.968 29.048 503.97Z" fill="black"/>
<path d="M39.9864 483.647H39.8769L31.771 482.712C31.6496 482.698 31.5322 482.66 31.4254 482.601C31.3186 482.541 31.2246 482.461 31.1487 482.366C31.0727 482.27 31.0164 482.16 30.9829 482.043C30.9494 481.925 30.9394 481.802 30.9534 481.681C30.9674 481.559 31.0052 481.442 31.0646 481.335C31.124 481.228 31.2039 481.134 31.2997 481.058C31.3954 480.982 31.5052 480.926 31.6227 480.893C31.7402 480.859 31.8632 480.849 31.9845 480.863L40.0904 481.796C40.3233 481.827 40.5359 481.945 40.6857 482.126C40.8354 482.307 40.9113 482.538 40.8982 482.773C40.885 483.007 40.7838 483.228 40.6148 483.391C40.4458 483.555 40.2214 483.648 39.9864 483.653V483.647Z" fill="black"/>
<path d="M40.9073 474.224C40.8709 474.227 40.8342 474.227 40.7978 474.224L30.6128 473.052C30.3754 473.014 30.1619 472.886 30.0167 472.695C29.8715 472.503 29.8058 472.263 29.8333 472.024C29.8608 471.785 29.9795 471.567 30.1645 471.413C30.3495 471.26 30.5866 471.184 30.8263 471.201L41.0113 472.375C41.2478 472.401 41.4654 472.517 41.6191 472.699C41.7728 472.88 41.8511 473.114 41.8378 473.351C41.8245 473.589 41.7206 473.813 41.5475 473.976C41.3744 474.139 41.1453 474.23 40.9073 474.229V474.224Z" fill="black"/>
<path d="M172.444 301.635C172.444 301.635 175.096 321.654 169.044 378.364C167.963 388.359 165.865 398.218 162.782 407.787C158.916 419.826 155.94 440.775 155.732 485.272C155.707 490.61 153.341 495.181 149.731 496.937C144.334 499.561 135.402 500.239 135.216 488.036C134.935 468.324 128.29 423.695 129.695 405.413C131.1 387.13 122.278 313.281 137.079 305.496C151.88 297.71 172.444 301.635 172.444 301.635Z" fill="black"/>
<path d="M108.247 297.615C108.247 297.615 88.8967 357.264 84.3872 384.298C84.3872 384.298 84.7271 391.668 74.9158 398.802C65.1045 405.935 60.3871 395.627 32.3833 443.121C32.3833 443.121 27.1938 456.762 36.505 461.322C38.2723 462.187 40.3655 461.62 41.8153 459.889C48.5585 451.842 63.3316 435.895 81.2403 426.673C102.675 415.637 104.841 409.661 116.507 386.751C128.173 363.841 152.412 328.897 153.62 319.347C154.828 309.797 108.247 297.615 108.247 297.615Z" fill="black"/>
<path d="M127.771 369.365C127.612 369.364 127.455 369.323 127.316 369.247C127.101 369.125 126.944 368.924 126.877 368.687C126.81 368.449 126.84 368.195 126.959 367.98C134.149 355.151 137.83 349.464 145.382 344.836C145.486 344.766 145.604 344.718 145.728 344.694C145.851 344.671 145.978 344.672 146.101 344.699C146.224 344.726 146.341 344.778 146.443 344.851C146.546 344.924 146.633 345.017 146.698 345.124C146.764 345.231 146.807 345.351 146.825 345.476C146.844 345.6 146.836 345.727 146.804 345.849C146.772 345.971 146.716 346.084 146.638 346.184C146.561 346.283 146.464 346.366 146.354 346.427C139.178 350.821 135.604 356.362 128.586 368.904C128.502 369.046 128.383 369.163 128.24 369.244C128.097 369.324 127.935 369.366 127.771 369.365Z" fill="#CADDFF"/>
<path d="M104.288 325.571C104.045 325.578 103.809 325.489 103.631 325.324C103.453 325.159 103.346 324.93 103.334 324.688C103.322 324.445 103.405 324.207 103.566 324.025C103.727 323.843 103.953 323.732 104.195 323.714C118.277 322.309 121.463 314.296 121.494 314.215C121.591 313.996 121.767 313.823 121.987 313.731C122.208 313.639 122.455 313.635 122.678 313.719C122.901 313.804 123.084 313.971 123.187 314.186C123.291 314.401 123.309 314.647 123.236 314.875C123.093 315.248 119.584 324.043 104.381 325.551C104.35 325.561 104.319 325.567 104.288 325.571Z" fill="#CADDFF"/>
<path d="M169.506 336.296C169.322 336.294 169.142 336.24 168.989 336.138C162.271 331.643 162.462 322.183 162.473 321.781C162.491 321.542 162.6 321.319 162.778 321.158C162.956 320.998 163.189 320.912 163.429 320.918C163.668 320.925 163.896 321.023 164.065 321.193C164.234 321.363 164.331 321.592 164.336 321.832C164.336 321.921 164.17 330.679 170.023 334.59C170.19 334.701 170.317 334.862 170.384 335.05C170.452 335.239 170.458 335.444 170.399 335.635C170.341 335.827 170.223 335.995 170.062 336.114C169.901 336.233 169.706 336.296 169.506 336.296Z" fill="#CADDFF"/>
<path d="M76.127 161.532L79.3525 154.589C80.4346 152.26 80.5686 149.601 79.7261 147.174L76.9165 139.108C76.9165 139.108 74.6154 138.136 73.7275 142.845C72.8397 147.554 74.5845 152.077 71.0865 154.805C67.5884 157.534 59.7607 157.334 59.7607 157.334L62.0562 160.408C63.3571 162.153 63.9218 166.471 63.9218 166.471L64.3292 174.675C64.3292 174.675 71.1988 172.77 75.2588 171.321L75.1605 167.966C75.1605 167.966 75.2307 163.482 76.127 161.532Z" fill="white"/>
<path d="M63.4662 175.886L63.0026 166.564C62.8453 165.395 62.2553 162.226 61.3168 160.97L57.875 156.362L59.7912 156.41C59.867 156.41 67.3267 156.564 70.5213 154.072C72.488 152.535 72.488 150.287 72.488 147.444C72.4409 145.845 72.5472 144.246 72.8055 142.668C73.2241 140.456 74.0165 139.015 75.1656 138.405C75.4845 138.228 75.838 138.122 76.2017 138.095C76.5654 138.067 76.9309 138.118 77.2729 138.245L77.6522 138.405L80.5911 146.862C81.5183 149.517 81.3721 152.429 80.1837 154.977L76.9554 161.917C76.2811 163.369 76.0984 166.783 76.0872 167.974L76.2052 171.97L75.5674 172.197C71.5215 173.641 64.6407 175.552 64.5732 175.569L63.4662 175.886ZM61.6034 158.242L62.8088 159.857C64.2136 161.742 64.7924 165.889 64.8542 166.359V166.432L65.2054 173.456C67.1722 172.894 71.322 171.691 74.3115 170.66L74.2328 167.985C74.2328 167.469 74.3115 163.209 75.2752 161.127L78.5007 154.184C79.4861 152.076 79.6081 149.666 78.8406 147.469L76.2361 139.97C76.16 139.99 76.0871 140.02 76.0197 140.06C75.677 140.265 75.0392 140.917 74.643 143.008C74.4125 144.472 74.3184 145.954 74.362 147.436C74.362 150.386 74.3621 153.431 71.6676 155.53C68.9731 157.629 64.2361 158.124 61.6034 158.242Z" fill="black"/>
<path d="M147.253 185.543L145.407 192.592L137.405 190.6C136.731 190.432 136.068 190.224 135.402 190.038C126.51 187.336 118.421 190.378 111.158 195.329L83.1622 217.129L79.681 177.114L78.8831 171.45C78.5796 167.749 71.0469 169.379 67.15 170.638C64.6522 171.444 60.7271 173.386 60.2972 175.976L59.9741 181.969C59.9741 181.969 58.204 237.443 65.6131 243.63C74.1207 250.733 92.3245 244.731 100.894 241.287C101.582 241.014 102.32 240.889 103.059 240.92C103.799 240.951 104.523 241.137 105.186 241.467C105.848 241.797 106.434 242.262 106.905 242.833C107.376 243.405 107.721 244.068 107.918 244.782C109.857 251.783 111.343 266.517 105.01 294.794C105.01 294.794 103.119 298.311 106.631 303.183C106.631 303.183 132.562 315.633 152.547 317.257C172.532 318.881 176.044 311.303 176.044 308.867C176.044 306.431 173.391 281.72 175.282 271.167C176.115 266.493 177.811 262.015 180.284 257.962C181.59 255.841 191.193 274.539 205.334 285.451C229.357 304.02 247.62 303.526 252.256 303.023C252.603 302.984 252.934 302.857 253.218 302.653C253.502 302.45 253.729 302.176 253.877 301.86L260.21 288.416C260.341 288.136 260.408 287.831 260.406 287.522C260.403 287.214 260.331 286.909 260.194 286.633C260.057 286.356 259.86 286.113 259.616 285.923C259.373 285.734 259.09 285.601 258.788 285.536C251.831 284.044 232.209 278.155 218.661 257.521C208.546 242.141 202.244 227.207 195.228 216.84C192.019 212.1 185.377 207.11 181.618 204.505C180.871 203.99 180.344 203.215 180.14 202.331C179.936 201.448 180.069 200.519 180.514 199.729L181.239 198.437C181.618 197.76 181.771 196.979 181.675 196.209C181.579 195.439 181.239 194.72 180.705 194.157C177.052 190.291 168.062 182.076 155.98 179.862C152.184 179.196 148.239 181.795 147.253 185.543Z" fill="white"/>
<path d="M157.806 318.44C156.174 318.44 154.401 318.369 152.468 318.212C132.542 316.594 106.485 304.164 106.227 304.051L106.013 303.948L105.873 303.756C102.405 298.949 103.782 295.263 104.122 294.515C110.247 267.107 109.078 252.486 107.019 245.049C106.855 244.458 106.568 243.908 106.177 243.435C105.787 242.962 105.301 242.577 104.752 242.304C104.207 242.034 103.611 241.883 103.003 241.859C102.396 241.835 101.79 241.94 101.225 242.166C91.4338 246.1 73.6908 251.626 65.0034 244.36C57.4622 238.064 58.8474 187.681 59.03 181.955L59.3644 175.841C59.9741 172.163 65.7086 170.132 66.8493 169.764C68.8442 169.118 75.5761 167.162 78.4476 169.076C78.8372 169.329 79.1621 169.669 79.3963 170.07C79.6305 170.471 79.7675 170.922 79.7962 171.385L80.5969 177.005L83.9404 215.325L110.584 194.576C119.522 188.482 127.723 186.709 135.672 189.128L135.897 189.198C136.492 189.378 137.054 189.55 137.63 189.693L144.739 191.474L146.354 185.315C147.478 181.034 151.878 178.187 156.165 178.974C168.649 181.256 177.966 189.932 181.39 193.545C182.064 194.251 182.492 195.154 182.613 196.122C182.733 197.09 182.539 198.071 182.059 198.92L181.334 200.212C181.002 200.799 180.903 201.488 181.054 202.145C181.206 202.801 181.599 203.377 182.155 203.758C185.911 206.363 192.708 211.459 196.006 216.337C199.305 221.214 202.544 227.261 205.947 233.627C209.776 240.789 214.115 248.909 219.433 257.032C232.639 277.132 251.483 283.038 258.976 284.645C259.416 284.739 259.828 284.931 260.183 285.207C260.538 285.482 260.825 285.835 261.024 286.237C261.224 286.64 261.329 287.083 261.333 287.532C261.337 287.981 261.239 288.425 261.047 288.832L254.711 302.276C254.497 302.737 254.167 303.135 253.754 303.43C253.34 303.726 252.857 303.909 252.351 303.962C247.294 304.523 228.879 304.852 204.753 286.205C196.268 279.647 189.482 270.445 184.992 264.359C183.326 262.112 181.621 259.774 180.756 258.982C178.513 262.8 176.966 266.985 176.187 271.344C174.715 279.571 176.041 296.53 176.679 304.681C176.85 306.881 176.96 308.333 176.96 308.895C176.96 310.137 176.274 312.093 174.355 313.863C171.998 316.043 167.244 318.44 157.806 318.44ZM107.261 302.464C109.789 303.655 134.008 314.826 152.634 316.344C165.016 317.35 170.615 314.798 173.119 312.483C174.6 311.118 175.125 309.69 175.125 308.884C175.125 308.409 175.001 306.83 174.844 304.83C174.201 296.603 172.86 279.481 174.378 271.018C175.234 266.232 176.971 261.647 179.502 257.495C179.608 257.318 179.756 257.17 179.933 257.064C180.11 256.958 180.311 256.898 180.517 256.889C181.702 256.846 182.913 258.381 186.515 263.261C190.943 269.265 197.636 278.34 205.902 284.738C229.478 302.961 247.268 302.649 252.16 302.118C252.349 302.098 252.529 302.029 252.683 301.918C252.837 301.807 252.96 301.659 253.039 301.486L259.372 288.042C259.446 287.89 259.484 287.722 259.484 287.553C259.484 287.384 259.446 287.217 259.372 287.064C259.298 286.913 259.191 286.781 259.058 286.678C258.925 286.574 258.77 286.503 258.605 286.469C250.89 284.814 231.473 278.734 217.896 258.055C212.519 249.864 208.155 241.705 204.309 234.507C200.937 228.185 197.74 222.215 194.475 217.385C191.345 212.757 184.756 207.832 181.107 205.303C180.168 204.66 179.505 203.688 179.248 202.579C178.992 201.471 179.161 200.306 179.722 199.316L180.446 198.024C180.73 197.52 180.844 196.939 180.772 196.366C180.701 195.793 180.446 195.258 180.047 194.84C176.749 191.351 167.783 183.003 155.842 180.82C152.544 180.216 149.032 182.506 148.166 185.802L146.084 193.744L137.189 191.516C136.568 191.359 135.958 191.174 135.366 190.994L135.144 190.926C127.656 188.651 120.205 190.294 111.691 196.093L82.3923 218.913L78.7538 177.198L77.9503 171.579C77.9499 171.386 77.9011 171.197 77.8083 171.028C77.7155 170.859 77.5817 170.716 77.4192 170.613C75.7981 169.531 71.238 170.289 67.4281 171.52C64.6746 172.411 61.57 174.215 61.216 176.086L60.9013 182.025C60.4152 197.307 60.4152 238.084 66.2087 242.922C74.4607 249.811 92.9679 243.484 100.543 240.427C101.353 240.104 102.223 239.957 103.094 239.993C103.966 240.029 104.82 240.249 105.601 240.637C106.382 241.026 107.073 241.575 107.627 242.249C108.182 242.922 108.588 243.705 108.82 244.546C110.938 252.199 112.158 267.166 105.923 295.021L105.895 295.145L105.833 295.257C105.774 295.37 104.341 298.278 107.261 302.464Z" fill="black"/>
<path d="M158.498 211.766C158.369 211.766 158.241 211.74 158.122 211.688C158.003 211.636 157.897 211.56 157.809 211.465C147.133 199.78 149.381 187.673 149.473 187.162C149.521 186.919 149.663 186.706 149.868 186.568C150.073 186.431 150.324 186.38 150.566 186.428C150.808 186.476 151.022 186.618 151.159 186.823C151.297 187.028 151.347 187.279 151.3 187.521C151.271 187.664 149.173 199.257 159.183 210.206C159.35 210.389 159.438 210.63 159.427 210.877C159.416 211.124 159.307 211.357 159.124 211.524C158.954 211.681 158.73 211.767 158.498 211.766Z" fill="black"/>
<path d="M154.549 227.292C154.332 227.294 154.121 227.219 153.953 227.082C153.784 226.944 153.67 226.752 153.628 226.539C153.587 226.326 153.622 226.105 153.726 225.914C153.831 225.724 153.999 225.576 154.201 225.496C154.229 225.496 157.01 224.35 161.141 221.484C168.836 216.649 175.768 206.953 175.838 206.854C175.981 206.653 176.198 206.517 176.442 206.476C176.685 206.435 176.935 206.492 177.136 206.635C177.337 206.778 177.473 206.995 177.514 207.239C177.556 207.482 177.498 207.732 177.355 207.933C177.074 208.343 170.137 218.028 162.166 223.035C157.881 226.013 155.016 227.177 154.895 227.224C154.785 227.268 154.668 227.291 154.549 227.292Z" fill="black"/>
<path d="M144.539 290.043C144.361 290.043 144.186 289.992 144.037 289.896C143.887 289.8 143.767 289.663 143.693 289.501C143.619 289.339 143.593 289.159 143.618 288.983C143.642 288.806 143.717 288.641 143.834 288.506C151.586 279.448 154.199 276.396 158.104 266.7C158.145 266.581 158.21 266.471 158.295 266.377C158.38 266.283 158.484 266.208 158.599 266.155C158.714 266.103 158.839 266.074 158.965 266.072C159.092 266.069 159.217 266.092 159.335 266.139C159.452 266.186 159.559 266.257 159.648 266.347C159.737 266.437 159.807 266.544 159.853 266.661C159.9 266.779 159.922 266.905 159.918 267.031C159.915 267.158 159.885 267.282 159.832 267.397C155.811 277.377 153.151 280.487 145.247 289.717C145.16 289.82 145.051 289.902 144.929 289.958C144.807 290.015 144.674 290.044 144.539 290.043Z" fill="black"/>
<path d="M126.647 294.92C126.456 294.919 126.269 294.86 126.113 294.749C125.957 294.639 125.838 294.483 125.774 294.303C125.709 294.123 125.701 293.927 125.751 293.743C125.802 293.558 125.907 293.394 126.054 293.271C144.559 277.953 161.492 241.854 161.661 241.486C161.706 241.366 161.776 241.257 161.866 241.165C161.955 241.073 162.063 241 162.182 240.952C162.301 240.904 162.429 240.88 162.557 240.884C162.685 240.887 162.812 240.917 162.928 240.971C163.044 241.025 163.148 241.103 163.233 241.199C163.318 241.295 163.382 241.408 163.422 241.531C163.461 241.653 163.475 241.782 163.462 241.91C163.449 242.037 163.41 242.161 163.347 242.273C163.175 242.638 146.07 279.119 127.237 294.707C127.071 294.845 126.863 294.92 126.647 294.92Z" fill="black"/>
<path d="M259.572 290.023C259.572 290.023 268.928 288.073 272.134 286.469C275.339 284.865 276.427 286.508 276.581 287.433C276.71 288.234 273.558 290.956 270.372 291.973C270.297 291.98 270.229 292.016 270.181 292.073C270.133 292.131 270.11 292.205 270.116 292.279C270.123 292.354 270.159 292.423 270.216 292.471C270.274 292.519 270.348 292.542 270.422 292.535C273.364 292.928 276.975 294.468 282.757 292.535C286.718 291.201 290.306 294.389 289.891 297.525C289.374 301.428 277.596 313.641 254.961 300.205L259.572 290.023Z" fill="white"/>
<path d="M274.154 307.243C269.096 307.243 262.538 305.768 254.486 300.992L253.77 300.565L258.92 289.208L259.383 289.113C259.476 289.093 268.655 287.168 271.718 285.637C273.431 284.777 274.864 284.631 275.98 285.199C276.378 285.404 276.723 285.699 276.987 286.061C277.251 286.423 277.427 286.842 277.5 287.284C277.722 288.646 275.165 290.723 272.679 292.001C275.258 292.526 278.191 293.074 282.459 291.639C283.51 291.273 284.636 291.183 285.732 291.377C286.827 291.571 287.855 292.042 288.716 292.746C290.264 294.021 291.048 295.836 290.812 297.634C290.531 299.744 287.91 303.113 283.6 305.22C281.535 306.207 278.368 307.243 274.154 307.243ZM256.172 299.809C269.804 307.651 278.688 305.527 282.805 303.529C286.716 301.633 288.803 298.753 288.986 297.39C289.135 296.266 288.587 295.035 287.553 294.184C286.938 293.676 286.201 293.337 285.416 293.2C284.63 293.063 283.822 293.133 283.071 293.403C278.233 295.033 274.864 294.344 272.156 293.791C271.504 293.659 270.889 293.532 270.318 293.456C270.045 293.419 269.792 293.29 269.601 293.09C269.41 292.89 269.293 292.632 269.268 292.356C269.244 292.081 269.313 291.806 269.466 291.575C269.618 291.345 269.845 291.173 270.108 291.088C272.858 290.209 275.244 288.132 275.646 287.435C275.564 287.182 275.387 286.97 275.151 286.845C274.612 286.564 273.693 286.727 272.572 287.289C269.672 288.742 262.204 290.405 260.246 290.827L256.172 299.809Z" fill="black"/>
<path d="M173.175 184.526C174.322 184.751 175.501 184.748 176.647 184.517C177.793 184.286 178.881 183.831 179.851 183.179C180.82 182.526 181.652 181.689 182.297 180.715C182.943 179.741 183.39 178.649 183.613 177.502L186.22 164.268C186.646 162.084 186.195 159.82 184.965 157.966C183.736 156.111 181.826 154.814 179.648 154.356L178.033 154.019C176.712 153.743 175.344 153.786 174.043 154.145C172.742 154.503 171.545 155.166 170.551 156.078L166.777 159.54C166.506 159.794 166.158 159.952 165.787 159.988C165.417 160.024 165.045 159.937 164.729 159.739C163.861 159.194 162.583 158.615 161.492 159.079C159.644 159.846 156.946 166.707 163.22 169.194L156.921 185.543C156.921 185.543 152.072 194.792 162.259 197.905C172.447 201.019 173.175 184.526 173.175 184.526Z" fill="white"/>
<path d="M164.722 199.243C163.798 199.234 162.881 199.086 162.002 198.805C158.678 197.788 156.478 196.035 155.461 193.596C153.868 189.78 155.801 185.692 156.071 185.167L162.05 169.658C158.914 168.053 158.397 165.418 158.383 163.915C158.36 161.496 159.656 158.829 161.15 158.208C162.302 157.731 163.716 157.981 165.238 158.939C165.382 159.025 165.55 159.063 165.717 159.046C165.883 159.028 166.04 158.957 166.163 158.843L169.917 155.382C171.021 154.372 172.35 153.638 173.793 153.241C175.236 152.844 176.753 152.795 178.219 153.098L179.835 153.435C182.255 153.948 184.377 155.391 185.743 157.454C187.11 159.517 187.611 162.034 187.14 164.463L184.527 177.696C184.061 180.076 182.731 182.199 180.792 183.656C178.854 185.113 176.445 185.802 174.03 185.588C173.777 188.215 172.743 195.141 168.711 197.982C167.548 198.814 166.151 199.255 164.722 199.243ZM162.359 159.835C162.185 159.833 162.012 159.864 161.85 159.928C161.347 160.139 160.212 161.852 160.232 163.898C160.246 165.303 160.833 167.227 163.561 168.303L164.421 168.643L157.745 185.971C157.728 186.007 155.846 189.699 157.183 192.888C157.978 194.787 159.782 196.178 162.547 197.024C164.561 197.642 166.225 197.459 167.635 196.462C171.816 193.503 172.24 184.577 172.246 184.487L172.291 183.403L173.356 183.613C174.381 183.815 175.437 183.812 176.461 183.606C177.486 183.399 178.46 182.993 179.328 182.41C180.196 181.828 180.94 181.079 181.519 180.209C182.098 179.338 182.499 178.362 182.7 177.336L185.308 164.103C185.687 162.158 185.288 160.142 184.196 158.488C183.104 156.834 181.407 155.674 179.469 155.258L177.857 154.921C176.68 154.676 175.461 154.715 174.302 155.033C173.143 155.352 172.076 155.941 171.189 156.753L167.419 160.214C166.995 160.604 166.456 160.844 165.883 160.898C165.311 160.953 164.736 160.818 164.247 160.515C163.789 160.237 163.03 159.835 162.359 159.835Z" fill="black"/>
<path d="M173.158 185.454C173.092 185.454 173.026 185.448 172.962 185.434C172.338 185.299 166.834 183.998 165.797 179.452C165.753 179.215 165.802 178.97 165.935 178.769C166.067 178.568 166.272 178.425 166.507 178.372C166.742 178.318 166.989 178.358 167.196 178.482C167.402 178.607 167.552 178.806 167.615 179.039C168.404 182.515 173.15 183.568 173.352 183.613C173.578 183.661 173.778 183.79 173.913 183.976C174.049 184.162 174.111 184.392 174.087 184.621C174.063 184.85 173.954 185.062 173.783 185.216C173.611 185.37 173.389 185.455 173.158 185.454Z" fill="black"/>
<path d="M160.187 159.133L159.456 148.456C159.63 146.198 160.564 144.066 162.107 142.408C163.65 140.75 165.71 139.665 167.95 139.33L181.276 137.344C181.591 137.297 181.913 137.324 182.216 137.421C182.519 137.519 182.796 137.686 183.024 137.908C183.253 138.13 183.427 138.401 183.534 138.702C183.64 139.002 183.676 139.323 183.639 139.639C183.601 139.956 183.636 140.278 183.743 140.578C183.849 140.879 184.024 141.152 184.253 141.374C184.482 141.596 184.759 141.763 185.063 141.861C185.366 141.958 185.689 141.985 186.004 141.937L192.076 141.021C192.474 140.966 192.879 141.026 193.243 141.196C193.607 141.366 193.914 141.638 194.126 141.979C194.338 142.32 194.446 142.716 194.438 143.117C194.43 143.519 194.305 143.909 194.079 144.241L193.714 144.772C193.537 145.034 193.421 145.333 193.376 145.647C193.332 145.96 193.359 146.279 193.457 146.58C193.555 146.881 193.719 147.156 193.939 147.384C194.159 147.612 194.428 147.786 194.726 147.894L199.249 149.627C199.6 149.756 199.909 149.977 200.144 150.266C200.38 150.556 200.533 150.903 200.588 151.273C200.642 151.642 200.596 152.019 200.455 152.364C200.313 152.71 200.081 153.01 199.783 153.235L186.797 162.226C186.797 162.226 185.704 153.277 176.926 153.752C172.484 153.994 169.059 157.053 167.514 159.346C166.913 160.231 165.752 161.799 164.297 160.172C164.297 160.169 165.685 156.688 160.187 159.133Z" fill="black"/>
<path d="M486.814 391.595L310.722 401.398C305.088 401.712 300.522 397.068 300.522 391.027V261.938C300.522 255.897 305.088 250.744 310.722 250.418L486.814 240.615C492.433 240.301 497.01 244.945 497.01 250.986V380.075C497.01 386.127 492.444 391.28 486.814 391.595Z" fill="#4A33FB"/>
<path d="M310.186 402.345C307.556 402.349 305.027 401.337 303.125 399.521C301.993 398.418 301.096 397.096 300.489 395.636C299.882 394.176 299.577 392.608 299.593 391.027V261.938C299.593 255.419 304.561 249.84 310.672 249.5L486.761 239.697C488.161 239.615 489.563 239.822 490.879 240.305C492.195 240.789 493.398 241.538 494.412 242.506C495.546 243.611 496.443 244.934 497.05 246.395C497.657 247.856 497.961 249.426 497.944 251.008V380.098C497.944 386.616 492.973 392.179 486.865 392.533L310.773 402.339C310.576 402.339 310.38 402.345 310.186 402.345ZM487.349 241.543C487.188 241.543 487.028 241.543 486.865 241.543L310.773 251.345C305.637 251.626 301.456 256.378 301.456 261.924V391.013C301.439 392.341 301.691 393.658 302.198 394.885C302.705 396.112 303.455 397.224 304.404 398.153C305.232 398.954 306.217 399.575 307.298 399.976C308.378 400.377 309.53 400.549 310.68 400.482L486.77 390.676C491.909 390.395 496.089 385.647 496.089 380.101V251.008C496.106 249.681 495.854 248.363 495.347 247.136C494.839 245.909 494.088 244.797 493.139 243.869C491.582 242.374 489.507 241.54 487.349 241.543Z" fill="black"/>
<path d="M483.302 253.551H317.743C307.459 253.551 299.121 261.888 299.121 272.173V385.897C299.121 396.182 307.459 404.519 317.743 404.519H483.302C493.587 404.519 501.925 396.182 501.925 385.897V272.173C501.925 261.888 493.587 253.551 483.302 253.551Z" fill="#4A33FB"/>
<path d="M483.299 405.449H317.743C312.558 405.443 307.588 403.381 303.922 399.715C300.256 396.049 298.193 391.079 298.188 385.894V272.173C298.193 266.989 300.256 262.018 303.922 258.352C307.588 254.686 312.558 252.624 317.743 252.618H483.299C488.483 252.624 493.454 254.686 497.12 258.352C500.786 262.018 502.848 266.989 502.854 272.173V385.894C502.848 391.079 500.786 396.049 497.12 399.715C493.454 403.381 488.483 405.443 483.299 405.449ZM317.743 254.481C313.048 254.481 308.546 256.346 305.226 259.665C301.907 262.985 300.042 267.487 300.042 272.182V385.903C300.042 390.597 301.907 395.099 305.226 398.419C308.546 401.738 313.048 403.603 317.743 403.603H483.299C487.993 403.603 492.496 401.738 495.815 398.419C499.135 395.099 501 390.597 501 385.903V272.173C501 267.479 499.135 262.977 495.815 259.657C492.496 256.337 487.993 254.473 483.299 254.473L317.743 254.481Z" fill="black"/>
<path d="M483.246 400.344H475.795C475.557 400.331 475.333 400.227 475.169 400.054C475.005 399.881 474.914 399.651 474.914 399.413C474.914 399.174 475.005 398.945 475.169 398.772C475.333 398.598 475.557 398.494 475.795 398.481H483.246C483.485 398.494 483.709 398.598 483.873 398.772C484.037 398.945 484.128 399.174 484.128 399.413C484.128 399.651 484.037 399.881 483.873 400.054C483.709 400.227 483.485 400.331 483.246 400.344ZM468.355 400.344H460.907C460.78 400.351 460.654 400.332 460.534 400.289C460.415 400.245 460.307 400.177 460.214 400.09C460.122 400.003 460.049 399.898 459.999 399.782C459.949 399.665 459.923 399.54 459.923 399.413C459.923 399.286 459.949 399.161 459.999 399.044C460.049 398.928 460.122 398.823 460.214 398.735C460.307 398.648 460.415 398.581 460.534 398.537C460.654 398.493 460.78 398.474 460.907 398.481H468.355C468.593 398.494 468.818 398.598 468.982 398.772C469.145 398.945 469.237 399.174 469.237 399.413C469.237 399.651 469.145 399.881 468.982 400.054C468.818 400.227 468.593 400.331 468.355 400.344ZM453.464 400.344H446.016C445.889 400.351 445.762 400.332 445.643 400.289C445.524 400.245 445.415 400.177 445.323 400.09C445.231 400.003 445.158 399.898 445.108 399.782C445.058 399.665 445.032 399.54 445.032 399.413C445.032 399.286 445.058 399.161 445.108 399.044C445.158 398.928 445.231 398.823 445.323 398.735C445.415 398.648 445.524 398.581 445.643 398.537C445.762 398.493 445.889 398.474 446.016 398.481H453.464C453.591 398.474 453.717 398.493 453.836 398.537C453.956 398.581 454.064 398.648 454.156 398.735C454.249 398.823 454.322 398.928 454.372 399.044C454.422 399.161 454.448 399.286 454.448 399.413C454.448 399.54 454.422 399.665 454.372 399.782C454.322 399.898 454.249 400.003 454.156 400.09C454.064 400.177 453.956 400.245 453.836 400.289C453.717 400.332 453.591 400.351 453.464 400.344ZM438.573 400.344H431.125C430.886 400.331 430.662 400.227 430.498 400.054C430.334 399.881 430.243 399.651 430.243 399.413C430.243 399.174 430.334 398.945 430.498 398.772C430.662 398.598 430.886 398.494 431.125 398.481H438.573C438.7 398.474 438.826 398.493 438.945 398.537C439.064 398.581 439.173 398.648 439.265 398.735C439.357 398.823 439.431 398.928 439.481 399.044C439.531 399.161 439.557 399.286 439.557 399.413C439.557 399.54 439.531 399.665 439.481 399.782C439.431 399.898 439.357 400.003 439.265 400.09C439.173 400.177 439.064 400.245 438.945 400.289C438.826 400.332 438.7 400.351 438.573 400.344ZM423.682 400.344H416.231C415.992 400.331 415.768 400.227 415.604 400.054C415.44 399.881 415.349 399.651 415.349 399.413C415.349 399.174 415.44 398.945 415.604 398.772C415.768 398.598 415.992 398.494 416.231 398.481H423.682C423.92 398.494 424.144 398.598 424.308 398.772C424.472 398.945 424.563 399.174 424.563 399.413C424.563 399.651 424.472 399.881 424.308 400.054C424.144 400.227 423.92 400.331 423.682 400.344ZM408.791 400.344H401.342C401.216 400.351 401.089 400.332 400.97 400.289C400.851 400.245 400.742 400.177 400.65 400.09C400.558 400.003 400.484 399.898 400.434 399.782C400.384 399.665 400.358 399.54 400.358 399.413C400.358 399.286 400.384 399.161 400.434 399.044C400.484 398.928 400.558 398.823 400.65 398.735C400.742 398.648 400.851 398.581 400.97 398.537C401.089 398.493 401.216 398.474 401.342 398.481H408.791C409.029 398.494 409.253 398.598 409.417 398.772C409.581 398.945 409.672 399.174 409.672 399.413C409.672 399.651 409.581 399.881 409.417 400.054C409.253 400.227 409.029 400.331 408.791 400.344ZM393.899 400.344H386.451C386.324 400.351 386.198 400.332 386.079 400.289C385.96 400.245 385.851 400.177 385.759 400.09C385.667 400.003 385.593 399.898 385.543 399.782C385.493 399.665 385.467 399.54 385.467 399.413C385.467 399.286 385.493 399.161 385.543 399.044C385.593 398.928 385.667 398.823 385.759 398.735C385.851 398.648 385.96 398.581 386.079 398.537C386.198 398.493 386.324 398.474 386.451 398.481H393.846C393.973 398.474 394.099 398.493 394.218 398.537C394.337 398.581 394.446 398.648 394.538 398.735C394.631 398.823 394.704 398.928 394.754 399.044C394.804 399.161 394.83 399.286 394.83 399.413C394.83 399.54 394.804 399.665 394.754 399.782C394.704 399.898 394.631 400.003 394.538 400.09C394.446 400.177 394.337 400.245 394.218 400.289C394.099 400.332 393.973 400.351 393.846 400.344H393.899ZM379.008 400.344H371.56C371.322 400.331 371.098 400.227 370.934 400.054C370.77 399.881 370.678 399.651 370.678 399.413C370.678 399.174 370.77 398.945 370.934 398.772C371.098 398.598 371.322 398.494 371.56 398.481H378.955C379.081 398.474 379.208 398.493 379.327 398.537C379.446 398.581 379.555 398.648 379.647 398.735C379.739 398.823 379.813 398.928 379.863 399.044C379.913 399.161 379.939 399.286 379.939 399.413C379.939 399.54 379.913 399.665 379.863 399.782C379.813 399.898 379.739 400.003 379.647 400.09C379.555 400.177 379.446 400.245 379.327 400.289C379.208 400.332 379.081 400.351 378.955 400.344H379.008ZM364.117 400.344H356.666C356.428 400.331 356.204 400.227 356.04 400.054C355.876 399.881 355.784 399.651 355.784 399.413C355.784 399.174 355.876 398.945 356.04 398.772C356.204 398.598 356.428 398.494 356.666 398.481H364.064C364.302 398.494 364.526 398.598 364.69 398.772C364.854 398.945 364.945 399.174 364.945 399.413C364.945 399.651 364.854 399.881 364.69 400.054C364.526 400.227 364.302 400.331 364.064 400.344H364.117ZM349.226 400.344H341.775C341.537 400.331 341.312 400.227 341.148 400.054C340.984 399.881 340.893 399.651 340.893 399.413C340.893 399.174 340.984 398.945 341.148 398.772C341.312 398.598 341.537 398.494 341.775 398.481H349.226C349.464 398.494 349.688 398.598 349.852 398.772C350.016 398.945 350.108 399.174 350.108 399.413C350.108 399.651 350.016 399.881 349.852 400.054C349.688 400.227 349.464 400.331 349.226 400.344ZM334.335 400.344H326.808C326.681 400.351 326.554 400.332 326.435 400.289C326.316 400.245 326.207 400.177 326.115 400.09C326.023 400.003 325.95 399.898 325.9 399.782C325.85 399.665 325.824 399.54 325.824 399.413C325.824 399.286 325.85 399.161 325.9 399.044C325.95 398.928 326.023 398.823 326.115 398.735C326.207 398.648 326.316 398.581 326.435 398.537C326.554 398.493 326.681 398.474 326.808 398.481H334.256C334.494 398.494 334.718 398.598 334.882 398.772C335.046 398.945 335.138 399.174 335.138 399.413C335.138 399.651 335.046 399.881 334.882 400.054C334.718 400.227 334.494 400.331 334.256 400.344H334.335ZM319.444 400.344C316.776 400.308 314.169 399.546 311.902 398.139C311.693 398.008 311.543 397.8 311.487 397.559C311.431 397.319 311.473 397.066 311.603 396.856C311.734 396.646 311.942 396.497 312.183 396.441C312.423 396.385 312.676 396.426 312.886 396.557C314.864 397.785 317.14 398.452 319.469 398.484C319.716 398.484 319.952 398.582 320.126 398.757C320.301 398.931 320.399 399.168 320.399 399.414C320.399 399.661 320.301 399.897 320.126 400.072C319.952 400.246 319.716 400.344 319.469 400.344H319.444ZM489.765 398.754C489.556 398.755 489.354 398.686 489.189 398.559C489.024 398.431 488.907 398.252 488.857 398.05C488.806 397.847 488.825 397.634 488.91 397.444C488.996 397.254 489.142 397.098 489.327 397.001C491.386 395.912 493.112 394.284 494.319 392.292C494.447 392.08 494.654 391.929 494.893 391.87C495.133 391.811 495.386 391.849 495.598 391.977C495.809 392.105 495.961 392.311 496.02 392.551C496.079 392.791 496.04 393.044 495.912 393.255C494.529 395.536 492.554 397.399 490.197 398.647C490.038 398.732 489.857 398.768 489.678 398.751L489.765 398.754ZM307.309 392.868C307.135 392.87 306.965 392.825 306.816 392.736C306.667 392.647 306.546 392.519 306.466 392.365C305.399 390.285 304.843 387.981 304.842 385.644V384.731C304.855 384.493 304.959 384.269 305.132 384.105C305.305 383.941 305.535 383.849 305.773 383.849C306.012 383.849 306.241 383.941 306.414 384.105C306.588 384.269 306.692 384.493 306.705 384.731V385.644C306.695 387.684 307.177 389.696 308.109 391.511C308.223 391.73 308.244 391.986 308.168 392.222C308.093 392.457 307.927 392.653 307.708 392.767C307.584 392.829 307.447 392.863 307.309 392.868ZM497.014 386.597C496.893 386.599 496.773 386.578 496.66 386.533C496.547 386.489 496.445 386.422 496.358 386.338C496.272 386.253 496.203 386.153 496.156 386.041C496.109 385.93 496.084 385.81 496.084 385.689V378.238C496.097 378 496.201 377.776 496.374 377.612C496.547 377.448 496.777 377.356 497.015 377.356C497.254 377.356 497.483 377.448 497.656 377.612C497.83 377.776 497.933 378 497.947 378.238V385.644C497.947 385.893 497.849 386.133 497.675 386.311C497.5 386.489 497.263 386.591 497.014 386.597ZM305.789 378.213C305.542 378.213 305.305 378.115 305.13 377.94C304.955 377.766 304.857 377.529 304.856 377.283V369.834C304.849 369.708 304.868 369.581 304.911 369.462C304.955 369.343 305.023 369.234 305.11 369.142C305.197 369.05 305.302 368.976 305.418 368.926C305.535 368.876 305.66 368.85 305.787 368.85C305.914 368.85 306.04 368.876 306.156 368.926C306.272 368.976 306.378 369.05 306.465 369.142C306.552 369.234 306.619 369.343 306.663 369.462C306.707 369.581 306.726 369.708 306.719 369.834V377.283C306.719 377.405 306.695 377.526 306.648 377.638C306.601 377.751 306.533 377.854 306.446 377.94C306.36 378.027 306.257 378.095 306.145 378.142C306.032 378.188 305.911 378.213 305.789 378.213ZM497.014 371.722C496.767 371.722 496.53 371.623 496.356 371.448C496.182 371.273 496.084 371.036 496.084 370.789V363.341C496.077 363.214 496.096 363.088 496.139 362.969C496.183 362.85 496.251 362.741 496.338 362.649C496.425 362.557 496.53 362.483 496.646 362.433C496.763 362.383 496.888 362.357 497.015 362.357C497.142 362.357 497.267 362.383 497.384 362.433C497.5 362.483 497.605 362.557 497.693 362.649C497.78 362.741 497.847 362.85 497.891 362.969C497.935 363.088 497.953 363.214 497.947 363.341V370.789C497.947 371.037 497.848 371.274 497.673 371.449C497.498 371.624 497.261 371.722 497.014 371.722ZM305.789 363.316C305.541 363.316 305.304 363.217 305.129 363.043C304.954 362.868 304.856 362.63 304.856 362.383V354.935C304.849 354.808 304.868 354.681 304.911 354.562C304.955 354.443 305.023 354.334 305.11 354.242C305.197 354.15 305.302 354.077 305.418 354.027C305.535 353.976 305.66 353.951 305.787 353.951C305.914 353.951 306.04 353.976 306.156 354.027C306.272 354.077 306.378 354.15 306.465 354.242C306.552 354.334 306.619 354.443 306.663 354.562C306.707 354.681 306.726 354.808 306.719 354.935V362.383C306.719 362.63 306.621 362.867 306.446 363.042C306.272 363.216 306.036 363.315 305.789 363.316ZM497.014 356.823C496.767 356.822 496.53 356.723 496.356 356.548C496.182 356.374 496.084 356.137 496.084 355.89V348.441C496.097 348.203 496.201 347.979 496.374 347.815C496.547 347.651 496.777 347.56 497.015 347.56C497.254 347.56 497.483 347.651 497.656 347.815C497.83 347.979 497.933 348.203 497.947 348.441V355.89C497.947 356.137 497.848 356.375 497.673 356.549C497.498 356.724 497.261 356.823 497.014 356.823ZM305.789 348.416C305.541 348.416 305.304 348.318 305.129 348.143C304.954 347.968 304.856 347.731 304.856 347.483V340.035C304.869 339.797 304.973 339.573 305.146 339.409C305.319 339.245 305.549 339.153 305.787 339.153C306.026 339.153 306.255 339.245 306.429 339.409C306.602 339.573 306.706 339.797 306.719 340.035V347.483C306.719 347.73 306.621 347.967 306.446 348.142C306.272 348.317 306.036 348.415 305.789 348.416ZM497.014 341.923C496.767 341.923 496.53 341.825 496.356 341.651C496.182 341.476 496.084 341.24 496.084 340.993V333.542C496.097 333.304 496.201 333.08 496.374 332.916C496.547 332.752 496.777 332.66 497.015 332.66C497.254 332.66 497.483 332.752 497.656 332.916C497.83 333.08 497.933 333.304 497.947 333.542V340.993C497.946 341.24 497.847 341.477 497.672 341.651C497.497 341.825 497.261 341.923 497.014 341.923ZM305.789 333.517C305.542 333.517 305.305 333.419 305.13 333.244C304.955 333.07 304.857 332.833 304.856 332.587V325.135C304.869 324.897 304.973 324.673 305.146 324.509C305.319 324.345 305.549 324.254 305.787 324.254C306.026 324.254 306.255 324.345 306.429 324.509C306.602 324.673 306.706 324.897 306.719 325.135V332.587C306.719 332.709 306.695 332.83 306.648 332.942C306.601 333.055 306.533 333.158 306.446 333.244C306.36 333.331 306.257 333.399 306.145 333.446C306.032 333.493 305.911 333.517 305.789 333.517ZM497.014 327.023C496.767 327.023 496.53 326.925 496.356 326.751C496.182 326.577 496.084 326.34 496.084 326.093V318.642C496.097 318.404 496.201 318.18 496.374 318.016C496.547 317.852 496.777 317.761 497.015 317.761C497.254 317.761 497.483 317.852 497.656 318.016C497.83 318.18 497.933 318.404 497.947 318.642V326.093C497.946 326.34 497.847 326.577 497.672 326.751C497.497 326.926 497.261 327.023 497.014 327.023ZM305.789 318.617C305.542 318.617 305.305 318.519 305.13 318.345C304.955 318.17 304.857 317.934 304.856 317.687V310.239C304.849 310.112 304.868 309.985 304.911 309.866C304.955 309.747 305.023 309.638 305.11 309.546C305.197 309.454 305.302 309.381 305.418 309.331C305.535 309.28 305.66 309.255 305.787 309.255C305.914 309.255 306.04 309.28 306.156 309.331C306.272 309.381 306.378 309.454 306.465 309.546C306.552 309.638 306.619 309.747 306.663 309.866C306.707 309.985 306.726 310.112 306.719 310.239V317.687C306.719 317.809 306.695 317.93 306.648 318.043C306.601 318.156 306.533 318.258 306.446 318.345C306.36 318.431 306.257 318.499 306.145 318.546C306.032 318.593 305.911 318.617 305.789 318.617ZM497.014 312.124C496.767 312.124 496.53 312.026 496.356 311.851C496.182 311.677 496.084 311.441 496.084 311.194V303.745C496.077 303.619 496.096 303.492 496.139 303.373C496.183 303.254 496.251 303.145 496.338 303.053C496.425 302.961 496.53 302.888 496.646 302.837C496.763 302.787 496.888 302.762 497.015 302.762C497.142 302.762 497.267 302.787 497.384 302.837C497.5 302.888 497.605 302.961 497.693 303.053C497.78 303.145 497.847 303.254 497.891 303.373C497.935 303.492 497.953 303.619 497.947 303.745V311.194C497.946 311.441 497.847 311.677 497.672 311.852C497.497 312.026 497.261 312.124 497.014 312.124ZM305.789 303.72C305.541 303.72 305.304 303.622 305.129 303.447C304.954 303.272 304.856 303.035 304.856 302.787V295.339C304.849 295.212 304.868 295.086 304.911 294.967C304.955 294.848 305.023 294.739 305.11 294.647C305.197 294.554 305.302 294.481 305.418 294.431C305.535 294.381 305.66 294.355 305.787 294.355C305.914 294.355 306.04 294.381 306.156 294.431C306.272 294.481 306.378 294.554 306.465 294.647C306.552 294.739 306.619 294.848 306.663 294.967C306.707 295.086 306.726 295.212 306.719 295.339V302.787C306.719 303.034 306.621 303.271 306.446 303.446C306.272 303.621 306.036 303.719 305.789 303.72ZM497.014 297.227C496.767 297.226 496.53 297.128 496.356 296.953C496.182 296.778 496.084 296.541 496.084 296.294V288.846C496.077 288.719 496.096 288.593 496.139 288.473C496.183 288.354 496.251 288.246 496.338 288.153C496.425 288.061 496.53 287.988 496.646 287.938C496.763 287.888 496.888 287.862 497.015 287.862C497.142 287.862 497.267 287.888 497.384 287.938C497.5 287.988 497.605 288.061 497.693 288.153C497.78 288.246 497.847 288.354 497.891 288.473C497.935 288.593 497.953 288.719 497.947 288.846V296.294C497.947 296.542 497.848 296.779 497.673 296.954C497.498 297.129 497.261 297.227 497.014 297.227ZM305.789 288.821C305.541 288.821 305.304 288.722 305.129 288.547C304.954 288.372 304.856 288.135 304.856 287.888V280.439C304.869 280.201 304.973 279.977 305.146 279.813C305.319 279.649 305.549 279.558 305.787 279.558C306.026 279.558 306.255 279.649 306.429 279.813C306.602 279.977 306.706 280.201 306.719 280.439V287.888C306.719 288.135 306.621 288.372 306.446 288.546C306.272 288.721 306.036 288.82 305.789 288.821ZM497.014 282.327C496.767 282.327 496.53 282.228 496.356 282.053C496.182 281.878 496.084 281.642 496.084 281.395V273.946C496.097 273.708 496.201 273.484 496.374 273.32C496.547 273.156 496.777 273.065 497.015 273.065C497.254 273.065 497.483 273.156 497.656 273.32C497.83 273.484 497.933 273.708 497.947 273.946V281.395C497.947 281.642 497.848 281.879 497.673 282.054C497.498 282.229 497.261 282.327 497.014 282.327ZM305.789 273.921C305.542 273.921 305.305 273.823 305.13 273.649C304.955 273.474 304.857 273.238 304.856 272.991V272.657C304.855 270.11 305.516 267.607 306.775 265.394C306.897 265.179 307.099 265.022 307.338 264.956C307.456 264.924 307.579 264.915 307.7 264.931C307.821 264.946 307.939 264.985 308.045 265.045C308.151 265.106 308.244 265.187 308.319 265.283C308.394 265.38 308.45 265.49 308.482 265.608C308.514 265.726 308.523 265.849 308.508 265.971C308.493 266.092 308.454 266.209 308.393 266.315C307.291 268.247 306.71 270.432 306.707 272.657V272.991C306.707 273.236 306.611 273.471 306.439 273.645C306.267 273.819 306.033 273.918 305.789 273.921ZM495.665 267.633C495.489 267.634 495.316 267.585 495.167 267.491C495.018 267.398 494.898 267.264 494.822 267.105C493.812 265.006 492.253 263.219 490.31 261.935C490.208 261.868 490.12 261.781 490.052 261.68C489.983 261.578 489.935 261.465 489.911 261.345C489.886 261.225 489.886 261.102 489.909 260.982C489.932 260.862 489.978 260.747 490.046 260.645C490.113 260.543 490.2 260.456 490.301 260.387C490.402 260.319 490.516 260.271 490.636 260.246C490.756 260.222 490.879 260.221 490.999 260.244C491.119 260.267 491.233 260.314 491.335 260.381C493.56 261.851 495.345 263.895 496.5 266.298C496.553 266.408 496.584 266.528 496.591 266.65C496.598 266.772 496.581 266.895 496.54 267.01C496.5 267.125 496.437 267.232 496.355 267.323C496.273 267.414 496.175 267.488 496.064 267.54C495.94 267.602 495.803 267.633 495.665 267.633ZM312.796 261.592C312.591 261.592 312.391 261.523 312.229 261.398C312.066 261.272 311.95 261.096 311.897 260.898C311.845 260.699 311.859 260.489 311.939 260.3C312.018 260.11 312.157 259.952 312.335 259.85C314.538 258.608 317.024 257.956 319.553 257.957H319.935C320.173 257.97 320.398 258.073 320.562 258.247C320.726 258.42 320.817 258.649 320.817 258.888C320.817 259.126 320.726 259.356 320.562 259.529C320.398 259.702 320.173 259.806 319.935 259.819H319.553C317.345 259.818 315.174 260.387 313.251 261.471C313.112 261.55 312.956 261.592 312.796 261.592ZM483.822 259.831H483.786C483.606 259.831 483.426 259.831 483.246 259.831H476.374C476.136 259.818 475.912 259.714 475.748 259.54C475.584 259.367 475.492 259.138 475.492 258.899C475.492 258.661 475.584 258.431 475.748 258.258C475.912 258.085 476.136 257.981 476.374 257.968H483.246C483.452 257.968 483.657 257.968 483.862 257.968C484.1 257.985 484.323 258.093 484.484 258.27C484.645 258.447 484.732 258.679 484.727 258.918C484.722 259.157 484.626 259.385 484.457 259.555C484.289 259.725 484.062 259.824 483.822 259.831ZM468.931 259.831H461.474C461.236 259.818 461.012 259.714 460.848 259.54C460.684 259.367 460.593 259.138 460.593 258.899C460.593 258.661 460.684 258.431 460.848 258.258C461.012 258.085 461.236 257.981 461.474 257.968H468.926C469.164 257.981 469.388 258.085 469.552 258.258C469.716 258.431 469.807 258.661 469.807 258.899C469.807 259.138 469.716 259.367 469.552 259.54C469.388 259.714 469.164 259.818 468.926 259.831H468.931ZM454.04 259.831H446.589C446.351 259.818 446.127 259.714 445.963 259.54C445.799 259.367 445.707 259.138 445.707 258.899C445.707 258.661 445.799 258.431 445.963 258.258C446.127 258.085 446.351 257.981 446.589 257.968H454.04C454.278 257.981 454.502 258.085 454.666 258.258C454.83 258.431 454.922 258.661 454.922 258.899C454.922 259.138 454.83 259.367 454.666 259.54C454.502 259.714 454.278 259.818 454.04 259.831ZM439.149 259.831H431.7C431.574 259.838 431.447 259.819 431.328 259.775C431.209 259.731 431.1 259.664 431.008 259.577C430.916 259.489 430.843 259.384 430.793 259.268C430.742 259.151 430.717 259.026 430.717 258.899C430.717 258.772 430.742 258.647 430.793 258.53C430.843 258.414 430.916 258.309 431.008 258.222C431.1 258.135 431.209 258.067 431.328 258.023C431.447 257.98 431.574 257.961 431.7 257.968H439.149C439.387 257.981 439.611 258.085 439.775 258.258C439.939 258.431 440.031 258.661 440.031 258.899C440.031 259.138 439.939 259.367 439.775 259.54C439.611 259.714 439.387 259.818 439.149 259.831ZM424.258 259.831H416.809C416.683 259.838 416.556 259.819 416.437 259.775C416.318 259.731 416.209 259.664 416.117 259.577C416.025 259.489 415.951 259.384 415.901 259.268C415.851 259.151 415.825 259.026 415.825 258.899C415.825 258.772 415.851 258.647 415.901 258.53C415.951 258.414 416.025 258.309 416.117 258.222C416.209 258.135 416.318 258.067 416.437 258.023C416.556 257.98 416.683 257.961 416.809 257.968H424.258C424.384 257.961 424.511 257.98 424.63 258.023C424.749 258.067 424.858 258.135 424.95 258.222C425.042 258.309 425.116 258.414 425.166 258.53C425.216 258.647 425.242 258.772 425.242 258.899C425.242 259.026 425.216 259.151 425.166 259.268C425.116 259.384 425.042 259.489 424.95 259.577C424.858 259.664 424.749 259.731 424.63 259.775C424.511 259.819 424.384 259.838 424.258 259.831ZM409.367 259.831H401.915C401.677 259.818 401.453 259.714 401.289 259.54C401.125 259.367 401.034 259.138 401.034 258.899C401.034 258.661 401.125 258.431 401.289 258.258C401.453 258.085 401.677 257.981 401.915 257.968H409.367C409.605 257.981 409.829 258.085 409.993 258.258C410.157 258.431 410.248 258.661 410.248 258.899C410.248 259.138 410.157 259.367 409.993 259.54C409.829 259.714 409.605 259.818 409.367 259.831ZM394.475 259.831H387.024C386.786 259.818 386.562 259.714 386.398 259.54C386.234 259.367 386.143 259.138 386.143 258.899C386.143 258.661 386.234 258.431 386.398 258.258C386.562 258.085 386.786 257.981 387.024 257.968H394.475C394.714 257.981 394.938 258.085 395.102 258.258C395.266 258.431 395.357 258.661 395.357 258.899C395.357 259.138 395.266 259.367 395.102 259.54C394.938 259.714 394.714 259.818 394.475 259.831ZM379.584 259.831H372.136C372.009 259.838 371.883 259.819 371.763 259.775C371.644 259.731 371.536 259.664 371.443 259.577C371.351 259.489 371.278 259.384 371.228 259.268C371.178 259.151 371.152 259.026 371.152 258.899C371.152 258.772 371.178 258.647 371.228 258.53C371.278 258.414 371.351 258.309 371.443 258.222C371.536 258.135 371.644 258.067 371.763 258.023C371.883 257.98 372.009 257.961 372.136 257.968H379.584C379.822 257.981 380.047 258.085 380.21 258.258C380.374 258.431 380.466 258.661 380.466 258.899C380.466 259.138 380.374 259.367 380.21 259.54C380.047 259.714 379.822 259.818 379.584 259.831ZM364.693 259.831H357.245C357.118 259.838 356.991 259.819 356.872 259.775C356.753 259.731 356.644 259.664 356.552 259.577C356.46 259.489 356.387 259.384 356.337 259.268C356.287 259.151 356.261 259.026 356.261 258.899C356.261 258.772 356.287 258.647 356.337 258.53C356.387 258.414 356.46 258.309 356.552 258.222C356.644 258.135 356.753 258.067 356.872 258.023C356.991 257.98 357.118 257.961 357.245 257.968H364.626C364.752 257.961 364.879 257.98 364.998 258.023C365.117 258.067 365.226 258.135 365.318 258.222C365.41 258.309 365.483 258.414 365.534 258.53C365.584 258.647 365.61 258.772 365.61 258.899C365.61 259.026 365.584 259.151 365.534 259.268C365.483 259.384 365.41 259.489 365.318 259.577C365.226 259.664 365.117 259.731 364.998 259.775C364.879 259.819 364.752 259.838 364.626 259.831H364.693ZM349.802 259.831H342.353C342.115 259.818 341.891 259.714 341.727 259.54C341.563 259.367 341.472 259.138 341.472 258.899C341.472 258.661 341.563 258.431 341.727 258.258C341.891 258.085 342.115 257.981 342.353 257.968H349.734C349.861 257.961 349.988 257.98 350.107 258.023C350.226 258.067 350.335 258.135 350.427 258.222C350.519 258.309 350.592 258.414 350.642 258.53C350.693 258.647 350.718 258.772 350.718 258.899C350.718 259.026 350.693 259.151 350.642 259.268C350.592 259.384 350.519 259.489 350.427 259.577C350.335 259.664 350.226 259.731 350.107 259.775C349.988 259.819 349.861 259.838 349.734 259.831H349.802ZM334.911 259.831H327.46C327.221 259.818 326.997 259.714 326.833 259.54C326.669 259.367 326.578 259.138 326.578 258.899C326.578 258.661 326.669 258.431 326.833 258.258C326.997 258.085 327.221 257.981 327.46 257.968H334.843C335.081 257.981 335.306 258.085 335.47 258.258C335.634 258.431 335.725 258.661 335.725 258.899C335.725 259.138 335.634 259.367 335.47 259.54C335.306 259.714 335.081 259.818 334.843 259.831H334.911Z" fill="#99B9FF"/>
<path d="M497.763 314.444H468.54C462.367 314.444 457.363 319.448 457.363 325.621V332.44C457.363 338.613 462.367 343.617 468.54 343.617H497.763C503.936 343.617 508.94 338.613 508.94 332.44V325.621C508.94 319.448 503.936 314.444 497.763 314.444Z" fill="#CADDFF"/>
<path d="M497.764 344.55H468.543C465.333 344.546 462.255 343.269 459.985 340.999C457.714 338.729 456.437 335.651 456.434 332.44V325.621C456.438 322.411 457.715 319.334 459.986 317.065C462.256 314.795 465.333 313.518 468.543 313.515H497.764C500.974 313.518 504.052 314.794 506.322 317.064C508.592 319.333 509.869 322.411 509.873 325.621V332.44C509.87 335.651 508.593 338.73 506.323 341C504.053 343.27 500.974 344.547 497.764 344.55ZM468.543 315.377C465.827 315.38 463.222 316.46 461.301 318.38C459.38 320.301 458.299 322.905 458.296 325.621V332.44C458.299 335.157 459.38 337.762 461.301 339.683C463.222 341.604 465.826 342.684 468.543 342.687H497.764C500.48 342.684 503.085 341.604 505.006 339.683C506.927 337.762 508.007 335.157 508.01 332.44V325.621C508.007 322.905 506.927 320.301 505.006 318.38C503.085 316.46 500.48 315.38 497.764 315.377H468.543Z" fill="black"/>
<path d="M468.59 334.871C471.691 334.871 474.204 332.258 474.204 329.035C474.204 325.812 471.691 323.199 468.59 323.199C465.49 323.199 462.977 325.812 462.977 329.035C462.977 332.258 465.49 334.871 468.59 334.871Z" fill="black"/>
<path d="M402.112 355.876C401.937 355.876 401.767 355.827 401.619 355.734C401.471 355.642 401.352 355.51 401.276 355.354C401.199 355.197 401.168 355.022 401.185 354.849C401.203 354.676 401.269 354.511 401.375 354.373L415.266 336.473C415.341 336.376 415.434 336.295 415.541 336.234C415.647 336.174 415.764 336.135 415.885 336.119C416.007 336.104 416.13 336.112 416.248 336.145C416.366 336.177 416.476 336.232 416.573 336.307C416.669 336.382 416.75 336.475 416.811 336.581C416.872 336.687 416.911 336.805 416.926 336.926C416.942 337.047 416.933 337.17 416.901 337.288C416.869 337.406 416.813 337.517 416.739 337.613L402.836 355.528C402.749 355.637 402.639 355.724 402.514 355.785C402.388 355.845 402.251 355.876 402.112 355.876Z" fill="#99B9FF"/>
<path d="M418.525 334.735C418.321 334.735 418.124 334.667 417.963 334.542C417.866 334.467 417.785 334.374 417.724 334.267C417.664 334.161 417.624 334.044 417.609 333.923C417.594 333.801 417.602 333.678 417.635 333.56C417.667 333.442 417.722 333.332 417.797 333.235L434.422 311.809C434.495 311.707 434.588 311.62 434.695 311.555C434.802 311.49 434.922 311.447 435.046 311.429C435.17 311.411 435.297 311.418 435.418 311.45C435.54 311.482 435.653 311.538 435.753 311.615C435.852 311.692 435.934 311.788 435.995 311.898C436.056 312.008 436.095 312.129 436.108 312.253C436.121 312.378 436.109 312.505 436.072 312.625C436.036 312.745 435.975 312.856 435.894 312.952L419.269 334.376C419.182 334.489 419.069 334.581 418.939 334.643C418.81 334.706 418.668 334.737 418.525 334.735Z" fill="#99B9FF"/>
<path d="M437.651 310.076C437.476 310.076 437.305 310.028 437.156 309.936C437.008 309.844 436.888 309.712 436.812 309.555C436.735 309.398 436.704 309.223 436.722 309.049C436.74 308.875 436.807 308.71 436.914 308.573L442.028 301.984C442.179 301.789 442.402 301.662 442.647 301.63C442.892 301.599 443.139 301.667 443.334 301.818C443.53 301.969 443.657 302.192 443.688 302.437C443.719 302.682 443.652 302.929 443.5 303.125L438.387 309.716C438.3 309.828 438.188 309.919 438.06 309.982C437.933 310.044 437.793 310.076 437.651 310.076Z" fill="#99B9FF"/>
<path d="M347.026 354.053C346.851 354.052 346.681 354.003 346.533 353.911C346.385 353.818 346.266 353.686 346.19 353.53C346.113 353.374 346.082 353.199 346.1 353.025C346.117 352.852 346.183 352.687 346.289 352.549L356.008 340.027C356.16 339.832 356.382 339.705 356.628 339.675C356.873 339.644 357.12 339.712 357.314 339.864C357.509 340.015 357.636 340.238 357.667 340.483C357.697 340.728 357.629 340.975 357.477 341.17L347.767 353.693C347.68 353.806 347.567 353.897 347.439 353.96C347.31 354.022 347.169 354.054 347.026 354.053Z" fill="#99B9FF"/>
<path d="M358.643 339.077C358.44 339.076 358.242 339.008 358.081 338.883C357.887 338.731 357.76 338.508 357.73 338.262C357.699 338.017 357.767 337.769 357.918 337.574L369.314 322.888C369.387 322.786 369.48 322.699 369.588 322.634C369.695 322.569 369.814 322.526 369.938 322.508C370.063 322.49 370.189 322.497 370.311 322.529C370.432 322.561 370.546 322.617 370.645 322.694C370.744 322.771 370.827 322.867 370.888 322.977C370.949 323.087 370.987 323.208 371 323.333C371.014 323.457 371.002 323.584 370.965 323.704C370.928 323.824 370.867 323.935 370.787 324.031L359.391 338.717C359.302 338.831 359.188 338.922 359.059 338.984C358.929 339.047 358.787 339.078 358.643 339.077Z" fill="#99B9FF"/>
<path d="M373.689 319.69C373.514 319.691 373.343 319.642 373.194 319.55C373.046 319.458 372.926 319.326 372.85 319.169C372.773 319.012 372.742 318.837 372.76 318.663C372.778 318.489 372.845 318.324 372.953 318.187L384.969 302.703C385.044 302.606 385.138 302.525 385.244 302.464C385.35 302.404 385.467 302.365 385.588 302.349C385.71 302.334 385.833 302.342 385.951 302.375C386.069 302.407 386.179 302.462 386.276 302.537C386.373 302.612 386.454 302.705 386.514 302.811C386.575 302.917 386.614 303.034 386.629 303.156C386.645 303.277 386.636 303.4 386.604 303.518C386.572 303.636 386.517 303.747 386.442 303.843L374.425 319.33C374.338 319.443 374.226 319.533 374.099 319.596C373.971 319.658 373.831 319.69 373.689 319.69Z" fill="#99B9FF"/>
<path d="M393.016 390.308C392.813 390.307 392.615 390.239 392.454 390.114C392.357 390.039 392.276 389.946 392.216 389.84C392.155 389.734 392.116 389.617 392.1 389.495C392.085 389.374 392.093 389.251 392.126 389.133C392.158 389.015 392.213 388.904 392.288 388.807L409.762 366.288C409.837 366.191 409.93 366.11 410.036 366.05C410.142 365.989 410.259 365.95 410.381 365.935C410.502 365.919 410.625 365.928 410.743 365.96C410.861 365.992 410.971 366.047 411.068 366.122C411.165 366.197 411.246 366.29 411.306 366.397C411.367 366.503 411.406 366.62 411.422 366.741C411.437 366.863 411.428 366.986 411.396 367.104C411.364 367.222 411.309 367.332 411.234 367.429L393.761 389.948C393.672 390.061 393.559 390.152 393.43 390.215C393.301 390.277 393.159 390.309 393.016 390.308Z" fill="#99B9FF"/>
<path d="M412.347 365.395C412.144 365.394 411.946 365.326 411.785 365.201C411.688 365.126 411.607 365.033 411.547 364.927C411.486 364.82 411.447 364.703 411.431 364.582C411.416 364.461 411.425 364.337 411.457 364.219C411.489 364.101 411.544 363.991 411.619 363.894L426.55 344.654C426.701 344.459 426.924 344.331 427.169 344.3C427.414 344.269 427.661 344.337 427.856 344.488C428.052 344.639 428.179 344.862 428.21 345.107C428.241 345.352 428.173 345.599 428.022 345.795L413.092 365.035C413.004 365.149 412.891 365.24 412.762 365.302C412.633 365.365 412.491 365.396 412.347 365.395Z" fill="#99B9FF"/>
<path d="M368.606 285.828C393.53 285.828 413.735 265.584 413.735 240.612C413.735 215.64 393.53 195.396 368.606 195.396C343.682 195.396 323.478 215.64 323.478 240.612C323.478 265.584 343.682 285.828 368.606 285.828Z" fill="white"/>
<path d="M368.655 286.781C360.117 286.771 351.75 284.394 344.482 279.914C337.215 275.434 331.332 269.027 327.488 261.404C316.047 238.688 325.184 210.881 347.855 199.417C353.256 196.688 359.142 195.05 365.177 194.599C371.211 194.147 377.276 194.89 383.023 196.785C388.77 198.68 394.087 201.691 398.669 205.643C403.251 209.596 407.009 214.414 409.726 219.821C421.17 242.537 412.033 270.344 389.359 281.808C382.945 285.07 375.851 286.774 368.655 286.781ZM368.565 196.31C361.658 196.318 354.851 197.955 348.695 201.086C326.94 212.089 318.171 238.775 329.151 260.575C331.758 265.764 335.363 270.387 339.76 274.181C344.156 277.974 349.258 280.863 354.773 282.682C360.287 284.501 366.106 285.215 371.897 284.782C377.688 284.349 383.336 282.777 388.519 280.158C410.277 269.156 419.043 242.47 408.063 220.67C404.377 213.351 398.733 207.199 391.758 202.898C384.784 198.596 376.753 196.314 368.559 196.304L368.565 196.31Z" fill="black"/>
<path d="M368.606 281.47C391.128 281.47 409.386 263.178 409.386 240.612C409.386 218.047 391.128 199.754 368.606 199.754C346.085 199.754 327.827 218.047 327.827 240.612C327.827 263.178 346.085 281.47 368.606 281.47Z" fill="#99B9FF"/>
<path d="M368.606 277.896C389.159 277.896 405.82 261.204 405.82 240.612C405.82 220.021 389.159 203.328 368.606 203.328C348.054 203.328 331.393 220.021 331.393 240.612C331.393 261.204 348.054 277.896 368.606 277.896Z" fill="white"/>
<path d="M368.645 278.846C361.575 278.838 354.645 276.87 348.627 273.16C342.608 269.45 337.736 264.143 334.553 257.83C325.079 239.005 332.645 215.989 351.411 206.495C355.883 204.234 360.758 202.878 365.756 202.503C370.754 202.129 375.776 202.744 380.536 204.314C385.295 205.884 389.699 208.377 393.493 211.65C397.288 214.924 400.4 218.914 402.65 223.392C412.125 242.217 404.558 265.233 385.792 274.727C380.48 277.429 374.605 278.841 368.645 278.846ZM368.572 204.239C362.908 204.246 357.325 205.588 352.276 208.155C334.415 217.188 327.217 239.095 336.233 256.99C338.373 261.249 341.332 265.045 344.941 268.159C348.55 271.273 352.738 273.644 357.265 275.138C361.791 276.631 366.568 277.217 371.322 276.862C376.075 276.506 380.712 275.217 384.966 273.067C402.827 264.034 410.026 242.127 401.01 224.232C397.983 218.227 393.35 213.179 387.626 209.65C381.902 206.12 375.311 204.247 368.586 204.239H368.572Z" fill="black"/>
<path d="M382.919 235.021C381.102 234.137 379.093 233.943 376.892 234.44C378.204 232.825 378.953 231.131 379.14 229.357C379.33 227.593 378.976 225.813 378.126 224.255C376.44 221.061 374.113 219.213 371.144 218.711C368.709 218.301 365.905 218.786 362.732 220.167L360.032 215.076L357.18 216.587L359.841 221.605L356.039 223.62L353.378 218.605L350.527 220.116L353.185 225.134L344.475 229.793L347.003 234.569L350.99 232.453L364.853 258.583L360.787 260.741L363.316 265.492L372.11 260.828L374.965 266.217L377.817 264.703L374.914 259.227L378.716 257.209L381.621 262.688L384.473 261.174L381.551 255.664C384.849 253.695 387.033 251.402 388.103 248.783C389.294 245.854 389.004 242.717 387.232 239.374C386.175 237.356 384.738 235.906 382.919 235.021ZM372.47 226.741C373.397 228.485 373.521 230.149 372.841 231.731C372.161 233.314 370.77 234.663 368.669 235.777L362.041 239.292L356.244 228.36L362.819 224.873C365.134 223.644 367.066 223.167 368.615 223.443C370.164 223.718 371.449 224.818 372.47 226.741ZM382.77 248.227C382.133 249.913 380.755 251.317 378.634 252.441L371.124 256.423L364.662 244.262L372.734 239.983C376.915 237.88 380.078 238.85 382.222 242.894C383.228 244.765 383.411 246.543 382.77 248.227Z" fill="#4A33FB"/>
<path d="M485.486 227.51C503.421 221.345 512.973 201.836 506.82 183.936C500.667 166.036 481.139 156.523 463.204 162.688C445.269 168.853 435.717 188.362 441.87 206.262C448.023 224.162 467.551 233.675 485.486 227.51Z" fill="white"/>
<path d="M474.297 230.287C467.371 230.296 460.596 228.26 454.823 224.434C449.05 220.608 444.535 215.162 441.844 208.78C439.154 202.398 438.407 195.364 439.699 188.559C440.991 181.755 444.263 175.483 449.105 170.531C462.682 156.621 485.052 156.32 498.968 169.86C503.984 174.755 507.425 181.035 508.851 187.897C510.277 194.759 509.624 201.89 506.975 208.379C504.326 214.867 499.801 220.418 493.98 224.321C488.158 228.224 481.305 230.301 474.297 230.287ZM474.389 161.76C467.751 161.742 461.259 163.706 455.744 167.401C450.228 171.095 445.941 176.351 443.431 182.496C440.92 188.642 440.301 195.396 441.653 201.896C443.004 208.395 446.264 214.343 451.016 218.978C464.199 231.804 485.386 231.518 498.249 218.34C502.837 213.651 505.937 207.711 507.161 201.266C508.386 194.821 507.679 188.158 505.131 182.113C502.582 176.068 498.305 170.911 492.836 167.288C487.367 163.665 480.95 161.738 474.389 161.748V161.76Z" fill="black"/>
<path d="M484.409 224.368C500.617 218.8 509.25 201.172 503.693 184.995C498.135 168.819 480.491 160.219 464.284 165.787C448.076 171.355 439.443 188.982 445 205.159C450.558 221.336 468.202 229.936 484.409 224.368Z" fill="#99B9FF"/>
<path d="M484.409 225.811C499.265 220.806 507.26 204.729 502.265 189.9C497.27 175.072 481.177 167.108 466.321 172.112C451.464 177.117 443.47 193.194 448.465 208.023C453.46 222.851 469.552 230.815 484.409 225.811Z" fill="white"/>
<path d="M474.305 224.277C468.561 224.286 462.943 222.599 458.154 219.427C453.365 216.255 449.62 211.739 447.388 206.446C445.156 201.154 444.537 195.32 445.608 189.677C446.68 184.033 449.394 178.832 453.41 174.726C464.668 163.189 483.217 162.925 494.757 174.164C497.507 176.839 499.703 180.031 501.218 183.557C502.732 187.082 503.537 190.872 503.584 194.709C503.632 198.546 502.922 202.354 501.495 205.916C500.068 209.478 497.952 212.723 495.268 215.466C492.54 218.261 489.28 220.481 485.679 221.994C482.078 223.507 478.211 224.284 474.305 224.277ZM474.381 167.769C468.936 167.751 463.609 169.36 459.084 172.389C454.559 175.418 451.042 179.729 448.983 184.771C446.925 189.812 446.419 195.353 447.531 200.684C448.642 206.015 451.32 210.892 455.222 214.69C466.025 225.204 483.395 224.971 493.939 214.168C497.699 210.324 500.24 205.455 501.244 200.172C502.247 194.889 501.668 189.428 499.578 184.473C497.489 179.519 493.984 175.291 489.501 172.321C485.018 169.352 479.758 167.772 474.381 167.78V167.769Z" fill="black"/>
<path d="M481.888 203.992C482.067 202.421 481.688 200.838 480.818 199.519C482.156 200.054 483.622 200.182 485.032 199.887C486.346 199.587 487.537 198.893 488.446 197.897C490.319 195.891 491.068 193.764 490.694 191.517C490.389 189.662 489.348 187.768 487.572 185.833L490.565 182.638L488.775 180.952L485.828 184.099L483.442 181.865L486.387 178.719L484.597 177.033L481.658 180.205L476.168 175.105L473.358 178.101L475.859 180.441L460.504 196.849L457.95 194.464L455.16 197.445L460.678 202.612L457.515 205.984L459.304 207.669L462.521 204.23L464.91 206.478L461.693 209.917L463.482 211.603L466.719 208.144C468.946 210.03 471.132 211.033 473.277 211.153C475.676 211.284 477.857 210.302 479.82 208.206C480.951 207.064 481.677 205.584 481.888 203.992ZM485.26 194.439C484.235 195.534 483.07 196.034 481.765 195.936C480.459 195.839 479.148 195.172 477.831 193.936L473.67 190.039L480.101 183.189L484.229 187.049C485.684 188.411 486.504 189.682 486.687 190.862C486.871 192.042 486.395 193.236 485.26 194.444V194.439ZM472.366 207.138C471.001 207.095 469.652 206.452 468.321 205.208L463.609 200.797L470.751 193.163L475.808 197.906C478.35 200.39 478.433 202.9 476.058 205.439C474.966 206.617 473.736 207.185 472.366 207.144V207.138Z" fill="#4A33FB"/>
<path d="M185.167 74.8426C184.981 74.8418 184.8 74.7857 184.647 74.6813C184.493 74.577 184.374 74.4293 184.305 74.257C184.236 74.0848 184.22 73.8958 184.259 73.7143C184.298 73.5329 184.39 73.3671 184.524 73.2383C184.684 73.0866 200.853 57.847 232.13 47.2968C232.247 47.2548 232.37 47.2365 232.494 47.2429C232.617 47.2494 232.738 47.2803 232.85 47.3341C232.961 47.3878 233.061 47.4632 233.143 47.5559C233.224 47.6486 233.287 47.7567 233.327 47.8738C233.366 47.991 233.382 48.1149 233.373 48.2382C233.364 48.3616 233.331 48.4819 233.275 48.5922C233.219 48.7025 233.142 48.8006 233.048 48.8806C232.953 48.9607 232.844 49.0211 232.726 49.0584C201.837 59.4822 185.968 74.4352 185.805 74.5841C185.633 74.7489 185.405 74.8415 185.167 74.8426Z" fill="black"/>
<path d="M147.368 73.7018C147.172 73.7002 146.981 73.6365 146.824 73.5198C146.666 73.4032 146.549 73.2397 146.49 73.0526C146.43 72.8656 146.432 72.6646 146.494 72.4784C146.556 72.2922 146.675 72.1304 146.834 72.0161C146.981 71.9149 161.796 61.6428 186.394 50.7919C209.091 40.7811 245.021 28.2023 287.303 25.1201C287.425 25.1113 287.548 25.1265 287.664 25.165C287.78 25.2035 287.887 25.2645 287.979 25.3444C288.072 25.4244 288.148 25.5218 288.203 25.6311C288.257 25.7403 288.29 25.8593 288.299 25.9813C288.308 26.1032 288.293 26.2257 288.254 26.3418C288.216 26.4578 288.155 26.5652 288.075 26.6576C287.995 26.7501 287.897 26.826 287.788 26.8808C287.679 26.9357 287.56 26.9685 287.438 26.9773C207.028 32.8298 148.484 73.1287 147.899 73.5361C147.743 73.6444 147.558 73.7022 147.368 73.7018Z" fill="black"/>
<path d="M39.9447 342.041C39.7669 342.04 39.593 341.988 39.4437 341.892C39.2944 341.795 39.1758 341.658 39.1018 341.496C19.3977 298.227 18.4621 257.864 21.1481 231.622C24.0561 203.171 31.7433 184.681 31.8248 184.498C31.871 184.384 31.9395 184.28 32.0262 184.192C32.1129 184.105 32.2162 184.035 32.3301 183.988C32.4439 183.94 32.566 183.916 32.6893 183.917C32.8126 183.917 32.9346 183.942 33.0482 183.989C33.1618 184.037 33.2647 184.107 33.3511 184.195C33.4374 184.283 33.5053 184.388 33.551 184.502C33.5966 184.617 33.619 184.739 33.6169 184.862C33.6148 184.986 33.5882 185.107 33.5387 185.22C33.4628 185.403 25.8684 203.688 22.9941 231.883C20.3446 257.881 21.283 297.868 40.8017 340.726C40.9029 340.951 40.9113 341.207 40.825 341.438C40.7387 341.669 40.5647 341.856 40.3409 341.96C40.2162 342.015 40.0811 342.043 39.9447 342.041Z" fill="black"/>
<path d="M75.5112 350.95C75.3569 350.951 75.2049 350.913 75.069 350.84C74.9331 350.767 74.8176 350.661 74.7329 350.532C72.5639 347.236 70.4594 343.865 68.4814 340.513C68.4112 340.407 68.3632 340.288 68.3404 340.164C68.3176 340.039 68.3204 339.911 68.3488 339.787C68.3771 339.664 68.4302 339.547 68.505 339.445C68.5799 339.343 68.6747 339.257 68.7839 339.192C68.893 339.128 69.0142 339.087 69.1399 339.071C69.2656 339.054 69.3933 339.064 69.5151 339.099C69.6369 339.134 69.7504 339.193 69.8485 339.274C69.9466 339.354 70.0273 339.453 70.0858 339.566C72.0525 342.892 74.1373 346.236 76.2895 349.509C76.3809 349.65 76.4327 349.812 76.4395 349.98C76.4464 350.147 76.4079 350.313 76.3283 350.461C76.2487 350.608 76.1307 350.732 75.9869 350.818C75.8432 350.904 75.6788 350.95 75.5112 350.95Z" fill="black"/>
<path d="M59.3363 322.236C59.1596 322.237 58.9863 322.187 58.837 322.092C58.6876 321.998 58.5684 321.862 58.4934 321.702C49.3677 302.344 43.3831 282.367 40.7055 262.348C40.6893 262.227 40.6971 262.104 40.7285 261.986C40.7598 261.867 40.8142 261.757 40.8884 261.659C40.9627 261.562 41.0553 261.481 41.1611 261.419C41.2668 261.358 41.3836 261.318 41.5049 261.302C41.6261 261.285 41.7493 261.293 41.8675 261.325C41.9857 261.356 42.0965 261.41 42.1937 261.485C42.2909 261.559 42.3725 261.651 42.4339 261.757C42.4953 261.863 42.5352 261.98 42.5515 262.101C45.2038 281.937 51.1321 301.717 60.1764 320.907C60.2287 321.018 60.2587 321.137 60.2647 321.259C60.2707 321.382 60.2526 321.504 60.2113 321.619C60.1701 321.734 60.1066 321.84 60.0244 321.93C59.9423 322.021 59.8431 322.094 59.7325 322.146C59.6089 322.205 59.4735 322.236 59.3363 322.236Z" fill="black"/>
<path d="M40.2732 248.499C40.0346 248.499 39.805 248.408 39.6319 248.244C39.4588 248.08 39.3554 247.855 39.3432 247.617C38.3008 226.918 41.4336 213.901 41.4645 213.786C41.4882 213.662 41.537 213.543 41.6079 213.438C41.6787 213.334 41.7702 213.244 41.8767 213.176C41.9832 213.107 42.1026 213.061 42.2274 213.041C42.3523 213.02 42.4801 213.025 42.603 213.055C42.726 213.085 42.8415 213.14 42.9425 213.216C43.0436 213.292 43.1281 213.388 43.1909 213.498C43.2536 213.608 43.2933 213.73 43.3076 213.855C43.3219 213.981 43.3104 214.109 43.2739 214.23C43.243 214.356 40.1833 227.123 41.2032 247.521C41.2096 247.644 41.1919 247.766 41.151 247.881C41.1101 247.996 41.0469 248.102 40.9649 248.193C40.883 248.284 40.7839 248.358 40.6734 248.41C40.5629 248.463 40.4431 248.493 40.321 248.499H40.2732Z" fill="black"/>
<path d="M205.598 97.5477C204.613 97.5494 203.65 97.2588 202.83 96.7128C202.01 96.1667 201.371 95.3897 200.993 94.4802C200.615 93.5706 200.515 92.5692 200.706 91.6029C200.897 90.6366 201.371 89.7487 202.067 89.0516C202.763 88.3544 203.65 87.8794 204.616 87.6866C205.582 87.4938 206.583 87.5919 207.493 87.9685C208.404 88.3451 209.182 88.9832 209.729 89.8021C210.277 90.6211 210.569 91.584 210.569 92.569C210.568 93.8878 210.044 95.1524 209.113 96.0857C208.181 97.019 206.917 97.5448 205.598 97.5477ZM205.598 89.4531C204.98 89.4476 204.375 89.6258 203.858 89.9652C203.341 90.3046 202.937 90.7899 202.697 91.3594C202.457 91.9289 202.391 92.557 202.508 93.1639C202.626 93.7708 202.921 94.3291 203.356 94.768C203.791 95.2068 204.347 95.5064 204.953 95.6288C205.559 95.7511 206.188 95.6906 206.759 95.455C207.331 95.2193 207.819 94.8192 208.163 94.3054C208.506 93.7915 208.69 93.1872 208.689 92.569C208.689 91.747 208.364 90.9583 207.785 90.3747C207.207 89.791 206.42 89.4598 205.598 89.4531Z" fill="black"/>
<path d="M114.038 21.8076C113.915 21.8068 113.793 21.7816 113.68 21.7334C113.566 21.6851 113.464 21.6149 113.378 21.5266L110.776 18.9305C110.689 18.844 110.621 18.7413 110.574 18.6283C110.528 18.5154 110.504 18.3943 110.504 18.2721C110.504 18.1498 110.528 18.0288 110.575 17.916C110.622 17.8031 110.691 17.7005 110.777 17.6142C110.864 17.5279 110.966 17.4594 111.079 17.4128C111.192 17.3661 111.313 17.3422 111.436 17.3423C111.558 17.3424 111.679 17.3666 111.792 17.4135C111.905 17.4604 112.007 17.5291 112.094 17.6156L114.695 20.223C114.825 20.353 114.914 20.5187 114.95 20.6991C114.986 20.8794 114.967 21.0664 114.897 21.2363C114.826 21.4062 114.707 21.5514 114.554 21.6536C114.401 21.7558 114.222 21.8104 114.038 21.8104V21.8076Z" fill="black"/>
<path d="M123.146 30.9364C123.023 30.9356 122.901 30.9104 122.788 30.8622C122.675 30.8139 122.572 30.7437 122.486 30.6554L119.884 28.0453C119.798 27.9588 119.729 27.8561 119.683 27.7431C119.636 27.6301 119.612 27.5091 119.612 27.3868C119.612 27.2646 119.637 27.1436 119.684 27.0307C119.73 26.9178 119.799 26.8153 119.886 26.729C119.972 26.6426 120.075 26.5742 120.188 26.5275C120.301 26.4808 120.422 26.4569 120.544 26.457C120.666 26.4572 120.787 26.4814 120.9 26.5283C121.013 26.5752 121.116 26.6438 121.202 26.7304L123.806 29.3405C123.935 29.4713 124.023 29.6371 124.058 29.8173C124.093 29.9975 124.074 30.1839 124.003 30.3534C123.933 30.5229 123.814 30.6678 123.661 30.77C123.509 30.8722 123.33 30.9272 123.146 30.928V30.9364Z" fill="black"/>
<path d="M111.433 30.9363C111.249 30.9362 111.069 30.8816 110.916 30.7795C110.763 30.6773 110.644 30.532 110.574 30.3621C110.503 30.1922 110.485 30.0053 110.521 29.8249C110.557 29.6446 110.645 29.4789 110.775 29.3488L113.377 26.7387C113.463 26.6521 113.566 26.5835 113.679 26.5366C113.792 26.4897 113.913 26.4655 114.035 26.4653C114.157 26.4652 114.278 26.4891 114.391 26.5358C114.504 26.5825 114.607 26.6509 114.693 26.7373C114.78 26.8236 114.848 26.9261 114.895 27.039C114.942 27.1519 114.966 27.2729 114.967 27.3951C114.967 27.5174 114.943 27.6384 114.896 27.7514C114.849 27.8644 114.781 27.9671 114.695 28.0536L112.093 30.6637C112.006 30.7504 111.903 30.8192 111.79 30.8659C111.677 30.9127 111.555 30.9366 111.433 30.9363Z" fill="black"/>
<path d="M120.545 21.8078C120.361 21.8083 120.181 21.7542 120.027 21.6522C119.874 21.5502 119.754 21.405 119.684 21.235C119.613 21.065 119.594 20.8778 119.63 20.6972C119.666 20.5165 119.754 20.3506 119.885 20.2204L122.486 17.613C122.571 17.5195 122.674 17.4442 122.789 17.3916C122.903 17.339 123.027 17.3102 123.154 17.3069C123.28 17.3037 123.405 17.3261 123.522 17.3728C123.64 17.4194 123.746 17.4894 123.836 17.5784C123.925 17.6675 123.995 17.7737 124.043 17.8908C124.09 18.0078 124.113 18.1332 124.11 18.2594C124.107 18.3855 124.079 18.5098 124.027 18.6247C123.975 18.7397 123.9 18.8428 123.807 18.9279L121.202 21.5353C121.116 21.622 121.014 21.6908 120.901 21.7376C120.788 21.7844 120.667 21.8083 120.545 21.8078Z" fill="black"/>
<path d="M331.109 26.3709C330.985 26.3702 330.864 26.3449 330.75 26.2967C330.637 26.2485 330.534 26.1782 330.448 26.09L328.246 23.8788C328.159 23.7922 328.091 23.6896 328.044 23.5766C327.997 23.4636 327.974 23.3425 327.974 23.2203C327.974 23.0981 327.998 22.9771 328.045 22.8642C328.092 22.7513 328.16 22.6488 328.247 22.5624C328.333 22.4761 328.436 22.4077 328.549 22.361C328.662 22.3143 328.783 22.2904 328.905 22.2905C329.028 22.2907 329.149 22.3149 329.262 22.3618C329.374 22.4087 329.477 22.4773 329.563 22.5638L331.769 24.775C331.898 24.9058 331.985 25.0716 332.02 25.2518C332.055 25.432 332.036 25.6185 331.966 25.7879C331.895 25.9574 331.776 26.1023 331.624 26.2045C331.471 26.3067 331.292 26.3617 331.109 26.3625V26.3709Z" fill="black"/>
<path d="M338.827 34.103C338.704 34.1022 338.582 34.077 338.469 34.0287C338.355 33.9805 338.253 33.9102 338.167 33.822L335.961 31.6136C335.789 31.438 335.693 31.2014 335.694 30.9555C335.696 30.7095 335.794 30.4741 335.968 30.3003C336.142 30.1266 336.378 30.0287 336.624 30.0278C336.87 30.027 337.106 30.1233 337.282 30.2959L339.484 32.5071C339.614 32.6371 339.703 32.8028 339.739 32.9832C339.775 33.1636 339.756 33.3505 339.686 33.5204C339.615 33.6903 339.496 33.8355 339.343 33.9377C339.191 34.0399 339.011 34.0945 338.827 34.0945V34.103Z" fill="black"/>
<path d="M328.903 34.1028C328.719 34.1028 328.54 34.0482 328.387 33.946C328.234 33.8438 328.115 33.6986 328.044 33.5287C327.974 33.3588 327.956 33.1719 327.991 32.9915C328.027 32.8111 328.116 32.6454 328.246 32.5154L330.449 30.3042C330.624 30.1316 330.86 30.0353 331.106 30.0361C331.352 30.037 331.588 30.1349 331.762 30.3086C331.936 30.4824 332.034 30.7178 332.036 30.9638C332.037 31.2097 331.941 31.4463 331.769 31.6219L329.564 33.8303C329.477 33.917 329.374 33.9857 329.261 34.0325C329.147 34.0793 329.026 34.1032 328.903 34.1028Z" fill="black"/>
<path d="M336.622 26.3703C336.438 26.3695 336.259 26.3145 336.107 26.2123C335.954 26.1101 335.835 25.9652 335.765 25.7957C335.694 25.6263 335.675 25.4398 335.71 25.2596C335.745 25.0794 335.833 24.9136 335.962 24.7829L338.167 22.5717C338.254 22.4851 338.356 22.4165 338.469 22.3696C338.582 22.3227 338.703 22.2985 338.825 22.2983C338.947 22.2982 339.068 22.3222 339.181 22.3688C339.294 22.4155 339.397 22.4839 339.484 22.5703C339.57 22.6566 339.639 22.7591 339.686 22.872C339.733 22.9849 339.757 23.1059 339.757 23.2281C339.757 23.3504 339.733 23.4714 339.686 23.5844C339.64 23.6974 339.571 23.8001 339.485 23.8866L337.282 26.0978C337.196 26.1845 337.093 26.2532 336.979 26.3C336.866 26.3467 336.745 26.3706 336.622 26.3703Z" fill="black"/>
<path d="M380.058 500.604C379.245 500.606 378.449 500.366 377.772 499.915C377.095 499.464 376.567 498.823 376.255 498.072C375.942 497.32 375.86 496.494 376.018 495.696C376.175 494.898 376.567 494.164 377.141 493.589C377.716 493.013 378.449 492.621 379.247 492.462C380.044 492.303 380.871 492.384 381.623 492.696C382.375 493.007 383.017 493.534 383.469 494.211C383.92 494.887 384.161 495.683 384.161 496.496C384.16 497.584 383.728 498.628 382.959 499.398C382.19 500.168 381.147 500.602 380.058 500.604ZM380.058 494.248C379.614 494.248 379.179 494.38 378.81 494.627C378.44 494.874 378.152 495.225 377.982 495.636C377.812 496.047 377.767 496.499 377.854 496.935C377.941 497.371 378.155 497.771 378.469 498.086C378.783 498.4 379.184 498.614 379.62 498.701C380.056 498.787 380.508 498.743 380.919 498.573C381.329 498.403 381.68 498.115 381.927 497.745C382.174 497.375 382.306 496.941 382.306 496.496C382.306 495.9 382.069 495.328 381.648 494.907C381.226 494.485 380.655 494.248 380.058 494.248Z" fill="black"/>
<path d="M407.821 473.14C407.698 473.139 407.576 473.113 407.463 473.065C407.349 473.017 407.247 472.947 407.161 472.859L404.573 470.268C404.412 470.091 404.325 469.858 404.33 469.618C404.336 469.379 404.434 469.15 404.603 468.981C404.773 468.811 405.001 468.713 405.241 468.708C405.481 468.702 405.713 468.789 405.891 468.95L408.478 471.544C408.608 471.674 408.696 471.84 408.732 472.02C408.767 472.201 408.749 472.388 408.679 472.558C408.608 472.728 408.49 472.873 408.337 472.975C408.184 473.078 408.005 473.133 407.821 473.134V473.14Z" fill="black"/>
<path d="M416.885 482.212C416.762 482.211 416.64 482.186 416.527 482.138C416.415 482.09 416.312 482.019 416.227 481.931L413.639 479.34C413.478 479.163 413.391 478.93 413.397 478.691C413.402 478.451 413.5 478.223 413.67 478.053C413.839 477.883 414.068 477.786 414.307 477.78C414.547 477.774 414.78 477.861 414.957 478.023L417.545 480.616C417.675 480.747 417.763 480.913 417.798 481.093C417.834 481.274 417.815 481.461 417.745 481.631C417.674 481.801 417.555 481.947 417.402 482.049C417.249 482.151 417.069 482.206 416.885 482.206V482.212Z" fill="black"/>
<path d="M405.232 482.212C405.048 482.211 404.868 482.157 404.715 482.054C404.562 481.952 404.443 481.807 404.372 481.637C404.302 481.467 404.283 481.279 404.318 481.099C404.354 480.918 404.442 480.752 404.572 480.621L407.16 478.028C407.245 477.935 407.348 477.86 407.462 477.807C407.577 477.755 407.701 477.726 407.828 477.723C407.954 477.72 408.079 477.743 408.196 477.79C408.313 477.837 408.42 477.907 408.509 477.996C408.598 478.086 408.668 478.192 408.715 478.309C408.762 478.426 408.785 478.552 408.782 478.678C408.779 478.804 408.75 478.928 408.698 479.043C408.646 479.158 408.571 479.261 408.477 479.346L405.89 481.936C405.804 482.024 405.701 482.093 405.589 482.14C405.476 482.187 405.355 482.212 405.232 482.212Z" fill="black"/>
<path d="M414.289 473.139C414.105 473.139 413.925 473.084 413.772 472.982C413.619 472.88 413.499 472.734 413.429 472.564C413.358 472.394 413.339 472.207 413.375 472.026C413.411 471.846 413.499 471.68 413.629 471.549L416.216 468.956C416.394 468.794 416.626 468.708 416.866 468.713C417.106 468.719 417.334 468.817 417.504 468.986C417.673 469.156 417.771 469.384 417.777 469.624C417.782 469.863 417.695 470.096 417.534 470.274L414.946 472.864C414.86 472.951 414.758 473.02 414.645 473.067C414.532 473.115 414.411 473.139 414.289 473.139Z" fill="black"/>
<path d="M195.082 427.637C193.286 427.633 191.566 426.917 190.297 425.646C189.029 424.375 188.316 422.653 188.316 420.857C188.329 420.619 188.433 420.395 188.607 420.231C188.78 420.067 189.009 419.976 189.248 419.976C189.486 419.976 189.716 420.067 189.889 420.231C190.062 420.395 190.166 420.619 190.179 420.857C190.181 421.827 190.47 422.775 191.01 423.581C191.55 424.387 192.317 425.014 193.214 425.384C194.111 425.754 195.097 425.85 196.048 425.659C196.999 425.469 197.873 425.001 198.558 424.314C199.243 423.627 199.709 422.753 199.897 421.801C200.085 420.85 199.987 419.864 199.615 418.968C199.244 418.072 198.614 417.306 197.807 416.768C197 416.23 196.052 415.943 195.082 415.943C194.844 415.93 194.62 415.826 194.456 415.653C194.292 415.48 194.2 415.25 194.2 415.012C194.2 414.773 194.292 414.544 194.456 414.371C194.62 414.197 194.844 414.094 195.082 414.081C196.856 414.117 198.545 414.847 199.787 416.114C201.028 417.381 201.724 419.085 201.724 420.859C201.724 422.633 201.028 424.337 199.787 425.604C198.545 426.871 196.856 427.601 195.082 427.637Z" fill="black"/>
<path d="M155.893 114.968C158.793 114.968 161.144 112.612 161.144 109.705C161.144 106.799 158.793 104.443 155.893 104.443C152.993 104.443 150.642 106.799 150.642 109.705C150.642 112.612 152.993 114.968 155.893 114.968Z" fill="#99B9FF"/>
<path d="M487.179 471.052C490.079 471.052 492.43 468.696 492.43 465.789C492.43 462.883 490.079 460.527 487.179 460.527C484.279 460.527 481.928 462.883 481.928 465.789C481.928 468.696 484.279 471.052 487.179 471.052Z" fill="#99B9FF"/>
<path d="M301.539 243.141C301.363 243.141 301.19 243.091 301.04 242.997C300.891 242.902 300.772 242.767 300.697 242.607L290.582 221.288C290.476 221.064 290.463 220.808 290.547 220.575C290.63 220.342 290.802 220.152 291.026 220.046C291.249 219.94 291.506 219.927 291.739 220.01C291.972 220.094 292.162 220.266 292.268 220.49L302.382 241.809C302.488 242.033 302.501 242.289 302.418 242.522C302.334 242.755 302.162 242.945 301.938 243.051C301.814 243.11 301.677 243.14 301.539 243.141Z" fill="black"/>
<path d="M295.209 246.794C295.04 246.794 294.874 246.749 294.729 246.662L250.834 220.212C250.722 220.152 250.623 220.071 250.544 219.972C250.464 219.873 250.406 219.759 250.372 219.637C250.338 219.515 250.329 219.387 250.346 219.261C250.364 219.136 250.406 219.015 250.472 218.906C250.537 218.798 250.624 218.703 250.727 218.63C250.83 218.556 250.947 218.503 251.071 218.476C251.194 218.449 251.323 218.447 251.447 218.471C251.571 218.495 251.69 218.544 251.795 218.616L295.698 245.063C295.873 245.168 296.009 245.327 296.084 245.516C296.16 245.705 296.171 245.914 296.117 246.11C296.062 246.306 295.945 246.479 295.782 246.602C295.62 246.725 295.422 246.791 295.218 246.791L295.209 246.794Z" fill="black"/>
<path d="M292.515 254.347C292.475 254.349 292.435 254.349 292.395 254.347L273.137 251.798C272.892 251.766 272.67 251.638 272.52 251.442C272.369 251.247 272.303 250.999 272.335 250.754C272.367 250.51 272.495 250.288 272.691 250.137C272.887 249.987 273.134 249.92 273.379 249.952L292.636 252.498C292.875 252.524 293.094 252.64 293.248 252.824C293.402 253.007 293.48 253.244 293.464 253.483C293.449 253.722 293.341 253.946 293.164 254.108C292.988 254.27 292.755 254.358 292.515 254.352V254.347Z" fill="black"/>
<path d="M435.864 43.2538C435.469 43.2542 435.076 43.2013 434.695 43.0964C433.845 42.8672 433.083 42.3908 432.505 41.7276C431.926 41.0644 431.558 40.2443 431.446 39.3714C431.334 38.4985 431.485 37.6121 431.877 36.8247C432.27 36.0372 432.888 35.3842 433.653 34.9484C434.158 34.6559 434.716 34.4669 435.295 34.3927C435.874 34.3184 436.462 34.3602 437.024 34.5158C438.063 34.7971 438.964 35.4459 439.56 36.3416C440.157 37.2373 440.408 38.3191 440.267 39.3858C440.125 40.4526 439.602 41.4319 438.793 42.1417C437.984 42.8516 436.946 43.2437 435.87 43.2454L435.864 43.2538ZM435.864 36.2296C435.299 36.2322 434.751 36.4199 434.303 36.764C433.856 37.1081 433.533 37.5896 433.386 38.1346C433.208 38.7944 433.298 39.4979 433.637 40.0913C433.976 40.6847 434.536 41.1197 435.195 41.3011C435.85 41.4635 436.543 41.3628 437.124 41.0207C437.706 40.6785 438.13 40.1221 438.306 39.4707C438.482 38.8194 438.396 38.125 438.066 37.5364C437.736 36.9478 437.189 36.512 436.541 36.3224C436.317 36.2599 436.085 36.2287 435.853 36.2296H435.864Z" fill="black"/>
<path d="M490.778 88.4667C490.602 88.4678 490.43 88.4189 490.281 88.326C490.132 88.233 490.012 88.0996 489.935 87.9413C478.006 63.2164 453.104 49.9688 452.848 49.8368C452.629 49.7224 452.465 49.5258 452.391 49.2903C452.317 49.0548 452.34 48.7996 452.455 48.5809C452.569 48.3622 452.766 48.1978 453.001 48.1241C453.237 48.0503 453.492 48.0731 453.711 48.1875C453.966 48.3196 479.413 61.8593 491.607 87.1293C491.714 87.3519 491.728 87.6076 491.647 87.8407C491.566 88.0739 491.396 88.2655 491.174 88.374C491.051 88.433 490.915 88.4646 490.778 88.4667Z" fill="black"/>
<path d="M409.86 34.7294C408.485 34.7324 407.156 34.2349 406.12 33.3299C405.085 32.4248 404.414 31.174 404.233 29.8107C404.052 28.4474 404.373 27.0649 405.136 25.921C405.9 24.7771 407.053 23.95 408.382 23.594C409.71 23.238 411.122 23.3774 412.356 23.9862C413.589 24.5951 414.558 25.6317 415.083 26.9028C415.608 28.1739 415.653 29.5926 415.209 30.8941C414.765 32.1957 413.862 33.2913 412.67 33.9764C411.815 34.4688 410.846 34.7284 409.86 34.7294ZM409.86 25.2665C409.027 25.2684 408.218 25.5446 407.558 26.0525C406.898 26.5603 406.423 27.2715 406.208 28.0761C405.944 29.0474 406.077 30.0835 406.576 30.9573C407.075 31.8311 407.901 32.4712 408.871 32.7374C409.352 32.8683 409.853 32.9031 410.348 32.8398C410.842 32.7764 411.318 32.6162 411.75 32.3682C412.182 32.1202 412.561 31.7894 412.865 31.3947C413.169 31 413.392 30.5492 413.521 30.0682C413.676 29.5057 413.699 28.9151 413.588 28.3423C413.477 27.7695 413.236 27.2301 412.882 26.7659C412.529 26.3018 412.073 25.9255 411.55 25.6664C411.027 25.4073 410.452 25.2724 409.869 25.2721L409.86 25.2665Z" fill="black"/>
<path d="M440.7 66.1162H325.591C320.592 66.1162 316.364 70.0778 316.145 74.9666L313.107 143.171C312.888 148.057 316.76 152.019 321.764 152.019H436.87C441.871 152.019 446.1 148.057 446.316 143.171L449.356 74.9666C449.575 70.0666 445.698 66.1162 440.7 66.1162Z" fill="#4A33FB"/>
<path d="M436.87 152.951H321.764C320.455 152.964 319.156 152.71 317.948 152.203C316.74 151.696 315.649 150.948 314.74 150.004C313.867 149.093 313.19 148.014 312.749 146.832C312.309 145.651 312.114 144.391 312.178 143.131L315.215 74.9243C315.457 69.555 320.109 65.186 325.591 65.186H440.7C442.01 65.1729 443.308 65.4276 444.516 65.9344C445.724 66.4412 446.816 67.1895 447.724 68.1334C448.597 69.0438 449.274 70.1231 449.715 71.3049C450.156 72.4867 450.35 73.7461 450.286 75.0058L447.249 143.213C447.008 148.582 442.352 152.951 436.87 152.951ZM325.591 67.0488C321.096 67.0488 317.272 70.6199 317.075 75.0058L314.052 143.213C314 144.221 314.155 145.229 314.507 146.175C314.859 147.121 315.402 147.985 316.1 148.714C316.835 149.476 317.717 150.08 318.694 150.488C319.67 150.896 320.72 151.101 321.778 151.088H436.884C441.38 151.088 445.207 147.517 445.403 143.129L448.44 74.9243C448.491 73.9153 448.336 72.9065 447.982 71.96C447.629 71.0134 447.086 70.1491 446.387 69.4202C445.651 68.6592 444.769 68.0563 443.792 67.6485C442.816 67.2408 441.766 67.0367 440.708 67.0488H325.591Z" fill="#5479F7"/>
<path d="M447.994 105.575H314.782L315.51 89.228H448.721L447.994 105.575Z" fill="black"/>
<path d="M433.319 123.515H407.894C407.417 123.525 406.943 123.438 406.502 123.258C406.06 123.078 405.66 122.809 405.326 122.468C404.993 122.127 404.733 121.722 404.562 121.277C404.391 120.831 404.314 120.356 404.334 119.879L404.475 116.735C404.538 115.749 404.975 114.824 405.697 114.149C406.418 113.473 407.37 113.098 408.358 113.099H433.791C434.267 113.089 434.741 113.177 435.182 113.357C435.623 113.538 436.023 113.806 436.357 114.147C436.69 114.488 436.95 114.893 437.12 115.338C437.291 115.783 437.368 116.259 437.348 116.735L437.207 119.879C437.145 120.867 436.708 121.793 435.985 122.469C435.262 123.145 434.308 123.519 433.319 123.515Z" fill="white"/>
</svg>
