<svg width="446" height="452" viewBox="0 0 446 452" fill="none" xmlns="http://www.w3.org/2000/svg">
<path d="M357.247 320.061C317.732 373.463 335.519 400.407 306.904 426.712C262.885 467.188 166.96 452.878 105.982 415.833C31.3076 370.469 -18.3757 274.335 6.45745 176.673C32.9055 72.6661 134.113 5.2632 233.699 5.63286C322.63 5.96361 418.341 60.3674 439.305 140.001C441.576 148.632 452.939 195.431 430.503 240.722C411.959 278.158 388.568 277.732 357.247 320.061Z" fill="#CADDFF"/>
<path d="M15.8594 421.651L17.3453 435.956L24.9356 435.866L24.8286 420.603L15.8594 421.651Z" fill="white"/>
<path d="M17.3453 436.761C17.1451 436.761 16.9522 436.686 16.8043 436.551C16.6563 436.416 16.564 436.231 16.5452 436.032L15.0568 421.727C15.0356 421.516 15.0978 421.305 15.2302 421.14C15.3625 420.975 15.5544 420.869 15.7645 420.844L24.7362 419.798C24.8485 419.784 24.9625 419.794 25.0706 419.828C25.1787 419.861 25.2784 419.918 25.3632 419.992C25.448 420.067 25.516 420.159 25.5626 420.263C25.6092 420.366 25.6334 420.478 25.6336 420.591L25.7406 435.854C25.7419 436.067 25.659 436.271 25.51 436.423C25.361 436.575 25.158 436.661 24.9453 436.664L17.3551 436.754L17.3453 436.761ZM16.7422 422.359L18.0701 435.144L24.1233 435.071L24.0309 421.508L16.7422 422.359Z" fill="black"/>
<path d="M83.9268 418.983L91.1133 434.38H98.4069L93.6693 417.777L83.9268 418.983Z" fill="white"/>
<path d="M98.407 435.185H91.111C90.9579 435.184 90.8083 435.14 90.6792 435.058C90.5501 434.976 90.4469 434.859 90.3814 434.721L83.1972 419.324C83.1433 419.209 83.1173 419.082 83.1215 418.955C83.1257 418.828 83.16 418.704 83.2214 418.593C83.2828 418.482 83.3698 418.386 83.4751 418.315C83.5803 418.244 83.701 418.199 83.8271 418.183L93.5697 416.967C93.76 416.943 93.9526 416.988 94.1126 417.094C94.2727 417.2 94.3898 417.359 94.4428 417.544L99.1803 434.147C99.2146 434.267 99.2206 434.393 99.1978 434.515C99.1751 434.638 99.1242 434.753 99.0492 434.853C98.9743 434.952 98.8773 435.033 98.7658 435.088C98.6544 435.144 98.5315 435.173 98.407 435.173V435.185ZM91.6217 433.575H97.3369L93.0809 418.662L85.1234 419.635L91.6217 433.575Z" fill="black"/>
<path d="M48.9493 441.705C46.2887 438.544 39.9509 433.553 25.1157 429.271C24.756 429.168 24.3746 429.17 24.0159 429.276C23.6572 429.382 23.336 429.587 23.0898 429.869L20.3246 433.03L16.3021 430.932C16.0566 430.803 15.7848 430.733 15.5078 430.727C15.2309 430.721 14.9563 430.78 14.7056 430.897C14.4548 431.015 14.2347 431.189 14.0623 431.406C13.89 431.623 13.7701 431.877 13.712 432.148C13.0655 435.163 12.7032 438.233 12.6298 441.316C12.6099 442.181 12.9299 443.019 13.5211 443.65C14.1122 444.281 14.9274 444.655 15.7914 444.692C22.1584 444.935 36.9644 445.443 47.4487 445.052C47.8304 445.038 48.2006 444.918 48.5175 444.705C48.8344 444.492 49.0852 444.194 49.2414 443.846C49.3977 443.498 49.4531 443.112 49.4015 442.734C49.3498 442.355 49.1932 441.999 48.9493 441.705Z" fill="white"/>
<path d="M38.4702 445.998C29.5861 445.998 20.1864 445.669 15.7504 445.492C14.6778 445.441 13.6671 444.974 12.9323 444.191C12.1974 443.408 11.796 442.37 11.813 441.297C11.8886 438.161 12.2566 435.039 12.9123 431.972C12.9972 431.581 13.1715 431.214 13.4214 430.901C13.6713 430.588 13.9902 430.337 14.3531 430.167C14.7161 429.997 15.1133 429.914 15.5139 429.923C15.9144 429.932 16.3075 430.033 16.6624 430.219L20.1207 432.023L22.4676 429.348C22.8154 428.953 23.2681 428.663 23.7733 428.514C24.2786 428.365 24.8157 428.361 25.3228 428.504C40.1191 432.77 46.6709 437.761 49.5601 441.197C49.9024 441.6 50.1233 442.092 50.1974 442.616C50.2714 443.14 50.1955 443.674 49.9784 444.157C49.763 444.649 49.4127 445.07 48.9682 445.371C48.5236 445.672 48.0029 445.841 47.4661 445.859C44.6985 445.956 41.6172 445.998 38.4702 445.998ZM15.4562 431.532C15.3091 431.532 15.1638 431.565 15.0306 431.627C14.8932 431.691 14.7726 431.786 14.6785 431.905C14.5843 432.023 14.5192 432.162 14.4882 432.31C13.8533 435.277 13.4967 438.296 13.423 441.328C13.4109 441.982 13.6542 442.614 14.1011 443.091C14.548 443.568 15.1632 443.852 15.8161 443.882C21.8012 444.125 36.8651 444.636 47.4102 444.242C47.6461 444.237 47.8757 444.165 48.0708 444.032C48.266 443.899 48.4184 443.713 48.5095 443.495C48.6074 443.287 48.6427 443.056 48.6112 442.828C48.5797 442.6 48.4826 442.387 48.3319 442.214C45.5838 438.95 39.2873 434.188 24.8777 430.034C24.6655 429.974 24.4407 429.976 24.2293 430.039C24.018 430.102 23.8288 430.223 23.6836 430.389L20.916 433.551C20.7981 433.686 20.6381 433.778 20.4616 433.812C20.2852 433.845 20.1026 433.818 19.9432 433.736L15.9207 431.637C15.7769 431.564 15.6173 431.528 15.4562 431.532Z" fill="black"/>
<path d="M46.0235 443.386H45.9967L15.2562 442.372C15.1505 442.368 15.0465 442.344 14.9501 442.3C14.8538 442.257 14.767 442.195 14.6947 442.117C14.6224 442.04 14.5661 441.949 14.5289 441.85C14.4917 441.751 14.4744 441.646 14.478 441.54C14.4875 441.327 14.5798 441.127 14.7353 440.982C14.8907 440.836 15.0969 440.757 15.3097 440.762L46.0381 441.776C46.2516 441.779 46.455 441.867 46.6037 442.02C46.7524 442.174 46.8341 442.38 46.8309 442.593C46.8277 442.807 46.7398 443.01 46.5865 443.159C46.4333 443.308 46.2272 443.389 46.0137 443.386H46.0235Z" fill="black"/>
<path d="M30.656 438.167C30.5136 438.167 30.3736 438.13 30.2502 438.059C30.1269 437.988 30.0246 437.885 29.9539 437.761C29.8832 437.638 29.8465 437.498 29.8477 437.355C29.8488 437.213 29.8878 437.073 29.9605 436.951L32.9835 431.756C33.0339 431.66 33.1032 431.575 33.1874 431.506C33.2716 431.437 33.3688 431.386 33.4732 431.356C33.5776 431.326 33.687 431.317 33.7949 431.33C33.9027 431.343 34.0068 431.378 34.1008 431.433C34.1948 431.487 34.2767 431.561 34.3417 431.648C34.4067 431.735 34.4535 431.834 34.479 431.94C34.5046 432.045 34.5086 432.155 34.4906 432.262C34.4726 432.369 34.4332 432.472 34.3746 432.563L31.354 437.77C31.2827 437.892 31.1807 437.992 31.0582 438.062C30.9356 438.132 30.7969 438.168 30.656 438.167Z" fill="black"/>
<path d="M122.021 440.38C119.36 437.218 113.023 432.225 98.1874 427.943C97.8275 427.841 97.446 427.843 97.0873 427.949C96.7287 428.055 96.4076 428.262 96.1615 428.543L93.3963 431.705L89.3738 429.606C89.1284 429.477 88.8565 429.407 88.5794 429.401C88.3023 429.395 88.0275 429.453 87.7766 429.57C87.5257 429.688 87.3055 429.862 87.1332 430.08C86.961 430.297 86.8413 430.551 86.7837 430.822C86.1376 433.839 85.7745 436.909 85.6991 439.993C85.6798 440.857 86.0001 441.694 86.5912 442.325C87.1823 442.956 87.9971 443.33 88.8607 443.366C95.2276 443.622 110.034 444.12 120.518 443.729C120.9 443.716 121.271 443.596 121.589 443.383C121.907 443.17 122.158 442.872 122.315 442.523C122.471 442.174 122.527 441.788 122.475 441.409C122.423 441.031 122.266 440.674 122.021 440.38Z" fill="white"/>
<path d="M111.544 444.67C102.66 444.67 93.2552 444.342 88.8193 444.164C87.7462 444.114 86.7349 443.648 85.9995 442.865C85.2642 442.082 84.8624 441.043 84.8794 439.969C84.9557 436.834 85.3246 433.713 85.9811 430.647C86.0653 430.255 86.2391 429.888 86.4888 429.574C86.7385 429.26 87.0574 429.009 87.4205 428.839C87.7836 428.669 88.1812 428.585 88.582 428.594C88.9829 428.603 89.3762 428.705 89.7313 428.891L93.192 430.698L95.5413 428.023C95.8884 427.627 96.3406 427.337 96.8455 427.188C97.3505 427.039 97.8874 427.036 98.394 427.179C113.193 431.445 119.742 436.435 122.634 439.872C122.976 440.275 123.196 440.768 123.27 441.291C123.343 441.815 123.267 442.349 123.05 442.831C122.835 443.323 122.485 443.744 122.041 444.045C121.597 444.346 121.076 444.516 120.54 444.534C117.767 444.629 114.688 444.67 111.544 444.67ZM88.5226 430.204C88.3761 430.206 88.2317 430.239 88.0994 430.302C87.9616 430.365 87.8405 430.46 87.7459 430.579C87.6513 430.697 87.5858 430.837 87.5546 430.985C86.9198 433.951 86.5632 436.97 86.4894 440.003C86.4786 440.656 86.7226 441.289 87.1697 441.765C87.6169 442.242 88.2321 442.526 88.8849 442.557C94.8725 442.8 109.936 443.31 120.479 442.917C120.714 442.91 120.943 442.836 121.138 442.704C121.333 442.572 121.485 442.386 121.578 442.17C121.674 441.963 121.707 441.733 121.676 441.508C121.645 441.282 121.549 441.071 121.401 440.898C118.655 437.634 112.356 432.872 97.949 428.719C97.7364 428.658 97.5111 428.66 97.2993 428.723C97.0875 428.786 96.8978 428.907 96.7524 429.074L93.9873 432.235C93.8686 432.37 93.7086 432.461 93.5325 432.494C93.3564 432.528 93.1741 432.502 93.0145 432.42L88.9895 430.319C88.8454 430.244 88.6851 430.204 88.5226 430.204Z" fill="black"/>
<path d="M119.103 442.06H119.076L88.345 441.044C88.1317 441.036 87.9301 440.944 87.7842 440.788C87.6384 440.633 87.5602 440.425 87.5668 440.212C87.5763 439.999 87.6686 439.799 87.8241 439.653C87.9795 439.508 88.1857 439.429 88.3985 439.434L119.129 440.45C119.343 440.454 119.546 440.542 119.695 440.696C119.843 440.849 119.924 441.055 119.921 441.269C119.917 441.482 119.829 441.686 119.676 441.834C119.522 441.982 119.316 442.064 119.103 442.06Z" fill="black"/>
<path d="M103.726 436.841C103.584 436.842 103.444 436.804 103.322 436.732C103.231 436.679 103.15 436.609 103.086 436.525C103.022 436.441 102.975 436.345 102.948 436.243C102.921 436.141 102.914 436.034 102.928 435.93C102.942 435.825 102.977 435.724 103.03 435.633L106.051 430.423C106.104 430.332 106.175 430.252 106.259 430.188C106.343 430.123 106.439 430.076 106.541 430.049C106.643 430.022 106.75 430.016 106.855 430.03C106.96 430.044 107.061 430.078 107.152 430.132C107.244 430.185 107.324 430.255 107.388 430.34C107.452 430.424 107.499 430.52 107.527 430.622C107.554 430.724 107.56 430.831 107.546 430.936C107.532 431.041 107.497 431.142 107.444 431.233L104.424 436.44C104.353 436.562 104.251 436.664 104.128 436.734C104.006 436.804 103.867 436.841 103.726 436.841Z" fill="black"/>
<path d="M27.5111 278.783C27.5111 278.783 19.449 289.593 16.7908 308.736C14.1326 327.878 14.9425 349.107 12.9312 358.567C10.92 368.028 6.89257 400.833 14.9741 422.845H26.8909C26.8909 422.845 43.7982 335.05 49.7517 320.884C49.7517 320.884 54.2995 333.53 56.5491 345.539C58.7987 357.548 58.4121 372.928 63.6773 386.124C68.9426 399.32 84.1791 423.577 84.1791 423.577L97.256 423.02C97.256 423.02 75.9906 331.334 73.3494 286.828C73.3445 286.833 43.0929 270.247 27.5111 278.783Z" fill="#4A33FB"/>
<path d="M48.514 328.124C48.4476 328.123 48.3816 328.115 48.317 328.099C48.111 328.047 47.934 327.915 47.8247 327.733C47.7153 327.551 47.6825 327.333 47.7333 327.127L51.4932 312.25C51.5477 312.046 51.6805 311.871 51.8629 311.764L55.9194 309.361C56.0105 309.307 56.1112 309.271 56.216 309.256C56.3207 309.241 56.4274 309.247 56.5299 309.273C56.6325 309.299 56.7288 309.345 56.8135 309.409C56.8982 309.472 56.9696 309.552 57.0236 309.643C57.0775 309.734 57.1131 309.835 57.1281 309.939C57.1431 310.044 57.1374 310.151 57.1112 310.253C57.085 310.356 57.0389 310.452 56.9754 310.537C56.912 310.622 56.8325 310.693 56.7415 310.747L52.9719 312.98L49.3044 327.516C49.2598 327.691 49.1576 327.846 49.0143 327.956C48.871 328.066 48.6948 328.125 48.514 328.124Z" fill="white"/>
<path d="M27.5673 376.18C27.3787 376.178 27.1967 376.11 27.0529 375.988C26.909 375.866 26.8124 375.698 26.7798 375.512C26.7471 375.326 26.7805 375.135 26.8742 374.971C26.9678 374.808 27.1158 374.682 27.2925 374.616C32.4848 372.736 33.9756 368.689 34.0364 368.517C34.0714 368.417 34.1257 368.325 34.1962 368.246C34.2667 368.167 34.352 368.103 34.4473 368.057C34.5426 368.011 34.646 367.985 34.7516 367.979C34.8572 367.973 34.9629 367.988 35.0627 368.023C35.1625 368.058 35.2545 368.112 35.3333 368.183C35.4121 368.253 35.4763 368.338 35.5221 368.434C35.568 368.529 35.5946 368.632 35.6005 368.738C35.6064 368.844 35.5914 368.949 35.5564 369.049C35.4883 369.249 33.7835 373.979 27.8421 376.131C27.7539 376.163 27.661 376.179 27.5673 376.18Z" fill="white"/>
<path d="M162.823 201.669C162.823 201.669 132.557 216.305 113.901 215.503C95.2452 214.7 94.7077 211.485 76.9347 212.667C59.1616 213.849 51.4278 211.186 32.6723 241.382C13.9167 271.577 10.4657 280.216 27.0179 290.316C43.57 300.416 72.1582 291.52 76.9225 295.605C83.3892 301.15 88.9268 282.122 92.2684 266.378C94.2845 256.893 101.629 249.354 111.124 247.345C123.393 244.743 142.222 235.875 164.907 209.162L162.823 201.669Z" fill="black"/>
<path d="M79.5832 202.88C79.5832 202.88 72.2532 196.102 69.561 194.524C66.8687 192.946 63.5199 186.477 72.5621 182.512C75.4805 181.228 76.069 177.67 81.7112 177.062C87.3535 176.454 92.0424 179.319 92.6552 182.877C93.2681 186.435 89.8876 189.519 87.3656 189.93C84.8437 190.341 79.5832 202.88 79.5832 202.88Z" fill="black"/>
<path d="M92.3287 194.517L93.1142 193.381L90.0061 189.402L87.8757 184.178C81.854 183.77 79.4415 185.414 79.3637 190.032C79.3126 192.994 77.7537 193.065 77.7537 193.065C77.7537 193.065 75.4628 190.601 74.2784 193.524C73.094 196.448 78.0188 198.478 78.0188 198.478L79.0573 200.667L68.8623 214.53C68.8623 214.53 85.2807 218.878 85.4534 216.288C85.4932 215.611 85.2858 214.942 84.8697 214.406C82.9776 211.828 86.397 204.86 86.397 204.86L91.8763 202.644C92.3611 202.448 92.756 202.08 92.9847 201.609C93.2133 201.139 93.2595 200.601 93.1142 200.098L92.0295 196.37C91.9388 196.058 91.9186 195.73 91.9704 195.41C92.0221 195.089 92.1445 194.784 92.3287 194.517Z" fill="white"/>
<path d="M83.0553 217.888C78.8237 217.888 71.3234 216.008 68.6555 215.303C68.5286 215.269 68.4119 215.205 68.3156 215.115C68.2192 215.026 68.1461 214.915 68.1024 214.791C68.0588 214.667 68.0461 214.534 68.0654 214.405C68.0846 214.275 68.1352 214.151 68.2128 214.046L78.1232 200.582L77.4204 199.098C75.324 198.152 72.4129 195.985 73.5292 193.223C73.9767 192.121 74.6382 191.484 75.4918 191.326C76.5011 191.141 77.4204 191.722 77.9238 192.14C78.1913 191.897 78.5221 191.294 78.544 190.022C78.5853 187.734 79.1812 186.09 80.3704 184.998C81.8466 183.643 84.2446 183.127 87.9096 183.376C88.0584 183.385 88.2017 183.435 88.3236 183.521C88.4456 183.607 88.5413 183.725 88.6003 183.862L90.6894 188.984L93.7269 192.875C93.8324 193.01 93.8921 193.175 93.8974 193.347C93.9026 193.518 93.8531 193.687 93.7561 193.828L92.9706 194.964C92.8539 195.132 92.7764 195.323 92.7435 195.525C92.7107 195.727 92.7235 195.933 92.7809 196.129L93.8656 199.857C94.0667 200.55 94.0041 201.293 93.6897 201.942C93.3753 202.592 92.8315 203.102 92.1632 203.374L87 205.482C85.784 208.053 84.4075 212.389 85.5408 213.921C86.0685 214.611 86.3277 215.468 86.2704 216.334C86.2556 216.543 86.1937 216.747 86.0892 216.928C85.9848 217.11 85.8406 217.266 85.6673 217.385C85.1566 217.74 84.2324 217.888 83.0553 217.888ZM70.2192 214.041C76.5741 215.648 83.5125 216.806 84.6556 216.118C84.6545 215.667 84.5021 215.229 84.2227 214.875C82.1044 211.988 85.3049 205.254 85.6819 204.497C85.7677 204.318 85.9179 204.177 86.1026 204.104L91.5819 201.89C91.8824 201.77 92.1274 201.543 92.2691 201.252C92.4107 200.961 92.4388 200.627 92.348 200.317L91.256 196.581C91.1316 196.156 91.1039 195.709 91.175 195.271C91.2461 194.834 91.4142 194.418 91.667 194.054L92.1072 193.42L89.3639 189.908C89.3186 189.849 89.2818 189.785 89.2545 189.716L87.3089 184.964C84.3905 184.818 82.5276 185.207 81.4599 186.194C80.6014 186.982 80.188 188.21 80.1564 190.059C80.0932 193.733 77.8703 193.877 77.7779 193.882C77.6609 193.887 77.5441 193.867 77.4357 193.822C77.3273 193.778 77.23 193.71 77.1504 193.624C76.9072 193.359 76.2336 192.834 75.7715 192.921C75.4262 192.984 75.1684 193.456 75.0127 193.838C74.1567 195.951 78.2716 197.729 78.3129 197.746C78.498 197.822 78.648 197.964 78.7337 198.145L79.7721 200.334C79.834 200.465 79.8592 200.611 79.8451 200.756C79.8309 200.901 79.778 201.039 79.6919 201.156L70.2192 214.041Z" fill="black"/>
<path d="M419.922 422.118L378.218 86.8301C377.177 78.4738 369.56 71.6982 361.194 71.6982L177.432 89.1722L174.458 74.6531L153.688 93.0779C152.878 93.643 152.136 94.3008 151.478 95.0381C149.046 97.7839 147.783 101.605 148.316 105.814L186.226 422.118C187.264 430.474 194.884 437.25 203.25 437.25H406.684C415.029 437.25 420.96 430.474 419.922 422.118Z" fill="black"/>
<path d="M386.516 71.7031H183.081C174.725 71.7031 168.793 78.4762 169.832 86.8326L211.536 422.159C212.574 430.518 220.191 437.332 228.56 437.332H431.994C440.351 437.332 446.285 430.523 445.244 422.159L403.528 86.8545C402.489 78.4981 394.872 71.7031 386.516 71.7031Z" fill="#4A33FB"/>
<path d="M266.373 297.201H236.129C229.766 297.201 223.969 292.225 223.176 286.096L222.422 280.59C221.631 274.462 226.148 269.819 232.51 269.819H262.752C269.116 269.819 274.912 274.457 275.707 280.585L276.461 286.262C277.251 292.402 272.735 297.201 266.373 297.201Z" fill="#99B9FF"/>
<path d="M271.686 338.542H241.444C235.082 338.542 229.284 333.474 228.489 327.355L227.738 321.628C226.945 315.499 231.464 310.635 237.826 310.635H268.068C274.432 310.635 280.228 315.448 281.023 321.579L281.777 327.436C282.567 333.552 278.051 338.542 271.686 338.542Z" fill="#99B9FF"/>
<path d="M277.003 379.884H246.761C240.399 379.884 234.601 374.725 233.806 368.597L233.054 362.646C232.261 356.517 236.778 351.429 243.142 351.429H273.384C279.746 351.429 285.544 356.42 286.339 362.548L287.091 368.585C287.884 374.713 283.367 379.884 277.003 379.884Z" fill="#99B9FF"/>
<path d="M330.201 297.2H299.966C293.601 297.2 287.806 292.225 287.011 286.096L286.257 280.052C285.466 273.924 289.983 268.746 296.345 268.746H326.587C332.951 268.746 338.747 273.919 339.542 280.048L340.296 285.991C341.086 292.12 336.57 297.2 330.201 297.2Z" fill="#99B9FF"/>
<path d="M335.521 339.08H305.279C298.917 339.08 293.119 333.729 292.327 327.615L291.573 321.752C290.78 315.623 295.298 310.625 301.661 310.625H331.903C338.267 310.625 344.063 315.438 344.858 321.569L345.612 327.693C346.402 333.819 341.886 339.08 335.521 339.08Z" fill="#99B9FF"/>
<path d="M340.838 379.884H310.596C304.234 379.884 298.436 374.725 297.641 368.597L296.889 362.646C296.096 356.517 300.613 351.429 306.977 351.429H337.219C343.584 351.429 349.379 356.42 350.174 362.548L350.928 368.585C351.719 374.713 347.202 379.884 340.838 379.884Z" fill="#99B9FF"/>
<path d="M394.043 297.201H363.801C357.436 297.201 351.641 292.225 350.846 286.096L350.092 280.59C349.301 274.462 353.818 269.819 360.18 269.819H390.424C396.786 269.819 402.584 274.457 403.377 280.585L404.131 286.262C404.921 292.402 400.405 297.201 394.043 297.201Z" fill="#99B9FF"/>
<path d="M399.36 339.34H369.113C362.751 339.34 356.953 333.871 356.16 327.742L355.406 321.946C354.616 315.818 359.132 310.886 365.494 310.886H395.736C402.101 310.886 407.896 315.565 408.691 321.694L409.445 327.885C410.238 334.021 405.722 339.34 399.36 339.34Z" fill="white"/>
<path d="M399.36 340.155H369.113C362.517 340.155 356.223 334.52 355.357 327.851L354.606 322.056C354.202 318.931 355.066 315.976 357.038 313.724C359.1 311.379 362.101 310.076 365.487 310.076H395.729C402.609 310.076 408.65 315.132 409.482 321.586L410.238 327.783C410.448 329.333 410.326 330.909 409.88 332.408C409.433 333.907 408.672 335.293 407.648 336.475C406.613 337.649 405.337 338.586 403.906 339.221C402.475 339.856 400.925 340.175 399.36 340.155ZM365.496 311.7C362.578 311.7 360.007 312.797 358.256 314.791C356.59 316.683 355.863 319.193 356.206 321.844L356.96 327.64C357.724 333.547 363.283 338.537 369.12 338.537H399.362C400.699 338.559 402.024 338.292 403.248 337.754C404.471 337.215 405.564 336.419 406.451 335.42C407.323 334.408 407.969 333.222 408.346 331.941C408.724 330.659 408.824 329.313 408.64 327.99L407.886 321.793C407.157 316.131 401.806 311.693 395.726 311.693L365.496 311.7Z" fill="black"/>
<path d="M404.673 379.677H374.431C368.069 379.677 362.271 374.621 361.476 368.49L360.724 362.507C359.931 356.379 364.45 351.257 370.812 351.257H401.054C407.418 351.257 413.214 356.335 414.009 362.461L414.763 368.436C415.563 374.568 411.037 379.677 404.673 379.677Z" fill="#CADDFF"/>
<path d="M404.673 380.482H374.431C367.695 380.482 361.525 375.151 360.678 368.597L359.925 362.609C359.705 361.093 359.815 359.548 360.248 358.079C360.681 356.609 361.427 355.251 362.434 354.097C364.504 351.741 367.481 350.449 370.813 350.449H401.055C407.791 350.449 413.961 355.8 414.807 362.366L415.561 368.341C415.781 369.854 415.671 371.397 415.238 372.863C414.806 374.329 414.062 375.685 413.056 376.836C410.987 379.186 408.01 380.482 404.673 380.482ZM370.815 352.064C367.953 352.064 365.406 353.168 363.645 355.17C362.792 356.152 362.161 357.307 361.795 358.556C361.429 359.804 361.337 361.117 361.525 362.405L362.279 368.392C363.025 374.168 368.478 378.872 374.439 378.872H404.681C407.546 378.872 410.094 377.77 411.855 375.769C412.707 374.787 413.337 373.633 413.703 372.386C414.068 371.139 414.159 369.827 413.971 368.541L413.217 362.565C412.47 356.777 407.018 352.064 401.057 352.064H370.815Z" fill="black"/>
<path d="M283.151 418.54H252.909C246.545 418.54 240.749 413.589 239.954 407.46L239.2 401.404C238.41 395.276 242.926 390.086 249.288 390.086H279.53C285.895 390.086 291.69 395.286 292.485 401.412L293.239 407.343C294.03 413.472 289.513 418.54 283.151 418.54Z" fill="#99B9FF"/>
<path d="M346.981 418.54H316.744C310.38 418.54 304.584 413.589 303.789 407.46L303.035 401.675C302.245 395.546 306.761 390.624 313.123 390.624H343.367C349.729 390.624 355.527 395.553 356.32 401.682L357.074 407.48C357.865 413.606 353.348 418.54 346.981 418.54Z" fill="#CADDFF"/>
<path d="M410.821 418.572H380.579C374.215 418.572 368.419 413.604 367.624 407.475L366.87 401.638C366.08 395.512 370.596 390.543 376.958 390.543H407.202C413.564 390.543 419.362 395.512 420.155 401.638L420.909 407.475C421.702 413.604 417.183 418.572 410.821 418.572Z" fill="#99B9FF"/>
<path d="M410.821 419.377H380.579C373.835 419.377 367.665 414.085 366.826 407.579L366.072 401.743C365.666 398.605 366.537 395.636 368.521 393.379C370.586 391.03 373.582 389.731 376.96 389.731H407.202C413.944 389.731 420.114 395.023 420.955 401.529L421.707 407.365C422.113 410.5 421.242 413.47 419.258 415.729C417.193 418.083 414.197 419.377 410.821 419.377ZM376.96 391.353C374.042 391.353 371.486 392.452 369.732 394.447C368.057 396.351 367.325 398.87 367.668 401.541L368.421 407.378C369.151 413.107 374.616 417.772 380.581 417.772H410.821C413.739 417.772 416.293 416.673 418.049 414.678C419.722 412.772 420.454 410.252 420.111 407.584L419.357 401.747C418.628 396.015 413.163 391.353 407.197 391.353H376.96Z" fill="black"/>
<path d="M385.095 258.009H233.769C225.585 258.009 218.129 251.773 217.112 243.94L200.509 116.056C199.492 108.222 205.3 101.77 213.481 101.77H364.81C372.991 101.77 380.448 108.278 381.467 116.119L398.068 243.867C399.084 251.693 393.277 258.009 385.095 258.009Z" fill="#99B9FF"/>
<path d="M385.096 259.162L303.709 258.887C303.603 258.886 303.499 258.865 303.401 258.825C303.304 258.784 303.215 258.724 303.14 258.649C303.066 258.574 303.007 258.485 302.967 258.388C302.927 258.29 302.906 258.185 302.906 258.079C302.904 257.973 302.923 257.867 302.963 257.768C303.003 257.67 303.062 257.58 303.138 257.505C303.214 257.43 303.303 257.371 303.402 257.332C303.501 257.292 303.607 257.274 303.714 257.277L385.098 257.549C388.914 257.549 392.285 256.104 394.583 253.48C396.772 250.99 397.728 247.712 397.278 244.239L384.332 145.602C384.318 145.497 384.326 145.39 384.353 145.288C384.38 145.186 384.428 145.09 384.492 145.006C384.623 144.837 384.815 144.726 385.027 144.698C385.238 144.67 385.453 144.728 385.622 144.858C385.792 144.988 385.902 145.181 385.93 145.393L398.873 244.03C399.384 247.962 398.289 251.693 395.792 254.536C393.19 257.52 389.383 259.162 385.096 259.162Z" fill="black"/>
<path d="M381.464 117.055C381.269 117.054 381.08 116.983 380.933 116.853C380.787 116.724 380.692 116.546 380.667 116.352C379.694 108.908 372.585 102.852 364.81 102.852H213.481C206.72 102.852 201.564 107.473 201.217 113.818C201.212 113.924 201.186 114.028 201.14 114.124C201.095 114.22 201.031 114.307 200.952 114.378C200.873 114.449 200.781 114.504 200.681 114.539C200.581 114.575 200.475 114.59 200.369 114.584C200.263 114.579 200.159 114.552 200.063 114.506C199.967 114.46 199.882 114.395 199.811 114.316C199.74 114.236 199.686 114.144 199.651 114.043C199.617 113.943 199.602 113.837 199.609 113.731C200.001 106.493 205.835 101.24 213.471 101.24H364.8C373.356 101.24 381.187 107.928 382.255 116.145C382.268 116.25 382.261 116.357 382.234 116.459C382.206 116.561 382.158 116.657 382.094 116.741C382.029 116.825 381.949 116.895 381.857 116.948C381.765 117 381.664 117.034 381.559 117.048C381.528 117.052 381.496 117.055 381.464 117.055Z" fill="black"/>
<path d="M215.064 83.3842L356.22 83.231C356.759 83.2302 357.292 83.3383 357.787 83.5488C358.283 83.7593 358.731 84.0678 359.104 84.4557C359.478 84.8437 359.769 85.3032 359.96 85.8065C360.152 86.3099 360.24 86.8467 360.218 87.3848C360.177 88.4065 359.745 89.3733 359.012 90.0863C358.279 90.7993 357.301 91.2042 356.278 91.2177L215.198 93.1633C214.157 93.1781 213.151 92.7857 212.394 92.0698C211.638 91.3539 211.191 90.371 211.149 89.3304L211.073 87.5405C211.052 87.0029 211.14 86.4665 211.331 85.9635C211.521 85.4605 211.812 85.0013 212.185 84.6132C212.557 84.2251 213.004 83.9162 213.499 83.7051C213.994 83.4939 214.526 83.3847 215.064 83.3842Z" fill="#CADDFF"/>
<path d="M214.999 89.1238L204.753 21.7623L215.152 27.8861L225.756 21.4024L238.356 27.4799L250.956 20.7725L262.943 26.94L274.52 20.4125L285.072 26.2664L297.159 19.8702L309.351 25.994L319.393 19.4203L331.942 25.3203L344.491 18.8804L354.326 88.7639L214.999 89.1238Z" fill="white"/>
<path d="M225.138 43.2804C224.925 43.283 224.719 43.2007 224.566 43.0515C224.413 42.9024 224.326 42.6987 224.323 42.4852C224.321 42.2717 224.403 42.0659 224.552 41.9131C224.701 41.7603 224.905 41.673 225.119 41.6704L334.532 38.9685C334.745 38.9633 334.952 39.0432 335.107 39.1905C335.261 39.3378 335.351 39.5405 335.356 39.754C335.361 39.9675 335.282 40.1743 335.134 40.3289C334.987 40.4836 334.784 40.5733 334.571 40.5785L225.157 43.2804H225.138Z" fill="#CADDFF"/>
<path d="M226.368 53.006C226.154 53.008 225.948 52.9247 225.795 52.7747C225.643 52.6246 225.556 52.42 225.554 52.2059C225.552 51.9918 225.635 51.7856 225.785 51.6328C225.935 51.48 226.14 51.3931 226.354 51.3912L335.767 48.6892C335.873 48.6865 335.978 48.7046 336.077 48.7426C336.175 48.7805 336.266 48.8376 336.342 48.9104C336.419 48.9832 336.481 49.0704 336.524 49.1671C336.567 49.2637 336.59 49.3678 336.593 49.4735C336.596 49.5793 336.577 49.6845 336.539 49.7832C336.501 49.8819 336.444 49.9721 336.372 50.0488C336.299 50.1255 336.212 50.1871 336.115 50.23C336.018 50.273 335.914 50.2965 335.808 50.2992L226.395 53.0012L226.368 53.006Z" fill="#CADDFF"/>
<path d="M155.845 69.0497C173.283 69.0497 187.42 54.9132 187.42 37.475C187.42 20.0368 173.283 5.90039 155.845 5.90039C138.407 5.90039 124.271 20.0368 124.271 37.475C124.271 54.9132 138.407 69.0497 155.845 69.0497Z" fill="#99B9FF"/>
<path d="M155.846 69.8574C137.99 69.8574 123.464 55.3311 123.464 37.4753C123.464 19.6196 137.99 5.0957 155.846 5.0957C173.702 5.0957 188.226 19.622 188.226 37.4753C188.226 55.3287 173.699 69.8574 155.846 69.8574ZM155.846 6.70569C149.76 6.70569 143.811 8.51029 138.751 11.8913C133.691 15.2723 129.747 20.0779 127.418 25.7003C125.09 31.3227 124.48 37.5095 125.668 43.4782C126.855 49.4469 129.785 54.9296 134.089 59.2328C138.392 63.536 143.874 66.4665 149.843 67.6538C155.812 68.841 161.999 68.2317 167.621 65.9028C173.243 63.5739 178.049 59.6301 181.43 54.5701C184.811 49.51 186.616 43.561 186.616 37.4753C186.606 29.3177 183.361 21.4969 177.593 15.7286C171.824 9.96023 164.004 6.71534 155.846 6.70569Z" fill="black"/>
<path d="M174.582 56.2133C184.931 45.8647 184.931 29.0864 174.582 18.7379C164.234 8.38937 147.455 8.38938 137.107 18.7379C126.758 29.0864 126.758 45.8647 137.107 56.2133C147.455 66.5618 164.234 66.5618 174.582 56.2133Z" fill="white"/>
<path d="M178.12 52.6338C177.966 52.6334 177.815 52.5896 177.685 52.5074C177.595 52.4505 177.518 52.3765 177.457 52.2896C177.396 52.2027 177.354 52.1047 177.331 52.0011C177.308 51.8976 177.306 51.7905 177.325 51.6862C177.344 51.582 177.384 51.4825 177.442 51.3935C178.771 49.3336 179.798 47.0936 180.491 44.742C180.518 44.6376 180.566 44.5398 180.632 44.4542C180.697 44.3687 180.779 44.2972 180.873 44.244C180.967 44.1908 181.071 44.157 181.178 44.1445C181.285 44.1321 181.393 44.1413 181.497 44.1716C181.6 44.2019 181.697 44.2527 181.78 44.321C181.863 44.3892 181.932 44.4735 181.983 44.5689C182.033 44.6643 182.063 44.7688 182.073 44.8762C182.082 44.9837 182.069 45.0918 182.036 45.1943C181.3 47.6951 180.208 50.077 178.794 52.2666C178.721 52.379 178.621 52.4715 178.503 52.5356C178.386 52.5997 178.254 52.6335 178.12 52.6338Z" fill="black"/>
<path d="M179.696 26.7235C179.544 26.7245 179.394 26.6822 179.265 26.6017C179.136 26.5212 179.032 26.4058 178.966 26.2688C176.876 21.9144 173.594 18.2422 169.5 15.6782C165.407 13.1143 160.67 11.7639 155.84 11.7838C151.802 11.7915 147.822 12.7471 144.221 14.5736C140.62 16.4001 137.497 19.0464 135.105 22.2997C134.977 22.4668 134.789 22.5771 134.58 22.607C134.372 22.6369 134.16 22.584 133.991 22.4597C133.821 22.3353 133.706 22.1494 133.672 21.9418C133.638 21.7342 133.686 21.5213 133.806 21.3488C136.589 17.5482 140.306 14.5317 144.599 12.5924C148.891 10.6532 153.612 9.85709 158.303 10.2815C162.994 10.7059 167.496 12.3364 171.37 15.0146C175.245 17.6928 178.361 21.3276 180.416 25.5659C180.509 25.7582 180.522 25.9795 180.452 26.1815C180.382 26.3834 180.236 26.5495 180.044 26.6433C179.935 26.695 179.816 26.7224 179.696 26.7235Z" fill="black"/>
<path d="M155.846 64.7792C151.083 64.7792 146.402 63.5336 142.269 61.1659C138.136 58.7982 134.695 55.3908 132.285 51.2819C129.876 47.1731 128.584 42.5056 128.536 37.7427C128.488 32.9799 129.686 28.2873 132.012 24.1307C132.062 24.0355 132.131 23.9512 132.214 23.883C132.297 23.8147 132.393 23.7638 132.496 23.7333C132.599 23.7027 132.708 23.6932 132.815 23.7052C132.922 23.7173 133.025 23.7506 133.119 23.8033C133.213 23.856 133.295 23.9269 133.361 24.012C133.427 24.097 133.475 24.1944 133.503 24.2984C133.53 24.4024 133.537 24.5108 133.522 24.6174C133.507 24.7239 133.471 24.8264 133.415 24.9187C131.228 28.8299 130.101 33.245 130.146 37.726C130.192 42.2071 131.408 46.5985 133.674 50.4645C135.941 54.3305 139.178 57.5368 143.066 59.7654C146.954 61.9939 151.357 63.1673 155.838 63.1692C156.052 63.1692 156.257 63.254 156.408 63.405C156.559 63.5559 156.643 63.7607 156.643 63.9742C156.643 64.1877 156.559 64.3924 156.408 64.5434C156.257 64.6944 156.052 64.7792 155.838 64.7792H155.846Z" fill="black"/>
<path d="M153.414 56.1844V51.8287C150.342 51.69 147.36 50.8559 145.619 49.8563L146.996 44.4913C149.327 45.7809 151.941 46.4743 154.605 46.5099C157.22 46.5099 159.01 45.5006 159.01 43.6669C159.01 41.9231 157.551 40.8239 154.146 39.676C149.238 38.0246 145.892 35.7337 145.892 31.2856C145.892 27.2509 148.735 24.0868 153.642 23.1238V18.7656H158.137V22.8027C161.211 22.9389 163.273 23.581 164.786 24.3155L163.455 29.4956C162.264 28.9922 160.155 27.9367 156.853 27.9367C153.873 27.9367 152.91 29.2208 152.91 30.5049C152.91 32.0176 154.515 32.9807 158.411 34.4496C163.869 36.3757 166.07 38.8977 166.07 43.0248C166.07 47.1057 163.181 50.5908 157.908 51.5076V56.1844H153.414Z" fill="#4A33FB"/>
<path d="M127.66 120.76C138.214 110.205 138.214 93.0927 127.66 82.5381C117.105 71.9835 99.9926 71.9835 89.438 82.5381C78.8834 93.0927 78.8834 110.205 89.438 120.76C99.9926 131.314 117.105 131.314 127.66 120.76Z" fill="#99B9FF"/>
<path d="M108.548 129.478C103.042 129.48 97.6604 127.849 93.0822 124.792C88.5039 121.735 84.9351 117.388 82.8272 112.303C80.7193 107.217 80.1668 101.621 81.2398 96.2211C82.3128 90.8216 84.963 85.8615 88.8552 81.9683C92.7475 78.0751 97.7068 75.4236 103.106 74.3492C108.505 73.2748 114.102 73.8257 119.188 75.9323C124.274 78.0389 128.621 81.6066 131.68 86.184C134.738 90.7615 136.37 96.1431 136.37 101.648C136.361 109.025 133.428 116.098 128.212 121.315C122.996 126.532 115.925 129.467 108.548 129.478ZM108.548 75.4264C103.361 75.4264 98.2917 76.9643 93.9795 79.8456C89.6674 82.7269 86.3065 86.8222 84.3218 91.6136C82.3371 96.405 81.8179 101.677 82.8296 106.764C83.8414 111.85 86.3388 116.523 90.006 120.19C93.6732 123.857 98.3455 126.354 103.432 127.366C108.519 128.378 113.791 127.859 118.582 125.874C123.374 123.889 127.469 120.528 130.35 116.216C133.232 111.904 134.769 106.834 134.769 101.648C134.762 94.6961 131.997 88.031 127.081 83.1151C122.165 78.1992 115.5 75.4341 108.548 75.4264Z" fill="black"/>
<path d="M124.586 118.402C133.443 109.544 133.443 95.1834 124.586 86.326C115.729 77.4686 101.368 77.4686 92.5104 86.326C83.653 95.1834 83.653 109.544 92.5104 118.402C101.368 127.259 115.729 127.259 124.586 118.402Z" fill="white"/>
<path d="M127.615 115.455C127.461 115.455 127.309 115.41 127.18 115.326C127.091 115.269 127.014 115.195 126.953 115.108C126.892 115.021 126.85 114.923 126.827 114.819C126.805 114.716 126.803 114.609 126.821 114.505C126.84 114.401 126.879 114.301 126.937 114.212C128.071 112.457 128.947 110.548 129.536 108.543C129.566 108.442 129.616 108.347 129.682 108.264C129.749 108.182 129.831 108.114 129.924 108.063C130.017 108.012 130.119 107.98 130.224 107.969C130.329 107.958 130.436 107.967 130.537 107.997C130.639 108.027 130.734 108.077 130.816 108.143C130.898 108.209 130.967 108.291 131.018 108.384C131.068 108.477 131.1 108.579 131.111 108.685C131.123 108.79 131.113 108.896 131.083 108.998C130.449 111.147 129.51 113.195 128.294 115.078C128.221 115.193 128.121 115.287 128.003 115.353C127.884 115.419 127.751 115.454 127.615 115.455Z" fill="black"/>
<path d="M128.964 93.2776C128.812 93.278 128.663 93.2355 128.534 93.155C128.405 93.0746 128.301 92.9595 128.235 92.8228C126.456 89.1132 123.66 85.9848 120.172 83.8016C116.685 81.6184 112.65 80.4701 108.536 80.4902C105.099 80.4982 101.712 81.3125 98.6478 82.8678C95.5834 84.4231 92.9267 86.6758 90.8914 89.4448C90.765 89.617 90.5753 89.732 90.3641 89.7643C90.153 89.7967 89.9376 89.7439 89.7654 89.6175C89.5932 89.491 89.4782 89.3014 89.4458 89.0902C89.4135 88.8791 89.4663 88.6637 89.5927 88.4915C91.9857 85.2224 95.1835 82.6279 98.8755 80.9599C102.568 79.292 106.628 78.6074 110.663 78.9726C114.698 79.3378 118.57 80.7404 121.902 83.0441C125.235 85.3479 127.915 88.4744 129.682 92.12C129.728 92.215 129.755 92.3182 129.762 92.4237C129.768 92.5292 129.754 92.6349 129.719 92.7348C129.685 92.8347 129.631 92.9267 129.56 93.0057C129.49 93.0847 129.405 93.149 129.31 93.1949C129.202 93.2484 129.084 93.2767 128.964 93.2776Z" fill="black"/>
<path d="M108.548 125.849C104.451 125.848 100.426 124.776 96.8718 122.739C93.3176 120.702 90.358 117.77 88.2867 114.236C86.2153 110.702 85.1042 106.687 85.0637 102.591C85.0231 98.4945 86.0545 94.4588 88.0555 90.8842C88.1632 90.7043 88.3367 90.5736 88.5393 90.5197C88.7419 90.4658 88.9575 90.4931 89.1403 90.5958C89.3231 90.6984 89.4586 90.8683 89.5181 91.0693C89.5776 91.2703 89.5563 91.4866 89.4588 91.6721C87.5975 95.0021 86.639 98.7607 86.6781 102.575C86.7172 106.39 87.7526 110.128 89.6816 113.419C91.6107 116.71 94.3664 119.44 97.6757 121.338C100.985 123.236 104.733 124.236 108.548 124.239C108.761 124.239 108.966 124.324 109.117 124.475C109.268 124.626 109.353 124.831 109.353 125.044C109.353 125.258 109.268 125.462 109.117 125.613C108.966 125.764 108.761 125.849 108.548 125.849Z" fill="black"/>
<path d="M106.826 118.028V114.292C104.197 114.173 101.646 113.468 100.152 112.605L101.332 108.011C103.327 109.114 105.565 109.708 107.845 109.737C110.082 109.737 111.614 108.874 111.614 107.305C111.614 105.814 110.357 104.873 107.453 103.9C103.253 102.487 100.388 100.525 100.388 96.7188C100.388 93.2653 102.82 90.5561 107.023 89.7316V85.9937H110.868V89.4471C113.497 89.5662 115.265 90.1135 116.559 90.7433L115.42 95.1671C114.401 94.7367 112.594 93.8344 109.768 93.8344C107.217 93.8344 106.393 94.9313 106.393 96.0232C106.393 97.3195 107.767 98.1439 111.104 99.3988C115.773 101.048 117.658 103.207 117.658 106.739C117.658 110.231 115.185 113.215 110.671 114.001V118.028H106.826Z" fill="#4A33FB"/>
<path d="M24.9381 172.132C24.8488 172.132 24.7601 172.117 24.6755 172.089C24.5755 172.054 24.4833 172 24.4041 171.93C24.3249 171.86 24.2604 171.775 24.2141 171.68C24.1678 171.585 24.1406 171.482 24.1343 171.376C24.1279 171.271 24.1424 171.165 24.1769 171.065C29.3786 155.878 36.8138 141.551 46.2376 128.556C46.3634 128.383 46.5527 128.267 46.7638 128.234C46.975 128.201 47.1908 128.253 47.3636 128.378C47.5365 128.504 47.6523 128.693 47.6856 128.905C47.7189 129.116 47.6669 129.332 47.5411 129.504C38.2115 142.366 30.8501 156.547 25.6994 171.578C25.6464 171.738 25.5445 171.878 25.408 171.978C25.2714 172.077 25.1071 172.131 24.9381 172.132Z" fill="black"/>
<path d="M45.9771 117.092C45.8234 117.092 45.6729 117.048 45.5433 116.966C45.4137 116.883 45.3104 116.765 45.2457 116.626C45.181 116.486 45.1576 116.331 45.1781 116.179C45.1987 116.027 45.2624 115.883 45.3618 115.766C46.872 113.988 48.4285 112.216 50.0093 110.489C50.1551 110.338 50.354 110.25 50.5638 110.243C50.7736 110.237 50.9777 110.312 51.1325 110.454C51.2872 110.596 51.3805 110.792 51.3924 111.002C51.4043 111.212 51.3339 111.418 51.1961 111.576C49.6299 113.278 48.0807 115.042 46.5924 116.802C46.517 116.892 46.4229 116.965 46.3167 117.015C46.2104 117.065 46.0945 117.091 45.9771 117.092Z" fill="black"/>
<path d="M13.1622 177.736C13.084 177.735 13.0063 177.724 12.9312 177.702C12.7267 177.641 12.555 177.501 12.4538 177.313C12.3525 177.125 12.33 176.905 12.3913 176.7C13.0357 174.555 13.7313 172.391 14.4609 170.268C21.2782 150.335 31.7582 131.851 45.3619 115.766C45.4302 115.686 45.5138 115.619 45.6079 115.571C45.7019 115.522 45.8046 115.493 45.9101 115.484C46.0156 115.475 46.1217 115.487 46.2225 115.519C46.3233 115.551 46.4168 115.603 46.4976 115.672C46.5784 115.74 46.645 115.823 46.6935 115.918C46.742 116.012 46.7715 116.114 46.7803 116.22C46.7891 116.325 46.777 116.431 46.7448 116.532C46.7126 116.633 46.6608 116.726 46.5925 116.807C33.1174 132.743 22.7372 151.056 15.9858 170.803C15.2562 172.906 14.5728 175.049 13.9356 177.174C13.8836 177.338 13.7805 177.481 13.6413 177.582C13.5021 177.684 13.3342 177.737 13.1622 177.736Z" fill="black"/>
<path d="M59.6528 108.674C59.536 108.675 59.4206 108.649 59.3147 108.6C59.2088 108.551 59.115 108.479 59.0399 108.39L53.9035 102.329C53.811 102.221 53.7491 102.089 53.7242 101.949C53.6993 101.809 53.7123 101.664 53.7619 101.53C53.8114 101.396 53.8957 101.278 54.0061 101.188C54.1165 101.098 54.249 101.038 54.3899 101.016L63.6826 99.4474C63.8317 99.4221 63.9849 99.4392 64.1247 99.4969C64.2644 99.5546 64.3851 99.6504 64.473 99.7735C64.5608 99.8966 64.6121 100.042 64.6212 100.193C64.6302 100.344 64.5966 100.494 64.5241 100.627L60.3678 108.254C60.3054 108.369 60.2158 108.467 60.1069 108.539C59.998 108.612 59.873 108.656 59.7428 108.67C59.713 108.674 59.6829 108.676 59.6528 108.674ZM56.0461 102.368L59.519 106.452L62.3207 101.313L56.0461 102.368Z" fill="black"/>
<path d="M376.372 37.7721C375.335 37.7702 374.325 37.4396 373.488 36.8279C372.651 36.2161 372.029 35.3546 371.712 34.3673C371.416 33.4459 371.4 32.4574 371.666 31.5268C371.931 30.5962 372.467 29.7653 373.205 29.1391C373.943 28.513 374.85 28.1198 375.811 28.0091C376.773 27.8985 377.745 28.0755 378.606 28.5176C379.467 28.9598 380.178 29.6473 380.648 30.4932C381.118 31.3392 381.327 32.3055 381.248 33.2701C381.168 34.2346 380.805 35.1541 380.203 35.9121C379.602 36.6702 378.789 37.2328 377.868 37.5289C377.385 37.6878 376.88 37.7699 376.372 37.7721ZM373.247 33.8809C373.447 34.4979 373.826 35.0417 374.335 35.4436C374.844 35.8454 375.461 36.0873 376.108 36.1385C376.755 36.1898 377.402 36.0482 377.968 35.7316C378.535 35.4151 378.994 34.9377 379.289 34.3599C379.584 33.7822 379.701 33.1299 379.626 32.4856C379.55 31.8413 379.285 31.2339 378.864 30.7401C378.444 30.2463 377.886 29.8884 377.262 29.7116C376.638 29.5347 375.975 29.5468 375.358 29.7465C374.53 30.016 373.844 30.6026 373.448 31.3775C373.052 32.1525 372.98 33.0526 373.247 33.8809Z" fill="black"/>
<path d="M392.995 50.389C392.098 50.3906 391.234 50.054 390.575 49.4464C389.915 48.8388 389.509 48.0048 389.437 47.111C389.365 46.2171 389.633 45.3291 390.188 44.6242C390.742 43.9192 391.541 43.4491 392.427 43.3077C393.313 43.1664 394.219 43.3641 394.965 43.8615C395.711 44.3589 396.242 45.1193 396.452 45.9911C396.662 46.8628 396.536 47.7817 396.099 48.5645C395.661 49.3472 394.945 49.9362 394.092 50.2138C393.738 50.3299 393.368 50.389 392.995 50.389ZM392.995 44.8926C392.791 44.8928 392.588 44.9248 392.394 44.9875C391.906 45.1473 391.5 45.4941 391.266 45.9521C391.032 46.4101 390.99 46.9421 391.147 47.4316C391.256 47.7739 391.459 48.0791 391.731 48.3134C392.004 48.5477 392.336 48.7019 392.69 48.7591C393.045 48.8162 393.409 48.774 393.741 48.637C394.073 48.5001 394.361 48.2738 394.573 47.9833C394.784 47.6928 394.911 47.3493 394.939 46.9911C394.967 46.6328 394.896 46.2738 394.733 45.9537C394.569 45.6336 394.32 45.3651 394.014 45.1778C393.707 44.9905 393.354 44.8918 392.995 44.8926Z" fill="black"/>
<path d="M39.7541 192.934C39.6317 192.933 39.5111 192.905 39.4014 192.851L37.0205 191.688C36.827 191.595 36.6787 191.428 36.6082 191.225C36.5378 191.021 36.5509 190.798 36.6448 190.605C36.7386 190.411 36.9055 190.263 37.1087 190.193C37.3119 190.122 37.5347 190.135 37.7282 190.229L40.1091 191.392C40.2736 191.471 40.4061 191.604 40.485 191.769C40.5638 191.934 40.5842 192.121 40.5429 192.298C40.5016 192.476 40.401 192.635 40.2577 192.748C40.1143 192.861 39.9367 192.923 39.7541 192.921V192.934Z" fill="black"/>
<path d="M48.0887 197.01C47.9659 197.009 47.8447 196.982 47.7337 196.93L45.3552 195.767C45.1617 195.673 45.0132 195.507 44.9426 195.304C44.8719 195.101 44.8847 194.878 44.9782 194.685C45.0717 194.491 45.2383 194.343 45.4413 194.272C45.6442 194.201 45.8669 194.214 46.0604 194.308L48.4414 195.468C48.6056 195.547 48.7381 195.68 48.8169 195.845C48.8958 196.009 48.9164 196.196 48.8754 196.373C48.8344 196.551 48.7343 196.71 48.5913 196.823C48.4484 196.937 48.2712 196.998 48.0887 196.998V197.01Z" fill="black"/>
<path d="M40.1479 199.765C40.0113 199.766 39.8767 199.733 39.7567 199.667C39.6367 199.602 39.5354 199.507 39.4623 199.392C39.3892 199.276 39.3469 199.144 39.3392 199.008C39.3315 198.871 39.3587 198.735 39.4183 198.612L40.5663 196.224C40.6121 196.128 40.6763 196.042 40.7553 195.971C40.8343 195.9 40.9266 195.846 41.0267 195.81C41.1269 195.775 41.233 195.76 41.3391 195.765C41.4451 195.771 41.549 195.798 41.6448 195.843C41.7407 195.889 41.8265 195.953 41.8975 196.032C41.9685 196.111 42.0232 196.204 42.0585 196.304C42.0939 196.404 42.1091 196.51 42.1035 196.616C42.0978 196.722 42.0713 196.826 42.0255 196.922L40.8775 199.31C40.8114 199.447 40.7077 199.563 40.5785 199.643C40.4494 199.724 40.3001 199.766 40.1479 199.765Z" fill="black"/>
<path d="M44.1654 191.411C44.044 191.412 43.9242 191.384 43.8152 191.331C43.623 191.238 43.4755 191.072 43.4049 190.871C43.3342 190.67 43.3462 190.448 43.4383 190.256L44.5862 187.87C44.6787 187.676 44.8444 187.528 45.0466 187.456C45.2489 187.385 45.4712 187.397 45.6647 187.489C45.8582 187.582 46.0071 187.748 46.0784 187.95C46.1498 188.152 46.1379 188.374 46.0454 188.568L44.8975 190.954C44.8317 191.092 44.7278 191.208 44.5981 191.289C44.4684 191.37 44.3183 191.412 44.1654 191.411Z" fill="black"/>
<path d="M428.188 160.119C428.066 160.119 427.945 160.092 427.835 160.038L426.147 159.214C425.954 159.12 425.806 158.953 425.735 158.75C425.665 158.547 425.678 158.324 425.772 158.13C425.866 157.937 426.032 157.789 426.236 157.718C426.439 157.648 426.662 157.661 426.855 157.755L428.541 158.579C428.703 158.659 428.834 158.792 428.912 158.956C428.99 159.12 429.01 159.306 428.97 159.482C428.929 159.659 428.829 159.817 428.687 159.931C428.545 160.044 428.369 160.106 428.188 160.106V160.119Z" fill="black"/>
<path d="M434.086 163C433.964 163 433.843 162.972 433.733 162.918L432.048 162.096C431.952 162.049 431.866 161.984 431.796 161.905C431.725 161.825 431.67 161.732 431.636 161.632C431.601 161.531 431.586 161.425 431.592 161.318C431.598 161.212 431.626 161.108 431.672 161.012C431.719 160.916 431.783 160.831 431.863 160.76C431.943 160.689 432.035 160.635 432.136 160.6C432.237 160.565 432.343 160.55 432.449 160.557C432.556 160.563 432.66 160.59 432.756 160.636L434.441 161.458C434.605 161.538 434.738 161.671 434.817 161.836C434.896 162.001 434.916 162.187 434.875 162.365C434.833 162.543 434.733 162.702 434.589 162.815C434.446 162.928 434.269 162.989 434.086 162.988V163Z" fill="black"/>
<path d="M428.465 164.951C428.344 164.951 428.224 164.924 428.115 164.871C428.02 164.825 427.935 164.761 427.864 164.682C427.794 164.603 427.74 164.512 427.705 164.412C427.67 164.312 427.655 164.207 427.661 164.102C427.667 163.996 427.694 163.893 427.74 163.798L428.552 162.096C428.645 161.902 428.81 161.753 429.012 161.682C429.214 161.61 429.436 161.622 429.63 161.714C429.823 161.806 429.972 161.971 430.044 162.174C430.115 162.376 430.104 162.598 430.012 162.791L429.197 164.494C429.131 164.632 429.027 164.748 428.898 164.829C428.768 164.91 428.618 164.952 428.465 164.951Z" fill="black"/>
<path d="M431.311 159.036C431.19 159.035 431.07 159.008 430.961 158.956C430.769 158.863 430.621 158.698 430.55 158.496C430.48 158.295 430.492 158.074 430.584 157.881L431.398 156.179C431.491 155.985 431.657 155.836 431.859 155.765C432.061 155.693 432.284 155.705 432.477 155.798C432.671 155.89 432.819 156.056 432.891 156.258C432.962 156.461 432.95 156.683 432.858 156.877L432.043 158.579C431.977 158.717 431.873 158.833 431.744 158.914C431.614 158.995 431.464 159.038 431.311 159.036Z" fill="black"/>
<path d="M48.4967 56.7269C48.3743 56.727 48.2536 56.6987 48.1441 56.6442L46.4587 55.8222C46.2652 55.7287 46.1168 55.5621 46.0461 55.3591C45.9754 55.1562 45.9882 54.9335 46.0817 54.7399C46.1753 54.5464 46.3418 54.398 46.5448 54.3273C46.7477 54.2566 46.9705 54.2695 47.164 54.363L48.8493 55.1874C49.0136 55.2668 49.146 55.3997 49.2249 55.5642C49.3037 55.7288 49.3244 55.9152 49.2834 56.093C49.2424 56.2708 49.1422 56.4294 48.9993 56.5428C48.8564 56.6562 48.6792 56.7177 48.4967 56.7172V56.7269Z" fill="black"/>
<path d="M54.3948 59.6065C54.2725 59.6063 54.1519 59.578 54.0422 59.5238L52.3568 58.7018C52.1649 58.6079 52.0182 58.4417 51.9489 58.2397C51.8795 58.0376 51.8933 57.8163 51.9872 57.6244C52.081 57.4325 52.2472 57.2858 52.4493 57.2164C52.6513 57.1471 52.8727 57.1609 53.0646 57.2547L54.7499 58.0768C54.9144 58.1563 55.0469 58.2893 55.1257 58.4541C55.2046 58.6189 55.225 58.8056 55.1837 58.9835C55.1424 59.1615 55.0418 59.3201 54.8985 59.4333C54.7551 59.5465 54.5775 59.6076 54.3948 59.6065Z" fill="black"/>
<path d="M48.7742 61.5591C48.6377 61.5593 48.5034 61.5249 48.3839 61.4591C48.2644 61.3933 48.1634 61.2982 48.0906 61.1829C48.0177 61.0675 47.9753 60.9355 47.9672 60.7993C47.9592 60.6631 47.9858 60.5271 48.0446 60.4039L48.8568 58.7137C48.9027 58.6179 48.9669 58.532 49.0459 58.461C49.1249 58.3901 49.2172 58.3354 49.3173 58.3C49.4175 58.2647 49.5236 58.2494 49.6297 58.2551C49.7357 58.2607 49.8396 58.2872 49.9354 58.3331C50.0312 58.3789 50.1171 58.4432 50.1881 58.5222C50.2591 58.6012 50.3138 58.6934 50.3491 58.7935C50.3845 58.8937 50.3997 58.9998 50.3941 59.1059C50.3884 59.212 50.3619 59.3159 50.316 59.4117L49.5038 61.1019C49.4374 61.239 49.3338 61.3546 49.2047 61.4355C49.0757 61.5164 48.9265 61.5592 48.7742 61.5591Z" fill="black"/>
<path d="M51.6195 55.6421C51.4983 55.6416 51.3787 55.6142 51.2693 55.5618C51.0772 55.4689 50.9296 55.3036 50.859 55.1022C50.7883 54.9007 50.8003 54.6795 50.8924 54.4869L51.7071 52.7845C51.7996 52.591 51.9653 52.4422 52.1675 52.3708C52.3698 52.2994 52.5922 52.3113 52.7857 52.4039C52.9792 52.4964 53.128 52.6621 53.1994 52.8643C53.2707 53.0666 53.2588 53.289 53.1663 53.4825L52.3516 55.1849C52.2858 55.3229 52.1819 55.4393 52.0522 55.5203C51.9226 55.6013 51.7724 55.6435 51.6195 55.6421Z" fill="black"/>
<path d="M138.225 450.268L277.513 449.619C283.438 449.59 287.951 444.857 287.579 438.843L256.345 153.234C256.151 150.344 254.867 147.635 252.752 145.655C250.638 143.676 247.85 142.573 244.954 142.569L105.666 143.219C99.7413 143.248 95.2324 148.054 95.6045 154.068L126.836 439.638C127.03 442.525 128.315 445.23 130.43 447.204C132.545 449.178 135.332 450.274 138.225 450.268Z" fill="#5479F7"/>
<path d="M147.691 450.614L286.979 449.964C292.904 449.935 297.408 445.059 297.038 439.071L265.826 153.803C265.454 147.813 260.351 142.983 254.425 143.009L115.137 143.659C109.212 143.688 104.708 148.564 105.078 154.552L136.29 439.825C136.662 445.81 141.765 450.643 147.691 450.614Z" fill="white"/>
<path d="M208.319 450.799C208.209 450.805 208.099 450.788 207.996 450.75C207.893 450.713 207.799 450.654 207.719 450.579C207.639 450.503 207.576 450.412 207.533 450.311C207.489 450.211 207.467 450.102 207.467 449.992C207.467 449.883 207.489 449.774 207.533 449.673C207.576 449.572 207.639 449.481 207.719 449.406C207.799 449.33 207.893 449.272 207.996 449.234C208.099 449.196 208.209 449.18 208.319 449.186H286.977C288.201 449.176 289.41 448.914 290.529 448.416C291.648 447.917 292.651 447.193 293.477 446.29C294.428 445.263 295.159 444.054 295.628 442.737C296.096 441.419 296.292 440.02 296.204 438.624L292.259 400.442C292.248 400.336 292.258 400.23 292.288 400.129C292.319 400.027 292.369 399.933 292.435 399.851C292.502 399.769 292.584 399.7 292.677 399.65C292.77 399.6 292.872 399.568 292.978 399.557C293.083 399.547 293.189 399.557 293.291 399.587C293.392 399.617 293.486 399.667 293.569 399.734C293.651 399.8 293.719 399.883 293.769 399.976C293.819 400.069 293.851 400.171 293.862 400.276L297.809 438.485C297.914 440.105 297.688 441.729 297.144 443.259C296.601 444.789 295.751 446.191 294.647 447.382C293.672 448.446 292.487 449.298 291.167 449.884C289.847 450.47 288.421 450.777 286.977 450.786L208.319 450.799Z" fill="black"/>
<path d="M147.593 450.799C144.501 450.799 141.525 449.62 139.27 447.504C137.016 445.387 135.653 442.491 135.458 439.405L104.267 154.328C104.152 152.818 104.35 151.301 104.849 149.871C105.349 148.441 106.138 147.13 107.169 146.02C108.187 144.933 109.418 144.067 110.786 143.477C112.154 142.887 113.629 142.585 115.119 142.591L254.404 141.942H254.46C260.798 141.942 266.263 147.049 266.652 153.372L294.323 404.175C294.335 404.381 294.267 404.584 294.134 404.742C294 404.899 293.811 405 293.606 405.023C293.401 405.045 293.194 404.989 293.03 404.864C292.865 404.739 292.754 404.556 292.721 404.352L265.047 153.516C264.706 148 259.962 143.562 254.46 143.562H254.412L115.126 144.213C113.854 144.206 112.594 144.462 111.425 144.964C110.257 145.466 109.204 146.204 108.334 147.132C107.459 148.077 106.788 149.193 106.362 150.41C105.937 151.626 105.767 152.917 105.863 154.202L137.063 439.281C137.403 444.777 142.124 449.201 147.601 449.201H195.11C195.316 449.212 195.51 449.302 195.652 449.452C195.794 449.602 195.873 449.8 195.873 450.007C195.873 450.213 195.794 450.412 195.652 450.562C195.51 450.712 195.316 450.802 195.11 450.813H147.593V450.799Z" fill="black"/>
<path d="M153.637 442.428L280.831 441.834C286.242 441.807 290.357 437.354 290.019 431.887L259.928 161.741C259.59 156.271 254.928 151.86 249.516 151.884L122.323 152.477C116.912 152.504 112.797 156.957 113.135 162.427L143.236 432.571C143.574 438.04 148.236 442.457 153.637 442.428Z" fill="#CADDFF"/>
<path d="M232.458 396.776C244.106 384.79 243.26 365.076 230.569 352.744C217.878 340.411 198.148 340.13 186.501 352.115C174.853 364.101 175.699 383.815 188.39 396.148C201.081 408.48 220.811 408.762 232.458 396.776Z" fill="#4A33FB"/>
<path d="M197.06 375.951L208.116 391.3C208.602 392.085 209.726 392.068 210.083 391.265L222.09 364.389C222.132 364.295 222.151 364.193 222.147 364.09C222.143 363.987 222.115 363.887 222.066 363.797C222.017 363.706 221.948 363.628 221.864 363.569C221.78 363.509 221.683 363.47 221.582 363.453L217.557 362.052C217.421 362.026 217.279 362.047 217.157 362.112C217.034 362.177 216.938 362.282 216.883 362.41L208.712 381.732C208.661 381.84 208.581 381.931 208.482 381.996C208.382 382.061 208.266 382.097 208.147 382.099C208.028 382.102 207.91 382.071 207.808 382.01C207.705 381.95 207.622 381.862 207.566 381.756L201.321 373.524C201.238 373.378 201.103 373.268 200.943 373.217C200.783 373.165 200.61 373.176 200.458 373.247L197.296 375.081C197.222 375.12 197.156 375.175 197.104 375.241C197.051 375.307 197.012 375.383 196.99 375.465C196.968 375.547 196.963 375.632 196.975 375.715C196.987 375.799 197.016 375.879 197.06 375.951Z" fill="white"/>
<path d="M159.5 236.148H253.305C255.19 236.148 256.985 237.607 257.196 239.477L265.365 312.301C265.548 313.938 264.434 315.387 262.773 315.387H147.389C145.504 315.387 143.683 313.532 143.474 311.674L135.322 239.044C135.137 237.405 136.265 236.148 137.926 236.148H159.5Z" fill="#4A33FB"/>
<path d="M137.212 256.71C137.012 256.71 136.819 256.635 136.672 256.5C136.524 256.365 136.432 256.18 136.414 255.98L134.51 238.801C134.444 238.307 134.485 237.805 134.63 237.329C134.775 236.852 135.02 236.412 135.349 236.038C135.674 235.681 136.071 235.397 136.514 235.204C136.958 235.012 137.437 234.917 137.919 234.924L159.676 235.184C159.782 235.186 159.886 235.208 159.983 235.249C160.081 235.291 160.169 235.351 160.243 235.427C160.316 235.503 160.375 235.592 160.414 235.69C160.453 235.788 160.473 235.893 160.471 235.999C160.465 236.211 160.376 236.412 160.224 236.561C160.072 236.709 159.869 236.793 159.657 236.794L137.91 236.534C137.655 236.528 137.402 236.577 137.167 236.677C136.933 236.777 136.723 236.925 136.55 237.113C136.373 237.319 136.243 237.56 136.167 237.821C136.091 238.081 136.071 238.355 136.11 238.623L138.014 255.803C138.038 256.015 137.976 256.228 137.842 256.395C137.708 256.562 137.514 256.669 137.302 256.693L137.212 256.71Z" fill="black"/>
<path d="M247.887 315.937H147.368C145.118 315.937 142.919 313.925 142.662 311.634L139.585 284.24C139.561 284.028 139.623 283.815 139.756 283.648C139.889 283.481 140.083 283.374 140.295 283.35C140.507 283.326 140.72 283.388 140.887 283.521C141.054 283.654 141.162 283.848 141.185 284.06L144.264 311.454C144.43 312.931 145.938 314.327 147.368 314.327H247.887C248.1 314.327 248.305 314.411 248.456 314.562C248.607 314.713 248.692 314.918 248.692 315.132C248.692 315.345 248.607 315.55 248.456 315.701C248.305 315.852 248.1 315.937 247.887 315.937Z" fill="black"/>
<path d="M262.747 315.937H259.721C259.508 315.937 259.303 315.852 259.152 315.701C259.001 315.55 258.916 315.345 258.916 315.132C258.916 314.918 259.001 314.714 259.152 314.563C259.303 314.412 259.508 314.327 259.721 314.327H262.747C262.999 314.332 263.25 314.283 263.482 314.183C263.714 314.084 263.923 313.937 264.094 313.75C264.276 313.539 264.411 313.291 264.489 313.023C264.567 312.755 264.588 312.473 264.549 312.196L256.394 239.438C256.229 237.979 254.787 236.695 253.308 236.695H167.721C167.615 236.695 167.511 236.674 167.413 236.634C167.315 236.593 167.227 236.534 167.152 236.459C167.077 236.384 167.018 236.296 166.977 236.198C166.937 236.1 166.916 235.996 166.916 235.89C166.916 235.784 166.937 235.68 166.977 235.582C167.018 235.484 167.077 235.395 167.152 235.321C167.227 235.246 167.315 235.187 167.413 235.146C167.511 235.106 167.615 235.085 167.721 235.085H253.308C255.594 235.085 257.741 236.997 257.994 239.258L266.149 312.016C266.212 312.518 266.168 313.027 266.021 313.511C265.874 313.994 265.627 314.441 265.295 314.823C264.974 315.179 264.581 315.463 264.141 315.655C263.702 315.847 263.226 315.943 262.747 315.937Z" fill="black"/>
<path d="M186.309 253.778L145.794 253.931C144.923 253.931 144.092 253.25 144.029 252.472L143.761 249.626C143.698 248.94 144.226 248.41 144.977 248.41L185.514 248.393C186.384 248.393 187.216 249.079 187.274 249.869L187.518 252.579C187.586 253.247 187.06 253.775 186.309 253.778Z" fill="#99B9FF"/>
<path d="M140.974 284.15L142.781 298.789H264.305L262.661 284.15H140.974Z" fill="black"/>
<path d="M211.368 188.07L133.058 188.366C131.375 188.366 129.787 187.051 129.653 185.523L129.14 180.02C129.016 178.697 130.035 177.687 131.494 177.687L209.839 177.656C211.519 177.656 213.102 178.981 213.243 180.506L213.73 185.742C213.83 187.068 212.82 188.07 211.368 188.07Z" fill="#99B9FF"/>
<path d="M234.531 206.259L135.13 206.553C133.447 206.553 131.859 205.237 131.725 203.71L131.209 198.209C131.085 196.886 132.104 195.876 133.564 195.874L233.006 195.845C234.686 195.845 236.269 197.168 236.41 198.693L236.897 203.931C236.994 205.247 235.982 206.251 234.531 206.259Z" fill="#99B9FF"/>
<path d="M286.633 170.218C286.505 169.161 286.705 168.09 287.204 167.15C287.704 166.21 288.479 165.445 289.427 164.959C290.374 164.473 291.448 164.29 292.503 164.433C293.558 164.576 294.544 165.04 295.328 165.761C302.227 172.113 306.396 179.788 307.381 187.955C308.366 196.122 306.145 204.568 300.956 212.38C300.179 213.5 298.994 214.272 297.655 214.528C296.316 214.785 294.93 214.506 293.794 213.751C292.659 212.997 291.864 211.827 291.582 210.493C291.299 209.16 291.551 207.768 292.283 206.618C296.135 200.815 297.738 194.945 297.042 189.203C296.347 183.461 293.394 178.139 288.275 173.421C287.363 172.584 286.78 171.448 286.633 170.218Z" fill="white"/>
<path d="M311.53 219.841C311.383 218.621 311.673 217.388 312.35 216.361C318.862 206.448 321.555 196.365 320.351 186.389C319.147 176.413 314.132 167.261 305.448 159.182C304.935 158.72 304.519 158.16 304.225 157.535C303.931 156.911 303.764 156.234 303.734 155.544C303.703 154.854 303.811 154.165 304.049 153.518C304.288 152.87 304.653 152.276 305.123 151.77C305.593 151.264 306.159 150.857 306.788 150.573C307.417 150.288 308.097 150.131 308.787 150.112C309.477 150.092 310.164 150.21 310.808 150.458C311.453 150.706 312.041 151.08 312.539 151.558C322.926 161.22 329.201 172.833 330.687 185.142C332.173 197.45 328.841 210.223 321.051 222.079C320.465 222.971 319.619 223.661 318.628 224.056C317.636 224.451 316.547 224.533 315.509 224.288C314.47 224.044 313.531 223.487 312.819 222.691C312.107 221.896 311.657 220.901 311.53 219.841Z" fill="white"/>
<path d="M331.613 229.564C331.462 228.328 331.761 227.079 332.455 226.045C341.862 212.003 345.763 197.698 344.053 183.529C342.343 169.36 335.149 156.395 322.661 144.992C321.642 144.06 321.034 142.761 320.972 141.382C320.91 140.002 321.399 138.654 322.33 137.635C323.262 136.615 324.561 136.008 325.94 135.946C327.32 135.884 328.668 136.372 329.687 137.304C336.635 143.656 342.251 150.617 346.373 157.995C350.628 165.478 353.352 173.732 354.385 182.277C355.419 190.822 354.741 199.488 352.392 207.769C350.143 215.916 346.346 224.014 341.108 231.846C340.515 232.725 339.667 233.402 338.678 233.787C337.69 234.171 336.607 234.245 335.576 233.997C334.544 233.75 333.613 233.193 332.907 232.402C332.2 231.61 331.752 230.622 331.623 229.569L331.613 229.564Z" fill="white"/>
<path d="M124.031 281.074L129.685 274.247C129.871 274.022 130.117 273.853 130.395 273.761L139.938 270.577C141.981 270.013 143.523 272.241 143.606 272.662C143.905 274.169 143.457 279.435 137.448 281.074C131.438 282.713 126.934 286.517 125.531 287.219C124.128 287.922 121.2 284.491 124.031 281.074Z" fill="white"/>
<path d="M125.132 288.117C124.402 288.117 123.622 287.689 123.009 286.918C121.822 285.427 121.486 282.883 123.41 280.561L129.074 273.734C129.358 273.396 129.73 273.143 130.149 273.005L139.692 269.821C140.164 269.689 140.658 269.66 141.142 269.735C141.626 269.809 142.089 269.986 142.499 270.254C143.571 270.916 144.306 272.01 144.406 272.513C144.702 274.016 144.432 280.014 137.671 281.859C133.238 283.075 129.66 285.481 127.523 286.92C127.002 287.292 126.461 287.635 125.903 287.947C125.663 288.063 125.399 288.121 125.132 288.117ZM124.646 281.587C123.206 283.326 123.542 284.992 124.264 285.916C124.672 286.427 125.081 286.541 125.166 286.5C125.458 286.354 125.966 286.013 126.608 285.578C128.829 284.082 132.542 281.577 137.231 280.298C142.732 278.795 143.041 274.111 142.825 272.856C142.698 272.591 141.572 270.962 140.15 271.353L130.648 274.515C130.512 274.562 130.393 274.646 130.302 274.758L124.646 281.587Z" fill="black"/>
<path d="M44.1973 240.535C44.1973 240.535 57.5879 308.48 126.282 288.932L123.298 278.63C123.298 278.63 79.972 281.865 68.3349 236.33C68.3495 236.325 59.2489 220.306 44.1973 240.535Z" fill="black"/>
<path d="M78.7998 288.156C78.7267 288.156 78.6539 288.146 78.5834 288.127C61.1751 283.336 49.1926 257.184 48.6892 256.073C48.6233 255.883 48.6305 255.676 48.7095 255.492C48.7885 255.307 48.9335 255.159 49.1161 255.076C49.2988 254.993 49.5059 254.981 49.6968 255.042C49.8878 255.104 50.0489 255.235 50.1484 255.409C50.2773 255.679 62.3352 281.983 79.0114 286.565C79.1988 286.617 79.3611 286.735 79.4683 286.897C79.5755 287.06 79.6203 287.255 79.5945 287.448C79.5687 287.641 79.474 287.818 79.328 287.946C79.1819 288.074 78.9943 288.145 78.7998 288.146V288.156Z" fill="white"/>
<path d="M100.185 274.048C100.125 274.049 100.065 274.042 100.007 274.028C92.6405 272.375 86.3538 267.306 81.3171 258.967C74.1355 247.072 71.9053 232.441 72.2701 231.094C72.3239 230.89 72.4556 230.715 72.6368 230.607C72.8181 230.499 73.0345 230.467 73.2394 230.517C73.4444 230.567 73.6215 230.696 73.7327 230.875C73.8438 231.054 73.8802 231.27 73.8339 231.476C73.6101 233.735 79.2937 267.727 100.36 272.457C100.553 272.501 100.724 272.614 100.839 272.775C100.954 272.936 101.006 273.134 100.984 273.331C100.962 273.528 100.869 273.71 100.721 273.842C100.574 273.974 100.383 274.048 100.185 274.048Z" fill="white"/>
</svg>
